%TF.GenerationSoftware,KiCad,Pcbnew,7.0.7*%
%TF.CreationDate,2023-09-22T15:36:31-04:00*%
%TF.ProjectId,HMS_8ValveDriver,484d535f-3856-4616-9c76-654472697665,rev?*%
%TF.SameCoordinates,Original*%
%TF.FileFunction,Copper,L2,Bot*%
%TF.FilePolarity,Positive*%
%FSLAX46Y46*%
G04 Gerber Fmt 4.6, Leading zero omitted, Abs format (unit mm)*
G04 Created by KiCad (PCBNEW 7.0.7) date 2023-09-22 15:36:31*
%MOMM*%
%LPD*%
G01*
G04 APERTURE LIST*
%TA.AperFunction,ComponentPad*%
%ADD10C,1.879600*%
%TD*%
%TA.AperFunction,ComponentPad*%
%ADD11C,3.300000*%
%TD*%
%TA.AperFunction,ComponentPad*%
%ADD12O,1.206400X2.412800*%
%TD*%
%TA.AperFunction,ComponentPad*%
%ADD13O,1.219200X2.438400*%
%TD*%
%TA.AperFunction,ComponentPad*%
%ADD14C,4.318000*%
%TD*%
%TA.AperFunction,ViaPad*%
%ADD15C,0.914400*%
%TD*%
%TA.AperFunction,ViaPad*%
%ADD16C,0.762000*%
%TD*%
%TA.AperFunction,Conductor*%
%ADD17C,0.609600*%
%TD*%
%TA.AperFunction,Conductor*%
%ADD18C,0.304800*%
%TD*%
G04 APERTURE END LIST*
D10*
%TO.P,J5,1,1*%
%TO.N,VCC_1*%
X182791100Y-125323600D03*
%TO.P,J5,2,2*%
%TO.N,/V8OUT*%
X185331100Y-125323600D03*
%TD*%
%TO.P,J1,1,1*%
%TO.N,GND*%
X195491100Y-117703600D03*
%TO.P,J1,2,2*%
%TO.N,/V1*%
X195491100Y-115163600D03*
%TO.P,J1,3,3*%
%TO.N,/V2*%
X195491100Y-112623600D03*
%TO.P,J1,4,4*%
%TO.N,/V3*%
X195491100Y-110083600D03*
%TO.P,J1,5,5*%
%TO.N,/V4*%
X195491100Y-107543600D03*
%TO.P,J1,6,6*%
%TO.N,/V5*%
X195491100Y-105003600D03*
%TO.P,J1,7,7*%
%TO.N,/V6*%
X195491100Y-102463600D03*
%TO.P,J1,8,8*%
%TO.N,/V7*%
X195491100Y-99923600D03*
%TO.P,J1,9,9*%
%TO.N,/V8*%
X195491100Y-97383600D03*
%TO.P,J1,10,10*%
%TO.N,GND*%
X195491100Y-94843600D03*
%TD*%
D11*
%TO.P,J18,3*%
%TO.N,N/C*%
X109131100Y-85953600D03*
%TO.P,J18,4*%
X119291100Y-85953600D03*
D12*
%TO.P,J18,GND,GND*%
%TO.N,GND*%
X111671100Y-91033600D03*
%TO.P,J18,S,OUT*%
%TO.N,/V1*%
X114211100Y-91033600D03*
%TD*%
D11*
%TO.P,J16,3*%
%TO.N,N/C*%
X154851100Y-85953600D03*
%TO.P,J16,4*%
X165011100Y-85953600D03*
D12*
%TO.P,J16,GND,GND*%
%TO.N,GND*%
X157391100Y-91033600D03*
%TO.P,J16,S,OUT*%
%TO.N,/V3*%
X159931100Y-91033600D03*
%TD*%
D10*
%TO.P,J10,1,1*%
%TO.N,VCC_1*%
X131991100Y-125323600D03*
%TO.P,J10,2,2*%
%TO.N,/V3OUT*%
X134531100Y-125323600D03*
%TD*%
D11*
%TO.P,J17,3*%
%TO.N,N/C*%
X131991100Y-85953600D03*
%TO.P,J17,4*%
X142151100Y-85953600D03*
D12*
%TO.P,J17,GND,GND*%
%TO.N,GND*%
X134531100Y-91033600D03*
%TO.P,J17,S,OUT*%
%TO.N,/V2*%
X137071100Y-91033600D03*
%TD*%
D10*
%TO.P,S3,1,1*%
%TO.N,/V3OUT*%
X157949900Y-98933000D03*
%TO.P,S3,2*%
%TO.N,N/C*%
X164452300Y-98933000D03*
%TO.P,S3,3,2*%
%TO.N,GND*%
X157949900Y-103454200D03*
%TO.P,S3,4*%
%TO.N,N/C*%
X164452300Y-103454200D03*
%TD*%
%TO.P,J8,1,1*%
%TO.N,VCC_1*%
X152311100Y-125323600D03*
%TO.P,J8,2,2*%
%TO.N,/V5OUT*%
X154851100Y-125323600D03*
%TD*%
%TO.P,J6,1,1*%
%TO.N,VCC_1*%
X172631100Y-125323600D03*
%TO.P,J6,2,2*%
%TO.N,/V7OUT*%
X175171100Y-125323600D03*
%TD*%
D11*
%TO.P,J15,3*%
%TO.N,N/C*%
X177711100Y-85953600D03*
%TO.P,J15,4*%
X187871100Y-85953600D03*
D12*
%TO.P,J15,GND,GND*%
%TO.N,GND*%
X180251100Y-91033600D03*
%TO.P,J15,S,OUT*%
%TO.N,/V4*%
X182791100Y-91033600D03*
%TD*%
D10*
%TO.P,J7,1,1*%
%TO.N,VCC_1*%
X162471100Y-125323600D03*
%TO.P,J7,2,2*%
%TO.N,/V6OUT*%
X165011100Y-125323600D03*
%TD*%
D13*
%TO.P,IC1,1,I1*%
%TO.N,/V8*%
X151041100Y-110083600D03*
%TO.P,IC1,2,I2*%
%TO.N,/V7*%
X148501100Y-110083600D03*
%TO.P,IC1,3,I3*%
%TO.N,/V6*%
X145961100Y-110083600D03*
%TO.P,IC1,4,I4*%
%TO.N,/V5*%
X143421100Y-110083600D03*
%TO.P,IC1,5,I5*%
%TO.N,/V4*%
X140881100Y-110083600D03*
%TO.P,IC1,6,I6*%
%TO.N,/V3*%
X138341100Y-110083600D03*
%TO.P,IC1,7,I7*%
%TO.N,/V2*%
X135801100Y-110083600D03*
%TO.P,IC1,8,I8*%
%TO.N,/V1*%
X133261100Y-110083600D03*
%TO.P,IC1,9,GND*%
%TO.N,GND*%
X130721100Y-110083600D03*
%TO.P,IC1,10,CD+*%
%TO.N,VCC_1*%
X130721100Y-117703600D03*
%TO.P,IC1,11,O8*%
%TO.N,/V1OUT*%
X133261100Y-117703600D03*
%TO.P,IC1,12,O7*%
%TO.N,/V2OUT*%
X135801100Y-117703600D03*
%TO.P,IC1,13,O6*%
%TO.N,/V3OUT*%
X138341100Y-117703600D03*
%TO.P,IC1,14,O5*%
%TO.N,/V4OUT*%
X140881100Y-117703600D03*
%TO.P,IC1,15,O4*%
%TO.N,/V5OUT*%
X143421100Y-117703600D03*
%TO.P,IC1,16,O3*%
%TO.N,/V6OUT*%
X145961100Y-117703600D03*
%TO.P,IC1,17,O2*%
%TO.N,/V7OUT*%
X148501100Y-117703600D03*
%TO.P,IC1,18,O1*%
%TO.N,/V8OUT*%
X151041100Y-117703600D03*
%TD*%
D10*
%TO.P,S4,1,1*%
%TO.N,/V4OUT*%
X180809900Y-98933000D03*
%TO.P,S4,2*%
%TO.N,N/C*%
X187312300Y-98933000D03*
%TO.P,S4,3,2*%
%TO.N,GND*%
X180809900Y-103454200D03*
%TO.P,S4,4*%
%TO.N,N/C*%
X187312300Y-103454200D03*
%TD*%
%TO.P,S2,1,1*%
%TO.N,/V2OUT*%
X133819900Y-98933000D03*
%TO.P,S2,2*%
%TO.N,N/C*%
X140322300Y-98933000D03*
%TO.P,S2,3,2*%
%TO.N,GND*%
X133819900Y-103454200D03*
%TO.P,S2,4*%
%TO.N,N/C*%
X140322300Y-103454200D03*
%TD*%
%TO.P,J12,1,1*%
%TO.N,VCC_1*%
X111671100Y-125323600D03*
%TO.P,J12,2,2*%
%TO.N,/V1OUT*%
X114211100Y-125323600D03*
%TD*%
D14*
%TO.P,J4,GND,GND*%
%TO.N,GND*%
X102861100Y-113893600D03*
%TO.P,J4,GNDBREAK,GNDBREAK*%
X105861100Y-118593600D03*
%TO.P,J4,PWR,PWR*%
%TO.N,VCC_1*%
X108861100Y-113893600D03*
%TD*%
D10*
%TO.P,J9,1,1*%
%TO.N,VCC_1*%
X142151100Y-125323600D03*
%TO.P,J9,2,2*%
%TO.N,/V4OUT*%
X144691100Y-125323600D03*
%TD*%
%TO.P,S1,1,1*%
%TO.N,/V1OUT*%
X109689900Y-98933000D03*
%TO.P,S1,2*%
%TO.N,N/C*%
X116192300Y-98933000D03*
%TO.P,S1,3,2*%
%TO.N,GND*%
X109689900Y-103454200D03*
%TO.P,S1,4*%
%TO.N,N/C*%
X116192300Y-103454200D03*
%TD*%
%TO.P,J11,1,1*%
%TO.N,VCC_1*%
X121831100Y-125323600D03*
%TO.P,J11,2,2*%
%TO.N,/V2OUT*%
X124371100Y-125323600D03*
%TD*%
D15*
%TO.N,VCC_1*%
X126911100Y-118973600D03*
D16*
%TO.N,/V5*%
X187553600Y-112306100D03*
%TO.N,/V6*%
X189141100Y-96113600D03*
%TO.N,/V7*%
X188506100Y-106273600D03*
%TO.N,/V8*%
X166916100Y-110083600D03*
%TD*%
D17*
%TO.N,/V8OUT*%
X178346100Y-117703600D02*
X151041100Y-117703600D01*
X185331100Y-125323600D02*
X185331100Y-124688600D01*
X185331100Y-124688600D02*
X178346100Y-117703600D01*
%TO.N,/V7OUT*%
X175171100Y-125323600D02*
X175171100Y-124688600D01*
X151993600Y-121513600D02*
X148501100Y-118021100D01*
X148501100Y-118021100D02*
X148501100Y-117703600D01*
X175171100Y-124688600D02*
X171996100Y-121513600D01*
X171996100Y-121513600D02*
X151993600Y-121513600D01*
%TO.N,/V6OUT*%
X165011100Y-124688600D02*
X162788600Y-122466100D01*
X162788600Y-122466100D02*
X150406100Y-122466100D01*
X150406100Y-122466100D02*
X145961100Y-118021100D01*
X145961100Y-118021100D02*
X145961100Y-117703600D01*
X165011100Y-125323600D02*
X165011100Y-124688600D01*
%TO.N,/V5OUT*%
X148818600Y-123418600D02*
X143421100Y-118021100D01*
X153581100Y-123418600D02*
X148818600Y-123418600D01*
X143421100Y-118021100D02*
X143421100Y-117703600D01*
X154851100Y-125323600D02*
X154851100Y-124688600D01*
X154851100Y-124688600D02*
X153581100Y-123418600D01*
%TO.N,/V4OUT*%
X140881100Y-120878600D02*
X140881100Y-117703600D01*
X144691100Y-125323600D02*
X144691100Y-124688600D01*
X144691100Y-124688600D02*
X140881100Y-120878600D01*
%TO.N,/V3OUT*%
X134531100Y-124688600D02*
X138341100Y-120878600D01*
X138341100Y-120878600D02*
X138341100Y-117703600D01*
X134531100Y-125323600D02*
X134531100Y-124688600D01*
%TO.N,/V1OUT*%
X124688600Y-115481100D02*
X131356100Y-115481100D01*
X133261100Y-117386100D02*
X133261100Y-117703600D01*
X114211100Y-105321100D02*
X114211100Y-103416100D01*
X109766100Y-98971100D02*
X109689900Y-98933000D01*
X114211100Y-125323600D02*
X114846100Y-125323600D01*
X114211100Y-103416100D02*
X109766100Y-98971100D01*
X124529850Y-115639850D02*
X124688600Y-115481100D01*
X124529850Y-115639850D02*
X114211100Y-105321100D01*
X114846100Y-125323600D02*
X124529850Y-115639850D01*
X131356100Y-115481100D02*
X133261100Y-117386100D01*
%TO.N,VCC_1*%
X129451100Y-118973600D02*
X126911100Y-118973600D01*
X130721100Y-117703600D02*
X129451100Y-118973600D01*
D18*
%TO.N,/V1*%
X133261100Y-109448600D02*
X114846100Y-91033600D01*
X133261100Y-110083600D02*
X133261100Y-109448600D01*
X137706100Y-115163600D02*
X195491100Y-115163600D01*
X133261100Y-110718600D02*
X137706100Y-115163600D01*
X133261100Y-110083600D02*
X133261100Y-110718600D01*
X114846100Y-91033600D02*
X114211100Y-91033600D01*
%TO.N,/V2*%
X187871100Y-113258600D02*
X188506100Y-112623600D01*
X135801100Y-110718600D02*
X138341100Y-113258600D01*
X135801100Y-110083600D02*
X135801100Y-110718600D01*
X138341100Y-113258600D02*
X187871100Y-113258600D01*
X188506100Y-112623600D02*
X195491100Y-112623600D01*
%TO.N,/V3*%
X174853600Y-105321100D02*
X188823600Y-105321100D01*
X160566100Y-91033600D02*
X174853600Y-105321100D01*
X159931100Y-91033600D02*
X160566100Y-91033600D01*
X193586100Y-110083600D02*
X195491100Y-110083600D01*
X188823600Y-105321100D02*
X193586100Y-110083600D01*
%TO.N,/V4*%
X193586100Y-101828600D02*
X182791100Y-91033600D01*
X195173600Y-107543600D02*
X193586100Y-105956100D01*
X193586100Y-105956100D02*
X193586100Y-101828600D01*
X155803600Y-89763600D02*
X155803600Y-90716100D01*
X155803600Y-90716100D02*
X140881100Y-105638600D01*
X156756100Y-88811100D02*
X155803600Y-89763600D01*
X182791100Y-91033600D02*
X182791100Y-90398600D01*
X182791100Y-90398600D02*
X181203600Y-88811100D01*
X181203600Y-88811100D02*
X156756100Y-88811100D01*
X140881100Y-105638600D02*
X140881100Y-110083600D01*
X195491100Y-107543600D02*
X195173600Y-107543600D01*
%TO.N,/V5*%
X187553600Y-112306100D02*
X145643600Y-112306100D01*
X145643600Y-112306100D02*
X143421100Y-110083600D01*
%TO.N,/V6*%
X195491100Y-102463600D02*
X189141100Y-96113600D01*
%TO.N,/V7*%
X152311100Y-106273600D02*
X148501100Y-110083600D01*
X188506100Y-106273600D02*
X152311100Y-106273600D01*
%TO.N,/V8*%
X166916100Y-110083600D02*
X151041100Y-110083600D01*
%TD*%
%TA.AperFunction,Conductor*%
%TO.N,GND*%
G36*
X195491534Y-79629121D02*
G01*
X195861160Y-79647279D01*
X195862931Y-79647454D01*
X196228524Y-79701685D01*
X196230299Y-79702039D01*
X196409853Y-79747014D01*
X196588808Y-79791840D01*
X196590534Y-79792364D01*
X196764523Y-79854618D01*
X196938506Y-79916871D01*
X196940189Y-79917568D01*
X196992200Y-79942167D01*
X197274287Y-80075584D01*
X197275881Y-80076436D01*
X197592878Y-80266436D01*
X197594386Y-80267445D01*
X197891231Y-80487602D01*
X197892639Y-80488757D01*
X198166470Y-80736941D01*
X198167758Y-80738229D01*
X198415942Y-81012060D01*
X198417097Y-81013468D01*
X198637254Y-81310313D01*
X198638267Y-81311828D01*
X198828263Y-81628819D01*
X198829122Y-81630425D01*
X198987131Y-81964510D01*
X198987828Y-81966193D01*
X199112333Y-82314158D01*
X199112862Y-82315901D01*
X199202660Y-82674400D01*
X199203016Y-82676186D01*
X199257243Y-83041751D01*
X199257421Y-83043558D01*
X199263856Y-83174544D01*
X199275577Y-83413136D01*
X199275599Y-83414047D01*
X199275599Y-126593151D01*
X199275577Y-126594062D01*
X199266343Y-126782026D01*
X199259876Y-126913689D01*
X199257422Y-126963635D01*
X199257243Y-126965448D01*
X199203016Y-127331013D01*
X199202660Y-127332799D01*
X199112862Y-127691298D01*
X199112333Y-127693041D01*
X198987828Y-128041006D01*
X198987131Y-128042689D01*
X198829122Y-128376774D01*
X198828263Y-128378380D01*
X198638267Y-128695371D01*
X198637254Y-128696886D01*
X198417097Y-128993731D01*
X198415942Y-128995139D01*
X198167758Y-129268970D01*
X198166470Y-129270258D01*
X197892639Y-129518442D01*
X197891231Y-129519597D01*
X197594386Y-129739754D01*
X197592871Y-129740767D01*
X197275880Y-129930763D01*
X197274274Y-129931622D01*
X196940189Y-130089631D01*
X196938506Y-130090328D01*
X196590541Y-130214833D01*
X196588798Y-130215362D01*
X196230299Y-130305160D01*
X196228513Y-130305516D01*
X195862948Y-130359743D01*
X195861139Y-130359921D01*
X195491534Y-130378078D01*
X195490651Y-130378100D01*
X101511549Y-130378100D01*
X101510665Y-130378078D01*
X101141058Y-130359921D01*
X101139251Y-130359743D01*
X100773686Y-130305516D01*
X100771900Y-130305160D01*
X100413401Y-130215362D01*
X100411658Y-130214833D01*
X100063693Y-130090328D01*
X100062010Y-130089631D01*
X99825459Y-129977752D01*
X99727919Y-129931619D01*
X99726319Y-129930763D01*
X99409328Y-129740767D01*
X99407813Y-129739754D01*
X99110968Y-129519597D01*
X99109560Y-129518442D01*
X98835729Y-129270258D01*
X98834441Y-129268970D01*
X98586257Y-128995139D01*
X98585102Y-128993731D01*
X98364945Y-128696886D01*
X98363932Y-128695371D01*
X98173936Y-128378380D01*
X98173084Y-128376787D01*
X98015068Y-128042689D01*
X98014371Y-128041006D01*
X97889866Y-127693041D01*
X97889340Y-127691308D01*
X97844514Y-127512353D01*
X97799539Y-127332799D01*
X97799185Y-127331024D01*
X97744954Y-126965431D01*
X97744779Y-126963660D01*
X97726621Y-126594036D01*
X97726600Y-126593149D01*
X97726600Y-126577938D01*
X97726599Y-126577932D01*
X97726599Y-125393233D01*
X100875785Y-125393233D01*
X100906228Y-125669904D01*
X100976630Y-125939196D01*
X101085493Y-126195373D01*
X101085494Y-126195375D01*
X101230488Y-126432957D01*
X101230491Y-126432960D01*
X101230493Y-126432964D01*
X101408542Y-126646912D01*
X101615845Y-126832656D01*
X101847982Y-126986236D01*
X101847983Y-126986237D01*
X101847992Y-126986242D01*
X102099995Y-127104376D01*
X102100005Y-127104380D01*
X102100009Y-127104382D01*
X102366551Y-127184573D01*
X102641928Y-127225100D01*
X102641931Y-127225100D01*
X102850582Y-127225100D01*
X102850589Y-127225100D01*
X103058701Y-127209868D01*
X103330386Y-127149348D01*
X103590363Y-127049915D01*
X103833093Y-126913689D01*
X104053401Y-126743572D01*
X104246592Y-126543192D01*
X104408549Y-126316818D01*
X104535819Y-126069275D01*
X104625691Y-125805839D01*
X104676248Y-125532126D01*
X104683869Y-125323600D01*
X110573719Y-125323600D01*
X110592404Y-125525244D01*
X110594362Y-125532126D01*
X110647823Y-125720020D01*
X110738088Y-125901297D01*
X110738090Y-125901300D01*
X110738092Y-125901303D01*
X110860125Y-126062901D01*
X111009775Y-126199325D01*
X111009776Y-126199326D01*
X111009778Y-126199327D01*
X111009780Y-126199329D01*
X111181955Y-126305935D01*
X111370787Y-126379089D01*
X111569846Y-126416300D01*
X111569847Y-126416300D01*
X111772353Y-126416300D01*
X111772354Y-126416300D01*
X111971413Y-126379089D01*
X112160245Y-126305935D01*
X112332420Y-126199329D01*
X112482074Y-126062901D01*
X112604112Y-125901297D01*
X112694377Y-125720020D01*
X112749796Y-125525243D01*
X112768481Y-125323600D01*
X112749796Y-125121957D01*
X112694377Y-124927180D01*
X112604112Y-124745903D01*
X112604107Y-124745896D01*
X112482074Y-124584298D01*
X112332424Y-124447874D01*
X112332423Y-124447873D01*
X112160245Y-124341265D01*
X111971416Y-124268112D01*
X111971414Y-124268111D01*
X111971413Y-124268111D01*
X111971405Y-124268109D01*
X111971403Y-124268109D01*
X111837537Y-124243085D01*
X111772354Y-124230900D01*
X111569846Y-124230900D01*
X111504663Y-124243085D01*
X111370796Y-124268109D01*
X111370783Y-124268112D01*
X111181954Y-124341265D01*
X111009776Y-124447873D01*
X111009775Y-124447874D01*
X110860125Y-124584298D01*
X110738092Y-124745896D01*
X110738088Y-124745903D01*
X110647823Y-124927181D01*
X110592404Y-125121955D01*
X110573719Y-125323600D01*
X104683869Y-125323600D01*
X104686414Y-125253968D01*
X104655971Y-124977294D01*
X104585569Y-124708001D01*
X104476707Y-124451828D01*
X104474293Y-124447873D01*
X104331711Y-124214242D01*
X104331709Y-124214240D01*
X104331707Y-124214236D01*
X104153658Y-124000288D01*
X103946355Y-123814544D01*
X103808482Y-123723328D01*
X103714216Y-123660962D01*
X103714207Y-123660957D01*
X103462204Y-123542823D01*
X103462192Y-123542818D01*
X103195654Y-123462628D01*
X103195650Y-123462627D01*
X103195649Y-123462627D01*
X102920272Y-123422100D01*
X102711611Y-123422100D01*
X102529513Y-123435428D01*
X102503498Y-123437332D01*
X102231819Y-123497850D01*
X101971836Y-123597284D01*
X101729112Y-123733507D01*
X101508797Y-123903629D01*
X101315607Y-124104008D01*
X101153652Y-124330380D01*
X101026381Y-124577923D01*
X100936509Y-124841357D01*
X100936508Y-124841363D01*
X100885951Y-125115076D01*
X100885951Y-125115084D01*
X100875785Y-125393233D01*
X97726599Y-125393233D01*
X97726599Y-118593599D01*
X103494633Y-118593599D01*
X103514878Y-118902490D01*
X103575267Y-119206085D01*
X103674767Y-119499203D01*
X103811677Y-119776830D01*
X103811681Y-119776838D01*
X103983648Y-120034203D01*
X103983659Y-120034218D01*
X104120885Y-120190694D01*
X104700947Y-119610633D01*
X104727181Y-119599767D01*
X104753415Y-119610633D01*
X104754471Y-119611734D01*
X104754765Y-119612053D01*
X104846594Y-119696587D01*
X104858535Y-119722349D01*
X104848762Y-119749009D01*
X104847701Y-119750116D01*
X104264003Y-120333813D01*
X104420481Y-120471040D01*
X104420496Y-120471051D01*
X104677861Y-120643018D01*
X104677869Y-120643022D01*
X104955496Y-120779932D01*
X105248614Y-120879432D01*
X105552210Y-120939821D01*
X105552208Y-120939821D01*
X105861099Y-120960066D01*
X106169990Y-120939821D01*
X106473585Y-120879432D01*
X106766703Y-120779932D01*
X107044330Y-120643022D01*
X107044338Y-120643018D01*
X107301703Y-120471051D01*
X107301718Y-120471040D01*
X107458195Y-120333813D01*
X106874498Y-119750116D01*
X106863632Y-119723882D01*
X106874498Y-119697648D01*
X106875548Y-119696640D01*
X106967435Y-119612053D01*
X106967446Y-119612038D01*
X106967708Y-119611755D01*
X106967808Y-119611708D01*
X106968564Y-119611013D01*
X106968786Y-119611254D01*
X106993464Y-119599800D01*
X107020129Y-119609558D01*
X107021251Y-119610633D01*
X107601313Y-120190694D01*
X107738540Y-120034218D01*
X107738551Y-120034203D01*
X107910518Y-119776838D01*
X107910522Y-119776830D01*
X108047432Y-119499203D01*
X108146932Y-119206085D01*
X108207321Y-118902490D01*
X108227566Y-118593599D01*
X108207321Y-118284709D01*
X108146932Y-117981114D01*
X108047432Y-117687996D01*
X107910523Y-117410372D01*
X107738544Y-117152986D01*
X107738540Y-117152981D01*
X107601313Y-116996504D01*
X107021251Y-117576565D01*
X106995017Y-117587431D01*
X106968783Y-117576565D01*
X106967725Y-117575462D01*
X106967432Y-117575144D01*
X106875604Y-117490611D01*
X106863663Y-117464849D01*
X106873436Y-117438189D01*
X106874497Y-117437082D01*
X107458194Y-116853385D01*
X107301718Y-116716159D01*
X107301703Y-116716148D01*
X107044338Y-116544181D01*
X107044330Y-116544177D01*
X106766703Y-116407267D01*
X106473585Y-116307767D01*
X106169989Y-116247378D01*
X106169991Y-116247378D01*
X105861099Y-116227133D01*
X105552209Y-116247378D01*
X105248614Y-116307767D01*
X104955496Y-116407267D01*
X104677872Y-116544176D01*
X104420486Y-116716155D01*
X104420481Y-116716159D01*
X104264003Y-116853385D01*
X104847701Y-117437083D01*
X104858567Y-117463317D01*
X104847701Y-117489551D01*
X104846594Y-117490612D01*
X104754766Y-117575145D01*
X104754473Y-117575464D01*
X104754366Y-117575513D01*
X104753636Y-117576186D01*
X104753420Y-117575951D01*
X104728709Y-117587401D01*
X104702050Y-117577623D01*
X104700948Y-117576566D01*
X104120885Y-116996504D01*
X103983659Y-117152981D01*
X103983655Y-117152986D01*
X103811676Y-117410372D01*
X103674767Y-117687996D01*
X103575267Y-117981114D01*
X103514878Y-118284709D01*
X103494633Y-118593599D01*
X97726599Y-118593599D01*
X97726599Y-113893599D01*
X100494633Y-113893599D01*
X100514878Y-114202490D01*
X100575267Y-114506085D01*
X100674767Y-114799203D01*
X100811677Y-115076830D01*
X100811681Y-115076838D01*
X100983648Y-115334203D01*
X100983659Y-115334218D01*
X101120885Y-115490694D01*
X101700947Y-114910633D01*
X101727181Y-114899767D01*
X101753415Y-114910633D01*
X101754471Y-114911734D01*
X101754765Y-114912053D01*
X101808975Y-114961957D01*
X101846594Y-114996587D01*
X101858535Y-115022349D01*
X101848762Y-115049009D01*
X101847701Y-115050116D01*
X101264003Y-115633813D01*
X101420481Y-115771040D01*
X101420496Y-115771051D01*
X101677861Y-115943018D01*
X101677869Y-115943022D01*
X101955496Y-116079932D01*
X102248614Y-116179432D01*
X102552210Y-116239821D01*
X102552208Y-116239821D01*
X102861099Y-116260066D01*
X103169990Y-116239821D01*
X103473585Y-116179432D01*
X103766703Y-116079932D01*
X104044330Y-115943022D01*
X104044338Y-115943018D01*
X104301703Y-115771051D01*
X104301718Y-115771040D01*
X104458195Y-115633813D01*
X103874498Y-115050116D01*
X103863632Y-115023882D01*
X103874498Y-114997648D01*
X103875548Y-114996640D01*
X103967435Y-114912053D01*
X103967446Y-114912038D01*
X103967708Y-114911755D01*
X103967808Y-114911708D01*
X103968564Y-114911013D01*
X103968786Y-114911254D01*
X103993464Y-114899800D01*
X104020129Y-114909558D01*
X104021251Y-114910633D01*
X104601313Y-115490694D01*
X104738540Y-115334218D01*
X104738551Y-115334203D01*
X104910518Y-115076838D01*
X104910522Y-115076830D01*
X105047432Y-114799203D01*
X105146932Y-114506085D01*
X105207321Y-114202490D01*
X105227566Y-113893600D01*
X106544239Y-113893600D01*
X106564060Y-114196015D01*
X106623183Y-114493246D01*
X106720597Y-114780219D01*
X106839406Y-115021139D01*
X106854640Y-115052031D01*
X106929188Y-115163600D01*
X107023010Y-115304015D01*
X107023014Y-115304020D01*
X107111011Y-115404361D01*
X107222832Y-115531868D01*
X107450684Y-115731689D01*
X107702669Y-115900060D01*
X107807817Y-115951913D01*
X107974480Y-116034102D01*
X108162214Y-116097829D01*
X108261452Y-116131516D01*
X108558684Y-116190639D01*
X108558689Y-116190640D01*
X108861100Y-116210461D01*
X109163511Y-116190640D01*
X109460748Y-116131516D01*
X109659222Y-116064142D01*
X109747719Y-116034102D01*
X109747720Y-116034101D01*
X109747724Y-116034100D01*
X110019531Y-115900060D01*
X110271516Y-115731689D01*
X110499368Y-115531868D01*
X110699189Y-115304016D01*
X110867560Y-115052031D01*
X111001600Y-114780224D01*
X111099016Y-114493248D01*
X111158140Y-114196011D01*
X111177961Y-113893600D01*
X111158140Y-113591189D01*
X111099016Y-113293952D01*
X111006028Y-113020020D01*
X111001602Y-113006980D01*
X110937101Y-112876186D01*
X110867560Y-112735170D01*
X110699189Y-112483184D01*
X110499368Y-112255332D01*
X110271521Y-112055515D01*
X110271520Y-112055514D01*
X110271515Y-112055510D01*
X110167912Y-111986285D01*
X110019531Y-111887140D01*
X109932419Y-111844181D01*
X109747719Y-111753097D01*
X109460746Y-111655683D01*
X109163514Y-111596560D01*
X109163516Y-111596560D01*
X108861100Y-111576739D01*
X108558684Y-111596560D01*
X108261453Y-111655683D01*
X107974480Y-111753097D01*
X107702675Y-111887137D01*
X107702671Y-111887139D01*
X107702670Y-111887140D01*
X107548827Y-111989934D01*
X107450678Y-112055515D01*
X107222837Y-112255327D01*
X107222827Y-112255337D01*
X107023015Y-112483178D01*
X107023010Y-112483184D01*
X107023011Y-112483184D01*
X106871210Y-112710372D01*
X106854637Y-112735175D01*
X106720597Y-113006980D01*
X106623183Y-113293953D01*
X106564060Y-113591184D01*
X106544239Y-113893600D01*
X105227566Y-113893600D01*
X105207321Y-113584709D01*
X105146932Y-113281114D01*
X105047432Y-112987996D01*
X104910523Y-112710372D01*
X104738544Y-112452986D01*
X104738540Y-112452981D01*
X104601313Y-112296504D01*
X104021251Y-112876565D01*
X103995017Y-112887431D01*
X103968783Y-112876565D01*
X103967725Y-112875462D01*
X103967432Y-112875144D01*
X103875604Y-112790611D01*
X103863663Y-112764849D01*
X103873436Y-112738189D01*
X103874497Y-112737082D01*
X104458194Y-112153385D01*
X104301718Y-112016159D01*
X104301703Y-112016148D01*
X104044338Y-111844181D01*
X104044330Y-111844177D01*
X103766703Y-111707267D01*
X103473585Y-111607767D01*
X103169989Y-111547378D01*
X103169991Y-111547378D01*
X102861099Y-111527133D01*
X102552209Y-111547378D01*
X102248614Y-111607767D01*
X101955496Y-111707267D01*
X101677872Y-111844176D01*
X101420486Y-112016155D01*
X101420481Y-112016159D01*
X101264003Y-112153385D01*
X101847701Y-112737083D01*
X101858567Y-112763317D01*
X101847701Y-112789551D01*
X101846594Y-112790612D01*
X101754766Y-112875145D01*
X101754473Y-112875464D01*
X101754366Y-112875513D01*
X101753636Y-112876186D01*
X101753420Y-112875951D01*
X101728709Y-112887401D01*
X101702050Y-112877623D01*
X101700948Y-112876566D01*
X101120885Y-112296504D01*
X100983659Y-112452981D01*
X100983655Y-112452986D01*
X100811676Y-112710372D01*
X100674767Y-112987996D01*
X100575267Y-113281114D01*
X100514878Y-113584709D01*
X100494633Y-113893599D01*
X97726599Y-113893599D01*
X97726599Y-105003599D01*
X97726599Y-103454199D01*
X108542807Y-103454199D01*
X108562338Y-103664979D01*
X108620268Y-103868576D01*
X108714622Y-104058066D01*
X108714626Y-104058073D01*
X108812844Y-104188134D01*
X109233741Y-103767239D01*
X109259975Y-103756373D01*
X109286209Y-103767239D01*
X109291185Y-103773414D01*
X109302031Y-103790290D01*
X109376334Y-103854674D01*
X109389043Y-103880064D01*
X109380077Y-103907006D01*
X109378272Y-103908945D01*
X108956247Y-104330970D01*
X108998623Y-104369600D01*
X108998624Y-104369601D01*
X109178596Y-104481035D01*
X109375979Y-104557501D01*
X109375992Y-104557504D01*
X109584061Y-104596400D01*
X109795739Y-104596400D01*
X110003807Y-104557504D01*
X110003820Y-104557501D01*
X110201203Y-104481035D01*
X110381178Y-104369599D01*
X110423551Y-104330970D01*
X110001526Y-103908945D01*
X109990660Y-103882711D01*
X110001526Y-103856477D01*
X110003414Y-103854719D01*
X110077769Y-103790290D01*
X110088613Y-103773416D01*
X110111935Y-103757221D01*
X110139879Y-103762262D01*
X110146057Y-103767239D01*
X110566954Y-104188134D01*
X110665173Y-104058073D01*
X110665177Y-104058066D01*
X110759531Y-103868576D01*
X110817461Y-103664979D01*
X110836992Y-103454199D01*
X110817461Y-103243420D01*
X110759531Y-103039823D01*
X110665177Y-102850333D01*
X110665173Y-102850326D01*
X110566954Y-102720264D01*
X110146057Y-103141159D01*
X110119823Y-103152025D01*
X110093589Y-103141159D01*
X110088613Y-103134984D01*
X110077769Y-103118110D01*
X110077765Y-103118107D01*
X110077765Y-103118106D01*
X110004032Y-103054216D01*
X110003464Y-103053724D01*
X109990755Y-103028334D01*
X109999722Y-103001392D01*
X110001526Y-102999453D01*
X110423551Y-102577428D01*
X110381176Y-102538799D01*
X110381175Y-102538798D01*
X110201203Y-102427364D01*
X110003820Y-102350898D01*
X110003807Y-102350895D01*
X109795739Y-102312000D01*
X109584061Y-102312000D01*
X109375992Y-102350895D01*
X109375979Y-102350898D01*
X109178596Y-102427364D01*
X108998624Y-102538798D01*
X108998623Y-102538799D01*
X108956248Y-102577428D01*
X109378272Y-102999453D01*
X109389138Y-103025687D01*
X109378272Y-103051921D01*
X109376333Y-103053725D01*
X109302032Y-103118107D01*
X109302031Y-103118109D01*
X109291186Y-103134984D01*
X109267862Y-103151178D01*
X109239918Y-103146136D01*
X109233742Y-103141160D01*
X108812844Y-102720264D01*
X108714626Y-102850326D01*
X108714622Y-102850333D01*
X108620268Y-103039823D01*
X108562338Y-103243420D01*
X108542807Y-103454199D01*
X97726599Y-103454199D01*
X97726599Y-98933000D01*
X108592519Y-98933000D01*
X108611204Y-99134643D01*
X108666623Y-99329420D01*
X108756888Y-99510697D01*
X108756890Y-99510700D01*
X108756892Y-99510703D01*
X108878925Y-99672301D01*
X109028575Y-99808725D01*
X109028576Y-99808726D01*
X109028578Y-99808727D01*
X109028580Y-99808729D01*
X109200755Y-99915335D01*
X109389587Y-99988489D01*
X109588646Y-100025700D01*
X109588647Y-100025700D01*
X109791153Y-100025700D01*
X109791154Y-100025700D01*
X109990213Y-99988489D01*
X110072898Y-99956456D01*
X110101282Y-99957112D01*
X110112531Y-99964817D01*
X113742533Y-103594819D01*
X113753399Y-103621053D01*
X113753399Y-105294347D01*
X113753282Y-105296425D01*
X113748553Y-105338407D01*
X113748553Y-105338408D01*
X113759788Y-105397786D01*
X113768794Y-105457533D01*
X113770463Y-105460998D01*
X113773490Y-105470196D01*
X113774205Y-105473976D01*
X113774205Y-105473977D01*
X113802439Y-105527399D01*
X113828657Y-105581842D01*
X113828661Y-105581847D01*
X113831272Y-105584661D01*
X113836877Y-105592559D01*
X113838389Y-105595420D01*
X113838676Y-105595962D01*
X113866968Y-105624254D01*
X113881408Y-105638694D01*
X113922502Y-105682984D01*
X113922504Y-105682985D01*
X113922505Y-105682986D01*
X113925833Y-105684907D01*
X113933516Y-105690802D01*
X123856330Y-115613616D01*
X123867196Y-115639850D01*
X123856330Y-115666084D01*
X115003202Y-124519211D01*
X114976968Y-124530077D01*
X114951974Y-124520394D01*
X114950676Y-124519211D01*
X114872420Y-124447871D01*
X114700245Y-124341265D01*
X114511413Y-124268111D01*
X114511405Y-124268109D01*
X114511403Y-124268109D01*
X114377537Y-124243085D01*
X114312354Y-124230900D01*
X114109846Y-124230900D01*
X114044663Y-124243085D01*
X113910796Y-124268109D01*
X113910783Y-124268112D01*
X113721954Y-124341265D01*
X113549776Y-124447873D01*
X113549775Y-124447874D01*
X113400125Y-124584298D01*
X113278092Y-124745896D01*
X113278088Y-124745903D01*
X113187823Y-124927181D01*
X113132404Y-125121955D01*
X113113719Y-125323599D01*
X113132404Y-125525244D01*
X113134362Y-125532126D01*
X113187823Y-125720020D01*
X113278088Y-125901297D01*
X113278090Y-125901300D01*
X113278092Y-125901303D01*
X113400125Y-126062901D01*
X113549775Y-126199325D01*
X113549776Y-126199326D01*
X113549778Y-126199327D01*
X113549780Y-126199329D01*
X113721955Y-126305935D01*
X113910787Y-126379089D01*
X114109846Y-126416300D01*
X114109847Y-126416300D01*
X114312353Y-126416300D01*
X114312354Y-126416300D01*
X114511413Y-126379089D01*
X114700245Y-126305935D01*
X114872420Y-126199329D01*
X115022074Y-126062901D01*
X115144112Y-125901297D01*
X115234377Y-125720020D01*
X115286384Y-125537229D01*
X115295832Y-125521152D01*
X115493384Y-125323600D01*
X120733719Y-125323600D01*
X120752404Y-125525244D01*
X120754362Y-125532126D01*
X120807823Y-125720020D01*
X120898088Y-125901297D01*
X120898090Y-125901300D01*
X120898092Y-125901303D01*
X121020125Y-126062901D01*
X121169775Y-126199325D01*
X121169776Y-126199326D01*
X121169778Y-126199327D01*
X121169780Y-126199329D01*
X121341955Y-126305935D01*
X121530787Y-126379089D01*
X121729846Y-126416300D01*
X121729847Y-126416300D01*
X121932353Y-126416300D01*
X121932354Y-126416300D01*
X122131413Y-126379089D01*
X122320245Y-126305935D01*
X122492420Y-126199329D01*
X122642074Y-126062901D01*
X122764112Y-125901297D01*
X122854377Y-125720020D01*
X122909796Y-125525243D01*
X122928481Y-125323600D01*
X122928481Y-125323599D01*
X123273719Y-125323599D01*
X123292404Y-125525244D01*
X123294362Y-125532126D01*
X123347823Y-125720020D01*
X123438088Y-125901297D01*
X123438090Y-125901300D01*
X123438092Y-125901303D01*
X123560125Y-126062901D01*
X123709775Y-126199325D01*
X123709776Y-126199326D01*
X123709778Y-126199327D01*
X123709780Y-126199329D01*
X123881955Y-126305935D01*
X124070787Y-126379089D01*
X124269846Y-126416300D01*
X124269847Y-126416300D01*
X124472353Y-126416300D01*
X124472354Y-126416300D01*
X124671413Y-126379089D01*
X124860245Y-126305935D01*
X125032420Y-126199329D01*
X125182074Y-126062901D01*
X125304112Y-125901297D01*
X125394377Y-125720020D01*
X125449796Y-125525243D01*
X125468481Y-125323600D01*
X130893719Y-125323600D01*
X130912404Y-125525244D01*
X130914362Y-125532126D01*
X130967823Y-125720020D01*
X131058088Y-125901297D01*
X131058090Y-125901300D01*
X131058092Y-125901303D01*
X131180125Y-126062901D01*
X131329775Y-126199325D01*
X131329776Y-126199326D01*
X131329778Y-126199327D01*
X131329780Y-126199329D01*
X131501955Y-126305935D01*
X131690787Y-126379089D01*
X131889846Y-126416300D01*
X131889847Y-126416300D01*
X132092353Y-126416300D01*
X132092354Y-126416300D01*
X132291413Y-126379089D01*
X132480245Y-126305935D01*
X132652420Y-126199329D01*
X132802074Y-126062901D01*
X132924112Y-125901297D01*
X133014377Y-125720020D01*
X133069796Y-125525243D01*
X133088481Y-125323600D01*
X133088481Y-125323599D01*
X133433719Y-125323599D01*
X133452404Y-125525244D01*
X133454362Y-125532126D01*
X133507823Y-125720020D01*
X133598088Y-125901297D01*
X133598090Y-125901300D01*
X133598092Y-125901303D01*
X133720125Y-126062901D01*
X133869775Y-126199325D01*
X133869776Y-126199326D01*
X133869778Y-126199327D01*
X133869780Y-126199329D01*
X134041955Y-126305935D01*
X134230787Y-126379089D01*
X134429846Y-126416300D01*
X134429847Y-126416300D01*
X134632353Y-126416300D01*
X134632354Y-126416300D01*
X134831413Y-126379089D01*
X135020245Y-126305935D01*
X135192420Y-126199329D01*
X135342074Y-126062901D01*
X135464112Y-125901297D01*
X135554377Y-125720020D01*
X135609796Y-125525243D01*
X135628481Y-125323600D01*
X135628481Y-125323599D01*
X141053719Y-125323599D01*
X141072404Y-125525244D01*
X141074362Y-125532126D01*
X141127823Y-125720020D01*
X141218088Y-125901297D01*
X141218090Y-125901300D01*
X141218092Y-125901303D01*
X141340125Y-126062901D01*
X141489775Y-126199325D01*
X141489776Y-126199326D01*
X141489778Y-126199327D01*
X141489780Y-126199329D01*
X141661955Y-126305935D01*
X141850787Y-126379089D01*
X142049846Y-126416300D01*
X142049847Y-126416300D01*
X142252353Y-126416300D01*
X142252354Y-126416300D01*
X142451413Y-126379089D01*
X142640245Y-126305935D01*
X142812420Y-126199329D01*
X142962074Y-126062901D01*
X143084112Y-125901297D01*
X143174377Y-125720020D01*
X143229796Y-125525243D01*
X143248481Y-125323600D01*
X143229796Y-125121957D01*
X143174377Y-124927180D01*
X143084112Y-124745903D01*
X143084107Y-124745896D01*
X142962074Y-124584298D01*
X142812424Y-124447874D01*
X142812423Y-124447873D01*
X142640245Y-124341265D01*
X142451416Y-124268112D01*
X142451414Y-124268111D01*
X142451413Y-124268111D01*
X142451405Y-124268109D01*
X142451403Y-124268109D01*
X142317537Y-124243085D01*
X142252354Y-124230900D01*
X142049846Y-124230900D01*
X141984663Y-124243085D01*
X141850796Y-124268109D01*
X141850783Y-124268112D01*
X141661954Y-124341265D01*
X141489776Y-124447873D01*
X141489775Y-124447874D01*
X141340125Y-124584298D01*
X141218092Y-124745896D01*
X141218088Y-124745903D01*
X141127823Y-124927181D01*
X141072404Y-125121955D01*
X141053719Y-125323599D01*
X135628481Y-125323599D01*
X135609796Y-125121957D01*
X135554377Y-124927180D01*
X135464112Y-124745903D01*
X135464107Y-124745896D01*
X135342076Y-124584300D01*
X135339725Y-124582158D01*
X135327655Y-124556456D01*
X135337294Y-124529747D01*
X135338460Y-124528524D01*
X138645828Y-121221155D01*
X138647369Y-121219778D01*
X138680408Y-121193432D01*
X138709979Y-121150059D01*
X138714450Y-121143502D01*
X138750328Y-121094890D01*
X138750329Y-121094887D01*
X138750331Y-121094885D01*
X138751602Y-121091251D01*
X138755967Y-121082605D01*
X138758131Y-121079432D01*
X138775936Y-121021709D01*
X138795901Y-120964653D01*
X138796044Y-120960808D01*
X138797666Y-120951259D01*
X138798800Y-120947587D01*
X138798800Y-120887175D01*
X138801060Y-120826775D01*
X138800064Y-120823057D01*
X138798800Y-120813455D01*
X138798800Y-118941689D01*
X138809666Y-118915455D01*
X138813746Y-118911930D01*
X138867922Y-118871598D01*
X138982496Y-118735053D01*
X139062494Y-118575766D01*
X139103600Y-118402323D01*
X139103600Y-118357613D01*
X140118600Y-118357613D01*
X140134102Y-118490241D01*
X140195066Y-118657741D01*
X140293014Y-118806661D01*
X140411760Y-118918693D01*
X140423384Y-118944599D01*
X140423400Y-118945678D01*
X140423400Y-120851845D01*
X140423283Y-120853923D01*
X140418553Y-120895908D01*
X140429788Y-120955286D01*
X140438794Y-121015033D01*
X140440463Y-121018498D01*
X140443490Y-121027696D01*
X140444205Y-121031476D01*
X140444205Y-121031477D01*
X140472439Y-121084899D01*
X140498657Y-121139342D01*
X140498661Y-121139347D01*
X140501272Y-121142161D01*
X140506877Y-121150059D01*
X140508676Y-121153462D01*
X140548646Y-121193432D01*
X140551408Y-121196194D01*
X140592502Y-121240484D01*
X140592504Y-121240485D01*
X140592505Y-121240486D01*
X140595833Y-121242407D01*
X140603516Y-121248302D01*
X143883718Y-124528503D01*
X143894584Y-124554737D01*
X143883718Y-124580971D01*
X143882482Y-124582151D01*
X143880124Y-124584300D01*
X143758092Y-124745896D01*
X143758088Y-124745903D01*
X143667823Y-124927181D01*
X143612404Y-125121955D01*
X143593719Y-125323600D01*
X143612404Y-125525244D01*
X143614362Y-125532126D01*
X143667823Y-125720020D01*
X143758088Y-125901297D01*
X143758090Y-125901300D01*
X143758092Y-125901303D01*
X143880125Y-126062901D01*
X144029775Y-126199325D01*
X144029776Y-126199326D01*
X144029778Y-126199327D01*
X144029780Y-126199329D01*
X144201955Y-126305935D01*
X144390787Y-126379089D01*
X144589846Y-126416300D01*
X144589847Y-126416300D01*
X144792353Y-126416300D01*
X144792354Y-126416300D01*
X144991413Y-126379089D01*
X145180245Y-126305935D01*
X145352420Y-126199329D01*
X145502074Y-126062901D01*
X145624112Y-125901297D01*
X145714377Y-125720020D01*
X145769796Y-125525243D01*
X145788481Y-125323600D01*
X145788481Y-125323599D01*
X151213719Y-125323599D01*
X151232404Y-125525244D01*
X151234362Y-125532126D01*
X151287823Y-125720020D01*
X151378088Y-125901297D01*
X151378090Y-125901300D01*
X151378092Y-125901303D01*
X151500125Y-126062901D01*
X151649775Y-126199325D01*
X151649776Y-126199326D01*
X151649778Y-126199327D01*
X151649780Y-126199329D01*
X151821955Y-126305935D01*
X152010787Y-126379089D01*
X152209846Y-126416300D01*
X152209847Y-126416300D01*
X152412353Y-126416300D01*
X152412354Y-126416300D01*
X152611413Y-126379089D01*
X152800245Y-126305935D01*
X152972420Y-126199329D01*
X153122074Y-126062901D01*
X153244112Y-125901297D01*
X153334377Y-125720020D01*
X153389796Y-125525243D01*
X153408481Y-125323600D01*
X153389796Y-125121957D01*
X153334377Y-124927180D01*
X153244112Y-124745903D01*
X153244107Y-124745896D01*
X153122074Y-124584298D01*
X152972424Y-124447874D01*
X152972423Y-124447873D01*
X152800245Y-124341265D01*
X152611416Y-124268112D01*
X152611414Y-124268111D01*
X152611413Y-124268111D01*
X152611405Y-124268109D01*
X152611403Y-124268109D01*
X152477537Y-124243085D01*
X152412354Y-124230900D01*
X152209846Y-124230900D01*
X152144663Y-124243085D01*
X152010796Y-124268109D01*
X152010783Y-124268112D01*
X151821954Y-124341265D01*
X151649776Y-124447873D01*
X151649775Y-124447874D01*
X151500125Y-124584298D01*
X151378092Y-124745896D01*
X151378088Y-124745903D01*
X151287823Y-124927181D01*
X151232404Y-125121955D01*
X151213719Y-125323599D01*
X145788481Y-125323599D01*
X145769796Y-125121957D01*
X145714377Y-124927180D01*
X145624112Y-124745903D01*
X145624107Y-124745896D01*
X145502074Y-124584298D01*
X145352424Y-124447874D01*
X145352423Y-124447873D01*
X145180245Y-124341265D01*
X144991416Y-124268112D01*
X144991403Y-124268108D01*
X144912287Y-124253319D01*
X144892870Y-124243085D01*
X141349666Y-120699880D01*
X141338800Y-120673646D01*
X141338800Y-118941689D01*
X141349666Y-118915455D01*
X141353746Y-118911930D01*
X141407922Y-118871598D01*
X141522496Y-118735053D01*
X141602494Y-118575766D01*
X141643600Y-118402323D01*
X141643600Y-118357613D01*
X142658600Y-118357613D01*
X142674102Y-118490241D01*
X142735066Y-118657741D01*
X142833013Y-118806659D01*
X142833015Y-118806662D01*
X142962667Y-118928983D01*
X143117033Y-119018106D01*
X143287792Y-119069228D01*
X143287796Y-119069228D01*
X143287800Y-119069229D01*
X143347480Y-119072704D01*
X143465737Y-119079592D01*
X143641276Y-119048640D01*
X143729990Y-119010371D01*
X143758381Y-119009959D01*
X143770918Y-119018204D01*
X148476043Y-123723328D01*
X148477429Y-123724880D01*
X148503768Y-123757908D01*
X148530398Y-123776064D01*
X148553706Y-123791955D01*
X148602309Y-123827827D01*
X148602315Y-123827830D01*
X148605942Y-123829099D01*
X148614589Y-123833463D01*
X148617768Y-123835631D01*
X148675500Y-123853439D01*
X148732547Y-123873401D01*
X148736390Y-123873544D01*
X148745937Y-123875166D01*
X148749613Y-123876300D01*
X148810025Y-123876300D01*
X148870425Y-123878560D01*
X148874144Y-123877564D01*
X148883744Y-123876300D01*
X153376146Y-123876300D01*
X153402380Y-123887166D01*
X153729456Y-124214242D01*
X154043718Y-124528503D01*
X154054584Y-124554737D01*
X154043718Y-124580971D01*
X154042482Y-124582151D01*
X154040124Y-124584300D01*
X153918092Y-124745896D01*
X153918088Y-124745903D01*
X153827823Y-124927181D01*
X153772404Y-125121955D01*
X153753719Y-125323599D01*
X153772404Y-125525244D01*
X153774362Y-125532126D01*
X153827823Y-125720020D01*
X153918088Y-125901297D01*
X153918090Y-125901300D01*
X153918092Y-125901303D01*
X154040125Y-126062901D01*
X154189775Y-126199325D01*
X154189776Y-126199326D01*
X154189778Y-126199327D01*
X154189780Y-126199329D01*
X154361955Y-126305935D01*
X154550787Y-126379089D01*
X154749846Y-126416300D01*
X154749847Y-126416300D01*
X154952353Y-126416300D01*
X154952354Y-126416300D01*
X155151413Y-126379089D01*
X155340245Y-126305935D01*
X155512420Y-126199329D01*
X155662074Y-126062901D01*
X155784112Y-125901297D01*
X155874377Y-125720020D01*
X155929796Y-125525243D01*
X155948481Y-125323600D01*
X155948481Y-125323599D01*
X161373719Y-125323599D01*
X161392404Y-125525244D01*
X161394362Y-125532126D01*
X161447823Y-125720020D01*
X161538088Y-125901297D01*
X161538090Y-125901300D01*
X161538092Y-125901303D01*
X161660125Y-126062901D01*
X161809775Y-126199325D01*
X161809776Y-126199326D01*
X161809778Y-126199327D01*
X161809780Y-126199329D01*
X161981955Y-126305935D01*
X162170787Y-126379089D01*
X162369846Y-126416300D01*
X162369847Y-126416300D01*
X162572353Y-126416300D01*
X162572354Y-126416300D01*
X162771413Y-126379089D01*
X162960245Y-126305935D01*
X163132420Y-126199329D01*
X163282074Y-126062901D01*
X163404112Y-125901297D01*
X163494377Y-125720020D01*
X163549796Y-125525243D01*
X163568481Y-125323600D01*
X163549796Y-125121957D01*
X163494377Y-124927180D01*
X163404112Y-124745903D01*
X163404107Y-124745896D01*
X163282074Y-124584298D01*
X163132424Y-124447874D01*
X163132423Y-124447873D01*
X162960245Y-124341265D01*
X162771416Y-124268112D01*
X162771414Y-124268111D01*
X162771413Y-124268111D01*
X162771405Y-124268109D01*
X162771403Y-124268109D01*
X162637537Y-124243085D01*
X162572354Y-124230900D01*
X162369846Y-124230900D01*
X162304663Y-124243085D01*
X162170796Y-124268109D01*
X162170783Y-124268112D01*
X161981954Y-124341265D01*
X161809776Y-124447873D01*
X161809775Y-124447874D01*
X161660125Y-124584298D01*
X161538092Y-124745896D01*
X161538088Y-124745903D01*
X161447823Y-124927181D01*
X161392404Y-125121955D01*
X161373719Y-125323599D01*
X155948481Y-125323599D01*
X155929796Y-125121957D01*
X155874377Y-124927180D01*
X155784112Y-124745903D01*
X155784107Y-124745896D01*
X155662074Y-124584298D01*
X155512424Y-124447874D01*
X155512423Y-124447873D01*
X155340245Y-124341265D01*
X155151416Y-124268112D01*
X155151403Y-124268108D01*
X155072288Y-124253319D01*
X155052871Y-124243085D01*
X153923654Y-123113868D01*
X153922267Y-123112316D01*
X153895933Y-123079293D01*
X153895932Y-123079292D01*
X153845994Y-123045245D01*
X153797385Y-123009370D01*
X153796978Y-123009227D01*
X153793749Y-123008097D01*
X153785114Y-123003737D01*
X153781936Y-123001571D01*
X153781935Y-123001570D01*
X153781932Y-123001569D01*
X153765015Y-122996350D01*
X153743152Y-122978235D01*
X153740501Y-122949964D01*
X153758618Y-122928099D01*
X153775953Y-122923800D01*
X162583646Y-122923800D01*
X162609880Y-122934666D01*
X163408725Y-123733511D01*
X164203718Y-124528503D01*
X164214584Y-124554737D01*
X164203718Y-124580971D01*
X164202482Y-124582151D01*
X164200124Y-124584300D01*
X164078092Y-124745896D01*
X164078088Y-124745903D01*
X163987823Y-124927181D01*
X163932404Y-125121955D01*
X163913719Y-125323599D01*
X163932404Y-125525244D01*
X163934362Y-125532126D01*
X163987823Y-125720020D01*
X164078088Y-125901297D01*
X164078090Y-125901300D01*
X164078092Y-125901303D01*
X164200125Y-126062901D01*
X164349775Y-126199325D01*
X164349776Y-126199326D01*
X164349778Y-126199327D01*
X164349780Y-126199329D01*
X164521955Y-126305935D01*
X164710787Y-126379089D01*
X164909846Y-126416300D01*
X164909847Y-126416300D01*
X165112353Y-126416300D01*
X165112354Y-126416300D01*
X165311413Y-126379089D01*
X165500245Y-126305935D01*
X165672420Y-126199329D01*
X165822074Y-126062901D01*
X165944112Y-125901297D01*
X166034377Y-125720020D01*
X166089796Y-125525243D01*
X166108481Y-125323600D01*
X166108481Y-125323599D01*
X171533719Y-125323599D01*
X171552404Y-125525244D01*
X171554362Y-125532126D01*
X171607823Y-125720020D01*
X171698088Y-125901297D01*
X171698090Y-125901300D01*
X171698092Y-125901303D01*
X171820125Y-126062901D01*
X171969775Y-126199325D01*
X171969776Y-126199326D01*
X171969778Y-126199327D01*
X171969780Y-126199329D01*
X172141955Y-126305935D01*
X172330787Y-126379089D01*
X172529846Y-126416300D01*
X172529847Y-126416300D01*
X172732353Y-126416300D01*
X172732354Y-126416300D01*
X172931413Y-126379089D01*
X173120245Y-126305935D01*
X173292420Y-126199329D01*
X173442074Y-126062901D01*
X173564112Y-125901297D01*
X173654377Y-125720020D01*
X173709796Y-125525243D01*
X173728481Y-125323600D01*
X173709796Y-125121957D01*
X173654377Y-124927180D01*
X173564112Y-124745903D01*
X173564107Y-124745896D01*
X173442074Y-124584298D01*
X173292424Y-124447874D01*
X173292423Y-124447873D01*
X173120245Y-124341265D01*
X172931416Y-124268112D01*
X172931414Y-124268111D01*
X172931413Y-124268111D01*
X172931405Y-124268109D01*
X172931403Y-124268109D01*
X172797537Y-124243085D01*
X172732354Y-124230900D01*
X172529846Y-124230900D01*
X172464663Y-124243085D01*
X172330796Y-124268109D01*
X172330783Y-124268112D01*
X172141954Y-124341265D01*
X171969776Y-124447873D01*
X171969775Y-124447874D01*
X171820125Y-124584298D01*
X171698092Y-124745896D01*
X171698088Y-124745903D01*
X171607823Y-124927181D01*
X171552404Y-125121955D01*
X171533719Y-125323599D01*
X166108481Y-125323599D01*
X166089796Y-125121957D01*
X166034377Y-124927180D01*
X165944112Y-124745903D01*
X165944107Y-124745896D01*
X165822074Y-124584298D01*
X165672424Y-124447874D01*
X165672423Y-124447873D01*
X165500245Y-124341265D01*
X165311416Y-124268112D01*
X165311403Y-124268108D01*
X165232287Y-124253319D01*
X165212870Y-124243085D01*
X163131155Y-122161369D01*
X163129768Y-122159817D01*
X163103433Y-122126793D01*
X163103432Y-122126792D01*
X163053494Y-122092745D01*
X163004885Y-122056870D01*
X163004478Y-122056727D01*
X163001249Y-122055597D01*
X162992614Y-122051237D01*
X162989436Y-122049071D01*
X162989435Y-122049070D01*
X162989432Y-122049069D01*
X162972515Y-122043850D01*
X162950652Y-122025735D01*
X162948001Y-121997464D01*
X162966118Y-121975599D01*
X162983453Y-121971300D01*
X171791146Y-121971300D01*
X171817380Y-121982166D01*
X174363718Y-124528503D01*
X174374584Y-124554737D01*
X174363718Y-124580971D01*
X174362482Y-124582151D01*
X174360124Y-124584300D01*
X174238092Y-124745896D01*
X174238088Y-124745903D01*
X174147823Y-124927181D01*
X174092404Y-125121955D01*
X174073719Y-125323599D01*
X174092404Y-125525244D01*
X174094362Y-125532126D01*
X174147823Y-125720020D01*
X174238088Y-125901297D01*
X174238090Y-125901300D01*
X174238092Y-125901303D01*
X174360125Y-126062901D01*
X174509775Y-126199325D01*
X174509776Y-126199326D01*
X174509778Y-126199327D01*
X174509780Y-126199329D01*
X174681955Y-126305935D01*
X174870787Y-126379089D01*
X175069846Y-126416300D01*
X175069847Y-126416300D01*
X175272353Y-126416300D01*
X175272354Y-126416300D01*
X175471413Y-126379089D01*
X175660245Y-126305935D01*
X175832420Y-126199329D01*
X175982074Y-126062901D01*
X176104112Y-125901297D01*
X176194377Y-125720020D01*
X176249796Y-125525243D01*
X176268481Y-125323600D01*
X176268481Y-125323599D01*
X181693719Y-125323599D01*
X181712404Y-125525244D01*
X181714362Y-125532126D01*
X181767823Y-125720020D01*
X181858088Y-125901297D01*
X181858090Y-125901300D01*
X181858092Y-125901303D01*
X181980125Y-126062901D01*
X182129775Y-126199325D01*
X182129776Y-126199326D01*
X182129778Y-126199327D01*
X182129780Y-126199329D01*
X182301955Y-126305935D01*
X182490787Y-126379089D01*
X182689846Y-126416300D01*
X182689847Y-126416300D01*
X182892353Y-126416300D01*
X182892354Y-126416300D01*
X183091413Y-126379089D01*
X183280245Y-126305935D01*
X183452420Y-126199329D01*
X183602074Y-126062901D01*
X183724112Y-125901297D01*
X183814377Y-125720020D01*
X183869796Y-125525243D01*
X183888481Y-125323600D01*
X183869796Y-125121957D01*
X183814377Y-124927180D01*
X183724112Y-124745903D01*
X183724107Y-124745896D01*
X183602074Y-124584298D01*
X183452424Y-124447874D01*
X183452423Y-124447873D01*
X183280245Y-124341265D01*
X183091416Y-124268112D01*
X183091414Y-124268111D01*
X183091413Y-124268111D01*
X183091405Y-124268109D01*
X183091403Y-124268109D01*
X182957537Y-124243085D01*
X182892354Y-124230900D01*
X182689846Y-124230900D01*
X182624663Y-124243085D01*
X182490796Y-124268109D01*
X182490783Y-124268112D01*
X182301954Y-124341265D01*
X182129776Y-124447873D01*
X182129775Y-124447874D01*
X181980125Y-124584298D01*
X181858092Y-124745896D01*
X181858088Y-124745903D01*
X181767823Y-124927181D01*
X181712404Y-125121955D01*
X181693719Y-125323599D01*
X176268481Y-125323599D01*
X176249796Y-125121957D01*
X176194377Y-124927180D01*
X176104112Y-124745903D01*
X176104107Y-124745896D01*
X175982074Y-124584298D01*
X175832424Y-124447874D01*
X175832423Y-124447873D01*
X175660245Y-124341265D01*
X175471416Y-124268112D01*
X175471403Y-124268108D01*
X175392288Y-124253319D01*
X175372871Y-124243085D01*
X172338655Y-121208869D01*
X172337268Y-121207317D01*
X172310933Y-121174293D01*
X172310932Y-121174292D01*
X172260994Y-121140245D01*
X172259770Y-121139342D01*
X172212385Y-121104370D01*
X172211978Y-121104227D01*
X172208749Y-121103097D01*
X172200114Y-121098737D01*
X172196936Y-121096571D01*
X172196935Y-121096570D01*
X172191489Y-121094890D01*
X172139185Y-121078756D01*
X172120174Y-121072104D01*
X172082155Y-121058800D01*
X172082149Y-121058799D01*
X172078304Y-121058655D01*
X172068767Y-121057034D01*
X172065089Y-121055900D01*
X172065087Y-121055900D01*
X172004663Y-121055900D01*
X171944274Y-121053639D01*
X171940556Y-121054636D01*
X171930956Y-121055900D01*
X152198554Y-121055900D01*
X152172320Y-121045034D01*
X149484899Y-118357613D01*
X150278600Y-118357613D01*
X150294102Y-118490241D01*
X150355066Y-118657741D01*
X150453013Y-118806659D01*
X150453015Y-118806662D01*
X150582667Y-118928983D01*
X150737033Y-119018106D01*
X150907792Y-119069228D01*
X150907796Y-119069228D01*
X150907800Y-119069229D01*
X150967480Y-119072704D01*
X151085737Y-119079592D01*
X151261276Y-119048640D01*
X151424945Y-118978040D01*
X151567922Y-118871598D01*
X151682496Y-118735053D01*
X151762494Y-118575766D01*
X151803600Y-118402323D01*
X151803600Y-118198400D01*
X151814466Y-118172166D01*
X151840700Y-118161300D01*
X178141146Y-118161300D01*
X178167380Y-118172166D01*
X184523718Y-124528503D01*
X184534584Y-124554737D01*
X184523718Y-124580971D01*
X184522482Y-124582151D01*
X184520124Y-124584300D01*
X184398092Y-124745896D01*
X184398088Y-124745903D01*
X184307823Y-124927181D01*
X184252404Y-125121955D01*
X184233719Y-125323599D01*
X184252404Y-125525244D01*
X184254362Y-125532126D01*
X184307823Y-125720020D01*
X184398088Y-125901297D01*
X184398090Y-125901300D01*
X184398092Y-125901303D01*
X184520125Y-126062901D01*
X184669775Y-126199325D01*
X184669776Y-126199326D01*
X184669778Y-126199327D01*
X184669780Y-126199329D01*
X184841955Y-126305935D01*
X185030787Y-126379089D01*
X185229846Y-126416300D01*
X185229847Y-126416300D01*
X185432353Y-126416300D01*
X185432354Y-126416300D01*
X185631413Y-126379089D01*
X185820245Y-126305935D01*
X185992420Y-126199329D01*
X186142074Y-126062901D01*
X186264112Y-125901297D01*
X186354377Y-125720020D01*
X186409796Y-125525243D01*
X186422029Y-125393233D01*
X192315785Y-125393233D01*
X192346228Y-125669904D01*
X192416630Y-125939196D01*
X192525493Y-126195373D01*
X192525494Y-126195375D01*
X192670488Y-126432957D01*
X192670491Y-126432960D01*
X192670493Y-126432964D01*
X192848542Y-126646912D01*
X193055845Y-126832656D01*
X193287982Y-126986236D01*
X193287983Y-126986237D01*
X193287992Y-126986242D01*
X193539995Y-127104376D01*
X193540005Y-127104380D01*
X193540009Y-127104382D01*
X193806551Y-127184573D01*
X194081928Y-127225100D01*
X194081931Y-127225100D01*
X194290582Y-127225100D01*
X194290589Y-127225100D01*
X194498701Y-127209868D01*
X194770386Y-127149348D01*
X195030363Y-127049915D01*
X195273093Y-126913689D01*
X195493401Y-126743572D01*
X195686592Y-126543192D01*
X195848549Y-126316818D01*
X195975819Y-126069275D01*
X196065691Y-125805839D01*
X196116248Y-125532126D01*
X196126414Y-125253968D01*
X196095971Y-124977294D01*
X196025569Y-124708001D01*
X195916707Y-124451828D01*
X195914293Y-124447873D01*
X195771711Y-124214242D01*
X195771709Y-124214240D01*
X195771707Y-124214236D01*
X195593658Y-124000288D01*
X195386355Y-123814544D01*
X195248482Y-123723328D01*
X195154216Y-123660962D01*
X195154207Y-123660957D01*
X194902204Y-123542823D01*
X194902192Y-123542818D01*
X194635654Y-123462628D01*
X194635650Y-123462627D01*
X194635649Y-123462627D01*
X194360272Y-123422100D01*
X194151611Y-123422100D01*
X193969513Y-123435428D01*
X193943498Y-123437332D01*
X193671819Y-123497850D01*
X193411836Y-123597284D01*
X193169112Y-123733507D01*
X192948797Y-123903629D01*
X192755607Y-124104008D01*
X192593652Y-124330380D01*
X192466381Y-124577923D01*
X192376509Y-124841357D01*
X192376508Y-124841363D01*
X192325951Y-125115076D01*
X192325951Y-125115084D01*
X192315785Y-125393233D01*
X186422029Y-125393233D01*
X186428481Y-125323600D01*
X186409796Y-125121957D01*
X186354377Y-124927180D01*
X186264112Y-124745903D01*
X186264107Y-124745896D01*
X186142074Y-124584298D01*
X185992424Y-124447874D01*
X185992423Y-124447873D01*
X185820245Y-124341265D01*
X185631416Y-124268112D01*
X185631403Y-124268108D01*
X185552287Y-124253319D01*
X185532870Y-124243085D01*
X178993386Y-117703600D01*
X194344007Y-117703600D01*
X194363538Y-117914379D01*
X194421468Y-118117976D01*
X194515822Y-118307466D01*
X194515826Y-118307473D01*
X194614044Y-118437534D01*
X195034941Y-118016639D01*
X195061175Y-118005773D01*
X195087409Y-118016639D01*
X195092385Y-118022814D01*
X195103231Y-118039690D01*
X195177534Y-118104074D01*
X195190243Y-118129464D01*
X195181277Y-118156406D01*
X195179472Y-118158345D01*
X194757447Y-118580370D01*
X194799823Y-118619000D01*
X194799824Y-118619001D01*
X194979796Y-118730435D01*
X195177179Y-118806901D01*
X195177192Y-118806904D01*
X195385261Y-118845800D01*
X195596939Y-118845800D01*
X195805007Y-118806904D01*
X195805020Y-118806901D01*
X196002403Y-118730435D01*
X196182378Y-118618999D01*
X196224751Y-118580370D01*
X195802726Y-118158345D01*
X195791860Y-118132111D01*
X195802726Y-118105877D01*
X195804614Y-118104119D01*
X195878969Y-118039690D01*
X195889813Y-118022816D01*
X195913135Y-118006621D01*
X195941079Y-118011662D01*
X195947257Y-118016639D01*
X196368154Y-118437534D01*
X196466373Y-118307473D01*
X196466377Y-118307466D01*
X196560731Y-118117976D01*
X196618661Y-117914379D01*
X196638192Y-117703600D01*
X196618661Y-117492820D01*
X196560731Y-117289223D01*
X196466377Y-117099733D01*
X196466373Y-117099726D01*
X196368154Y-116969664D01*
X195947257Y-117390559D01*
X195921023Y-117401425D01*
X195894789Y-117390559D01*
X195889813Y-117384384D01*
X195878969Y-117367510D01*
X195878965Y-117367507D01*
X195878965Y-117367506D01*
X195804665Y-117303125D01*
X195791955Y-117277734D01*
X195800922Y-117250792D01*
X195802726Y-117248853D01*
X196224751Y-116826828D01*
X196182376Y-116788199D01*
X196182375Y-116788198D01*
X196002403Y-116676764D01*
X195805020Y-116600298D01*
X195805007Y-116600295D01*
X195596939Y-116561400D01*
X195385261Y-116561400D01*
X195177192Y-116600295D01*
X195177179Y-116600298D01*
X194979796Y-116676764D01*
X194799824Y-116788198D01*
X194799823Y-116788199D01*
X194757448Y-116826828D01*
X195179472Y-117248853D01*
X195190338Y-117275087D01*
X195179472Y-117301321D01*
X195177533Y-117303125D01*
X195103232Y-117367507D01*
X195103231Y-117367509D01*
X195092386Y-117384384D01*
X195069062Y-117400578D01*
X195041118Y-117395536D01*
X195034942Y-117390560D01*
X194614044Y-116969664D01*
X194515826Y-117099726D01*
X194515822Y-117099733D01*
X194421468Y-117289223D01*
X194363538Y-117492820D01*
X194344007Y-117703600D01*
X178993386Y-117703600D01*
X178688655Y-117398869D01*
X178687268Y-117397317D01*
X178660933Y-117364293D01*
X178660932Y-117364292D01*
X178610994Y-117330245D01*
X178562385Y-117294370D01*
X178561978Y-117294227D01*
X178558749Y-117293097D01*
X178550114Y-117288737D01*
X178546936Y-117286571D01*
X178546935Y-117286570D01*
X178546932Y-117286569D01*
X178489185Y-117268756D01*
X178464216Y-117260019D01*
X178432155Y-117248800D01*
X178432149Y-117248799D01*
X178428304Y-117248655D01*
X178418767Y-117247034D01*
X178415089Y-117245900D01*
X178415087Y-117245900D01*
X178354663Y-117245900D01*
X178294274Y-117243639D01*
X178290556Y-117244636D01*
X178280956Y-117245900D01*
X151840700Y-117245900D01*
X151814466Y-117235034D01*
X151803600Y-117208800D01*
X151803600Y-117049595D01*
X151803600Y-117049594D01*
X151803600Y-117049588D01*
X151788098Y-116916958D01*
X151727134Y-116749461D01*
X151727133Y-116749458D01*
X151629186Y-116600540D01*
X151629185Y-116600538D01*
X151499533Y-116478217D01*
X151345167Y-116389094D01*
X151345165Y-116389093D01*
X151345163Y-116389092D01*
X151174413Y-116337973D01*
X151174399Y-116337970D01*
X150996460Y-116327607D01*
X150820925Y-116358559D01*
X150657257Y-116429159D01*
X150657255Y-116429160D01*
X150591360Y-116478217D01*
X150514274Y-116535605D01*
X150399705Y-116672144D01*
X150399704Y-116672146D01*
X150319706Y-116831433D01*
X150319705Y-116831434D01*
X150278600Y-117004877D01*
X150278600Y-118357613D01*
X149484899Y-118357613D01*
X149274466Y-118147180D01*
X149263600Y-118120946D01*
X149263600Y-117049594D01*
X149263600Y-117049588D01*
X149248098Y-116916958D01*
X149187134Y-116749461D01*
X149187133Y-116749458D01*
X149089186Y-116600540D01*
X149089185Y-116600538D01*
X148959533Y-116478217D01*
X148805167Y-116389094D01*
X148805165Y-116389093D01*
X148805163Y-116389092D01*
X148634413Y-116337973D01*
X148634399Y-116337970D01*
X148456460Y-116327607D01*
X148280925Y-116358559D01*
X148117257Y-116429159D01*
X148117255Y-116429160D01*
X148051360Y-116478217D01*
X147974274Y-116535605D01*
X147859705Y-116672144D01*
X147859704Y-116672146D01*
X147779706Y-116831433D01*
X147779705Y-116831434D01*
X147738600Y-117004877D01*
X147738600Y-118357613D01*
X147754102Y-118490241D01*
X147815066Y-118657741D01*
X147913013Y-118806659D01*
X147913015Y-118806662D01*
X148042667Y-118928983D01*
X148197033Y-119018106D01*
X148367792Y-119069228D01*
X148367796Y-119069228D01*
X148367800Y-119069229D01*
X148427480Y-119072704D01*
X148545737Y-119079592D01*
X148721276Y-119048640D01*
X148809990Y-119010371D01*
X148838381Y-119009959D01*
X148850918Y-119018204D01*
X151651043Y-121818328D01*
X151652429Y-121819880D01*
X151678768Y-121852908D01*
X151705398Y-121871064D01*
X151728706Y-121886955D01*
X151777309Y-121922827D01*
X151777315Y-121922830D01*
X151780942Y-121924099D01*
X151789589Y-121928463D01*
X151792768Y-121930631D01*
X151809684Y-121935848D01*
X151831548Y-121953965D01*
X151834199Y-121982236D01*
X151816082Y-122004101D01*
X151798747Y-122008400D01*
X150611054Y-122008400D01*
X150584820Y-121997534D01*
X146734466Y-118147180D01*
X146723600Y-118120946D01*
X146723600Y-117049594D01*
X146723600Y-117049588D01*
X146708098Y-116916958D01*
X146647134Y-116749461D01*
X146647133Y-116749458D01*
X146549186Y-116600540D01*
X146549185Y-116600538D01*
X146419533Y-116478217D01*
X146265167Y-116389094D01*
X146265165Y-116389093D01*
X146265163Y-116389092D01*
X146094413Y-116337973D01*
X146094399Y-116337970D01*
X145916460Y-116327607D01*
X145740925Y-116358559D01*
X145577257Y-116429159D01*
X145577255Y-116429160D01*
X145511360Y-116478217D01*
X145434274Y-116535605D01*
X145319705Y-116672144D01*
X145319704Y-116672146D01*
X145239706Y-116831433D01*
X145239705Y-116831434D01*
X145198600Y-117004877D01*
X145198600Y-118357613D01*
X145214102Y-118490241D01*
X145275066Y-118657741D01*
X145373013Y-118806659D01*
X145373015Y-118806662D01*
X145502667Y-118928983D01*
X145657033Y-119018106D01*
X145827792Y-119069228D01*
X145827796Y-119069228D01*
X145827800Y-119069229D01*
X145887480Y-119072704D01*
X146005737Y-119079592D01*
X146181276Y-119048640D01*
X146269990Y-119010371D01*
X146298381Y-119009959D01*
X146310918Y-119018204D01*
X150063547Y-122770833D01*
X150064933Y-122772385D01*
X150091268Y-122805408D01*
X150141197Y-122839448D01*
X150189815Y-122875330D01*
X150189818Y-122875331D01*
X150193442Y-122876599D01*
X150202087Y-122880962D01*
X150205268Y-122883131D01*
X150222183Y-122888348D01*
X150244049Y-122906464D01*
X150246700Y-122934735D01*
X150228584Y-122956601D01*
X150211248Y-122960900D01*
X149023553Y-122960900D01*
X148997319Y-122950034D01*
X144194466Y-118147181D01*
X144183600Y-118120947D01*
X144183600Y-117049594D01*
X144183600Y-117049588D01*
X144168098Y-116916958D01*
X144107134Y-116749461D01*
X144107133Y-116749458D01*
X144009186Y-116600540D01*
X144009185Y-116600538D01*
X143879533Y-116478217D01*
X143725167Y-116389094D01*
X143725165Y-116389093D01*
X143725163Y-116389092D01*
X143554413Y-116337973D01*
X143554399Y-116337970D01*
X143376460Y-116327607D01*
X143200925Y-116358559D01*
X143037257Y-116429159D01*
X143037255Y-116429160D01*
X142971360Y-116478217D01*
X142894274Y-116535605D01*
X142779705Y-116672144D01*
X142779704Y-116672146D01*
X142699706Y-116831433D01*
X142699705Y-116831434D01*
X142658600Y-117004877D01*
X142658600Y-118357613D01*
X141643600Y-118357613D01*
X141643600Y-117049588D01*
X141628098Y-116916958D01*
X141567134Y-116749461D01*
X141567133Y-116749458D01*
X141469186Y-116600540D01*
X141469185Y-116600538D01*
X141339533Y-116478217D01*
X141185167Y-116389094D01*
X141185165Y-116389093D01*
X141185163Y-116389092D01*
X141014413Y-116337973D01*
X141014399Y-116337970D01*
X140836460Y-116327607D01*
X140660925Y-116358559D01*
X140497257Y-116429159D01*
X140497255Y-116429160D01*
X140431360Y-116478217D01*
X140354274Y-116535605D01*
X140239705Y-116672144D01*
X140239704Y-116672146D01*
X140159706Y-116831433D01*
X140159705Y-116831434D01*
X140118600Y-117004877D01*
X140118600Y-118357613D01*
X139103600Y-118357613D01*
X139103600Y-117049588D01*
X139088098Y-116916958D01*
X139027134Y-116749461D01*
X139027133Y-116749458D01*
X138929186Y-116600540D01*
X138929185Y-116600538D01*
X138799533Y-116478217D01*
X138645167Y-116389094D01*
X138645165Y-116389093D01*
X138645163Y-116389092D01*
X138474413Y-116337973D01*
X138474399Y-116337970D01*
X138296460Y-116327607D01*
X138120925Y-116358559D01*
X137957257Y-116429159D01*
X137957255Y-116429160D01*
X137891360Y-116478217D01*
X137814274Y-116535605D01*
X137699705Y-116672144D01*
X137699704Y-116672146D01*
X137619706Y-116831433D01*
X137619705Y-116831434D01*
X137578600Y-117004877D01*
X137578600Y-118357613D01*
X137594102Y-118490241D01*
X137655066Y-118657741D01*
X137753014Y-118806661D01*
X137871760Y-118918693D01*
X137883384Y-118944599D01*
X137883400Y-118945678D01*
X137883400Y-120673646D01*
X137872534Y-120699880D01*
X134329328Y-124243085D01*
X134309912Y-124253319D01*
X134230795Y-124268109D01*
X134230783Y-124268112D01*
X134041954Y-124341265D01*
X133869776Y-124447873D01*
X133869775Y-124447874D01*
X133720125Y-124584298D01*
X133598092Y-124745896D01*
X133598088Y-124745903D01*
X133507823Y-124927181D01*
X133452404Y-125121955D01*
X133433719Y-125323599D01*
X133088481Y-125323599D01*
X133069796Y-125121957D01*
X133014377Y-124927180D01*
X132924112Y-124745903D01*
X132924107Y-124745896D01*
X132802074Y-124584298D01*
X132652424Y-124447874D01*
X132652423Y-124447873D01*
X132480245Y-124341265D01*
X132291416Y-124268112D01*
X132291414Y-124268111D01*
X132291413Y-124268111D01*
X132291405Y-124268109D01*
X132291403Y-124268109D01*
X132157537Y-124243085D01*
X132092354Y-124230900D01*
X131889846Y-124230900D01*
X131824663Y-124243085D01*
X131690796Y-124268109D01*
X131690783Y-124268112D01*
X131501954Y-124341265D01*
X131329776Y-124447873D01*
X131329775Y-124447874D01*
X131180125Y-124584298D01*
X131058092Y-124745896D01*
X131058088Y-124745903D01*
X130967823Y-124927181D01*
X130912404Y-125121955D01*
X130893719Y-125323600D01*
X125468481Y-125323600D01*
X125449796Y-125121957D01*
X125394377Y-124927180D01*
X125304112Y-124745903D01*
X125304107Y-124745896D01*
X125182074Y-124584298D01*
X125032424Y-124447874D01*
X125032423Y-124447873D01*
X124860245Y-124341265D01*
X124671416Y-124268112D01*
X124671414Y-124268111D01*
X124671413Y-124268111D01*
X124671405Y-124268109D01*
X124671403Y-124268109D01*
X124537537Y-124243085D01*
X124472354Y-124230900D01*
X124269846Y-124230900D01*
X124204663Y-124243085D01*
X124070796Y-124268109D01*
X124070783Y-124268112D01*
X123881954Y-124341265D01*
X123709776Y-124447873D01*
X123709775Y-124447874D01*
X123560125Y-124584298D01*
X123438092Y-124745896D01*
X123438088Y-124745903D01*
X123347823Y-124927181D01*
X123292404Y-125121955D01*
X123273719Y-125323599D01*
X122928481Y-125323599D01*
X122909796Y-125121957D01*
X122854377Y-124927180D01*
X122764112Y-124745903D01*
X122764107Y-124745896D01*
X122642074Y-124584298D01*
X122492424Y-124447874D01*
X122492423Y-124447873D01*
X122320245Y-124341265D01*
X122131416Y-124268112D01*
X122131414Y-124268111D01*
X122131413Y-124268111D01*
X122131405Y-124268109D01*
X122131403Y-124268109D01*
X121997537Y-124243085D01*
X121932354Y-124230900D01*
X121729846Y-124230900D01*
X121664663Y-124243085D01*
X121530796Y-124268109D01*
X121530783Y-124268112D01*
X121341954Y-124341265D01*
X121169776Y-124447873D01*
X121169775Y-124447874D01*
X121020125Y-124584298D01*
X120898092Y-124745896D01*
X120898088Y-124745903D01*
X120807823Y-124927181D01*
X120752404Y-125121955D01*
X120733719Y-125323600D01*
X115493384Y-125323600D01*
X121843381Y-118973603D01*
X126296519Y-118973603D01*
X126314377Y-119120678D01*
X126343567Y-119197644D01*
X126366916Y-119259210D01*
X126433753Y-119356041D01*
X126451079Y-119381141D01*
X126451082Y-119381145D01*
X126513167Y-119436147D01*
X126561978Y-119479390D01*
X126693167Y-119548243D01*
X126837020Y-119583700D01*
X126837023Y-119583700D01*
X126985177Y-119583700D01*
X126985180Y-119583700D01*
X127129033Y-119548243D01*
X127260222Y-119479390D01*
X127303972Y-119440630D01*
X127328575Y-119431300D01*
X129424346Y-119431300D01*
X129426424Y-119431417D01*
X129441173Y-119433078D01*
X129468407Y-119436147D01*
X129527786Y-119424911D01*
X129587533Y-119415906D01*
X129590995Y-119414238D01*
X129600200Y-119411209D01*
X129603976Y-119410495D01*
X129657399Y-119382260D01*
X129711844Y-119356041D01*
X129714665Y-119353422D01*
X129722558Y-119347822D01*
X129725962Y-119346024D01*
X129768694Y-119303291D01*
X129812986Y-119262195D01*
X129814908Y-119258864D01*
X129820800Y-119251184D01*
X130175613Y-118896371D01*
X130201846Y-118885506D01*
X130227305Y-118895620D01*
X130262667Y-118928983D01*
X130417033Y-119018106D01*
X130587792Y-119069228D01*
X130587796Y-119069228D01*
X130587800Y-119069229D01*
X130647480Y-119072704D01*
X130765737Y-119079592D01*
X130941276Y-119048640D01*
X131104945Y-118978040D01*
X131247922Y-118871598D01*
X131362496Y-118735053D01*
X131442494Y-118575766D01*
X131483600Y-118402323D01*
X131483600Y-117049588D01*
X131468098Y-116916958D01*
X131407134Y-116749461D01*
X131407133Y-116749458D01*
X131309186Y-116600540D01*
X131309185Y-116600538D01*
X131179533Y-116478217D01*
X131025167Y-116389094D01*
X131025165Y-116389093D01*
X131025163Y-116389092D01*
X130854413Y-116337973D01*
X130854399Y-116337970D01*
X130676460Y-116327607D01*
X130500925Y-116358559D01*
X130337257Y-116429159D01*
X130337255Y-116429160D01*
X130271360Y-116478217D01*
X130194274Y-116535605D01*
X130079705Y-116672144D01*
X130079704Y-116672146D01*
X129999706Y-116831433D01*
X129999705Y-116831434D01*
X129958600Y-117004877D01*
X129958599Y-117004880D01*
X129958599Y-117803446D01*
X129947733Y-117829680D01*
X129272381Y-118505034D01*
X129246147Y-118515900D01*
X127328575Y-118515900D01*
X127303973Y-118506570D01*
X127260221Y-118467809D01*
X127220629Y-118447030D01*
X127129033Y-118398957D01*
X127129029Y-118398956D01*
X126985182Y-118363500D01*
X126985180Y-118363500D01*
X126837020Y-118363500D01*
X126837017Y-118363500D01*
X126693170Y-118398956D01*
X126693169Y-118398956D01*
X126693167Y-118398957D01*
X126645300Y-118424079D01*
X126561978Y-118467809D01*
X126451082Y-118566054D01*
X126451079Y-118566058D01*
X126366918Y-118687986D01*
X126366916Y-118687990D01*
X126314377Y-118826521D01*
X126296519Y-118973596D01*
X126296519Y-118973603D01*
X121843381Y-118973603D01*
X124814076Y-116002908D01*
X124820568Y-115997732D01*
X124831775Y-115990692D01*
X124865170Y-115951884D01*
X124866083Y-115950901D01*
X124866776Y-115950208D01*
X124867337Y-115949649D01*
X124893553Y-115938800D01*
X131151146Y-115938800D01*
X131177380Y-115949666D01*
X132487734Y-117260019D01*
X132498600Y-117286253D01*
X132498600Y-118357613D01*
X132514102Y-118490241D01*
X132575066Y-118657741D01*
X132673013Y-118806659D01*
X132673015Y-118806662D01*
X132802667Y-118928983D01*
X132957033Y-119018106D01*
X133127792Y-119069228D01*
X133127796Y-119069228D01*
X133127800Y-119069229D01*
X133187480Y-119072704D01*
X133305737Y-119079592D01*
X133481276Y-119048640D01*
X133644945Y-118978040D01*
X133787922Y-118871598D01*
X133902496Y-118735053D01*
X133982494Y-118575766D01*
X134023600Y-118402323D01*
X134023600Y-118357613D01*
X135038600Y-118357613D01*
X135054102Y-118490241D01*
X135115066Y-118657741D01*
X135213013Y-118806659D01*
X135213015Y-118806662D01*
X135342667Y-118928983D01*
X135497033Y-119018106D01*
X135667792Y-119069228D01*
X135667796Y-119069228D01*
X135667800Y-119069229D01*
X135727480Y-119072704D01*
X135845737Y-119079592D01*
X136021276Y-119048640D01*
X136184945Y-118978040D01*
X136327922Y-118871598D01*
X136442496Y-118735053D01*
X136522494Y-118575766D01*
X136563600Y-118402323D01*
X136563600Y-117049588D01*
X136548098Y-116916958D01*
X136487134Y-116749461D01*
X136487133Y-116749458D01*
X136389186Y-116600540D01*
X136389185Y-116600538D01*
X136259533Y-116478217D01*
X136105167Y-116389094D01*
X136105165Y-116389093D01*
X136105163Y-116389092D01*
X135934413Y-116337973D01*
X135934399Y-116337970D01*
X135756460Y-116327607D01*
X135580925Y-116358559D01*
X135417257Y-116429159D01*
X135417255Y-116429160D01*
X135351360Y-116478217D01*
X135274274Y-116535605D01*
X135159705Y-116672144D01*
X135159704Y-116672146D01*
X135079706Y-116831433D01*
X135079705Y-116831434D01*
X135038600Y-117004877D01*
X135038600Y-118357613D01*
X134023600Y-118357613D01*
X134023600Y-117049588D01*
X134008098Y-116916958D01*
X133947134Y-116749461D01*
X133947133Y-116749458D01*
X133849186Y-116600540D01*
X133849185Y-116600538D01*
X133719533Y-116478217D01*
X133565167Y-116389094D01*
X133565165Y-116389093D01*
X133565163Y-116389092D01*
X133394413Y-116337973D01*
X133394399Y-116337970D01*
X133216460Y-116327607D01*
X133040924Y-116358559D01*
X132952208Y-116396827D01*
X132923816Y-116397240D01*
X132911280Y-116388995D01*
X131698655Y-115176369D01*
X131697268Y-115174817D01*
X131670933Y-115141793D01*
X131670932Y-115141792D01*
X131620994Y-115107745D01*
X131572385Y-115071870D01*
X131571978Y-115071727D01*
X131568749Y-115070597D01*
X131560114Y-115066237D01*
X131556936Y-115064071D01*
X131556935Y-115064070D01*
X131556932Y-115064069D01*
X131499185Y-115046256D01*
X131468906Y-115035661D01*
X131442155Y-115026300D01*
X131442149Y-115026299D01*
X131438304Y-115026155D01*
X131428767Y-115024534D01*
X131425089Y-115023400D01*
X131425087Y-115023400D01*
X131364663Y-115023400D01*
X131304274Y-115021139D01*
X131300556Y-115022136D01*
X131290956Y-115023400D01*
X124715354Y-115023400D01*
X124713276Y-115023283D01*
X124682718Y-115019840D01*
X124671293Y-115018553D01*
X124671292Y-115018553D01*
X124671291Y-115018553D01*
X124611912Y-115029788D01*
X124591464Y-115032869D01*
X124563904Y-115026032D01*
X124559703Y-115022417D01*
X120276083Y-110738797D01*
X129909100Y-110738797D01*
X129910485Y-110751095D01*
X130335938Y-110325642D01*
X130362172Y-110314776D01*
X130388404Y-110325641D01*
X130479056Y-110416293D01*
X130489922Y-110442526D01*
X130479056Y-110468760D01*
X129962900Y-110984917D01*
X129962900Y-110984918D01*
X129984884Y-111047744D01*
X130082231Y-111202671D01*
X130211628Y-111332068D01*
X130211627Y-111332068D01*
X130366555Y-111429415D01*
X130539261Y-111489848D01*
X130539271Y-111489850D01*
X130721099Y-111510337D01*
X130902928Y-111489850D01*
X130902938Y-111489848D01*
X131075644Y-111429415D01*
X131230571Y-111332068D01*
X131359968Y-111202671D01*
X131457315Y-111047744D01*
X131479298Y-110984918D01*
X131479298Y-110984917D01*
X130963142Y-110468761D01*
X130952276Y-110442527D01*
X130963140Y-110416296D01*
X131053794Y-110325642D01*
X131080027Y-110314777D01*
X131106261Y-110325643D01*
X131531714Y-110751096D01*
X131533100Y-110738804D01*
X131533100Y-109428395D01*
X131531714Y-109416103D01*
X131106260Y-109841556D01*
X131080026Y-109852422D01*
X131053793Y-109841556D01*
X130963141Y-109750904D01*
X130952276Y-109724672D01*
X130963142Y-109698438D01*
X131479298Y-109182281D01*
X131479298Y-109182280D01*
X131457315Y-109119455D01*
X131359968Y-108964528D01*
X131230571Y-108835131D01*
X131230572Y-108835131D01*
X131075644Y-108737784D01*
X130902938Y-108677351D01*
X130902928Y-108677349D01*
X130721100Y-108656862D01*
X130539271Y-108677349D01*
X130539261Y-108677351D01*
X130366555Y-108737784D01*
X130211628Y-108835131D01*
X130082231Y-108964528D01*
X129984884Y-109119454D01*
X129962900Y-109182282D01*
X130479057Y-109698439D01*
X130489923Y-109724673D01*
X130479057Y-109750905D01*
X130388405Y-109841557D01*
X130362173Y-109852423D01*
X130335939Y-109841557D01*
X129910485Y-109416103D01*
X129909100Y-109428402D01*
X129909100Y-110738797D01*
X120276083Y-110738797D01*
X114679665Y-105142380D01*
X114668799Y-105116146D01*
X114668799Y-104329925D01*
X114668799Y-103454199D01*
X115094919Y-103454199D01*
X115113604Y-103655844D01*
X115132076Y-103720768D01*
X115169023Y-103850620D01*
X115259288Y-104031897D01*
X115259290Y-104031900D01*
X115259292Y-104031903D01*
X115381325Y-104193501D01*
X115530975Y-104329925D01*
X115530976Y-104329926D01*
X115530978Y-104329927D01*
X115530980Y-104329929D01*
X115703155Y-104436535D01*
X115891987Y-104509689D01*
X116091046Y-104546900D01*
X116091047Y-104546900D01*
X116293553Y-104546900D01*
X116293554Y-104546900D01*
X116492613Y-104509689D01*
X116681445Y-104436535D01*
X116853620Y-104329929D01*
X117003274Y-104193501D01*
X117125312Y-104031897D01*
X117215577Y-103850620D01*
X117270996Y-103655843D01*
X117289681Y-103454200D01*
X117270996Y-103252557D01*
X117215577Y-103057780D01*
X117125312Y-102876503D01*
X117112863Y-102860018D01*
X117003274Y-102714898D01*
X116853624Y-102578474D01*
X116853623Y-102578473D01*
X116681445Y-102471865D01*
X116492616Y-102398712D01*
X116492614Y-102398711D01*
X116492613Y-102398711D01*
X116492605Y-102398709D01*
X116492603Y-102398709D01*
X116410714Y-102383401D01*
X116293554Y-102361500D01*
X116091046Y-102361500D01*
X116017295Y-102375286D01*
X115891996Y-102398709D01*
X115891983Y-102398712D01*
X115703154Y-102471865D01*
X115530976Y-102578473D01*
X115530975Y-102578474D01*
X115381325Y-102714898D01*
X115259292Y-102876496D01*
X115259288Y-102876503D01*
X115171043Y-103053725D01*
X115169023Y-103057781D01*
X115113604Y-103252555D01*
X115094919Y-103454199D01*
X114668799Y-103454199D01*
X114668799Y-103442835D01*
X114668915Y-103440783D01*
X114673647Y-103398793D01*
X114662411Y-103339413D01*
X114653406Y-103279667D01*
X114651735Y-103276198D01*
X114648708Y-103266995D01*
X114647995Y-103263224D01*
X114619760Y-103209800D01*
X114593542Y-103155357D01*
X114593541Y-103155356D01*
X114590926Y-103152538D01*
X114585318Y-103144633D01*
X114583523Y-103141236D01*
X114540791Y-103098505D01*
X114499697Y-103054216D01*
X114499692Y-103054212D01*
X114496366Y-103052292D01*
X114488683Y-103046397D01*
X110741557Y-99299271D01*
X110730691Y-99273037D01*
X110732106Y-99262889D01*
X110768596Y-99134643D01*
X110787281Y-98933000D01*
X115094919Y-98933000D01*
X115113604Y-99134643D01*
X115169023Y-99329420D01*
X115259288Y-99510697D01*
X115259290Y-99510700D01*
X115259292Y-99510703D01*
X115381325Y-99672301D01*
X115530975Y-99808725D01*
X115530976Y-99808726D01*
X115530978Y-99808727D01*
X115530980Y-99808729D01*
X115703155Y-99915335D01*
X115891987Y-99988489D01*
X116091046Y-100025700D01*
X116091047Y-100025700D01*
X116293553Y-100025700D01*
X116293554Y-100025700D01*
X116492613Y-99988489D01*
X116681445Y-99915335D01*
X116853620Y-99808729D01*
X117003274Y-99672301D01*
X117125312Y-99510697D01*
X117215577Y-99329420D01*
X117270996Y-99134643D01*
X117289681Y-98933000D01*
X117270996Y-98731357D01*
X117215577Y-98536580D01*
X117125312Y-98355303D01*
X117052836Y-98259329D01*
X117003274Y-98193698D01*
X116853624Y-98057274D01*
X116853623Y-98057273D01*
X116681445Y-97950665D01*
X116492616Y-97877512D01*
X116492614Y-97877511D01*
X116492613Y-97877511D01*
X116492605Y-97877509D01*
X116492603Y-97877509D01*
X116410714Y-97862201D01*
X116293554Y-97840300D01*
X116091046Y-97840300D01*
X116017295Y-97854086D01*
X115891996Y-97877509D01*
X115891983Y-97877512D01*
X115703154Y-97950665D01*
X115530976Y-98057273D01*
X115530975Y-98057274D01*
X115381325Y-98193698D01*
X115259292Y-98355296D01*
X115259288Y-98355303D01*
X115169023Y-98536581D01*
X115113604Y-98731355D01*
X115113603Y-98731357D01*
X115113604Y-98731357D01*
X115094919Y-98933000D01*
X110787281Y-98933000D01*
X110768596Y-98731357D01*
X110713177Y-98536580D01*
X110622912Y-98355303D01*
X110550436Y-98259329D01*
X110500874Y-98193698D01*
X110351224Y-98057274D01*
X110351223Y-98057273D01*
X110179045Y-97950665D01*
X109990216Y-97877512D01*
X109990214Y-97877511D01*
X109990213Y-97877511D01*
X109990205Y-97877509D01*
X109990203Y-97877509D01*
X109908314Y-97862201D01*
X109791154Y-97840300D01*
X109588646Y-97840300D01*
X109514895Y-97854086D01*
X109389596Y-97877509D01*
X109389583Y-97877512D01*
X109200754Y-97950665D01*
X109028576Y-98057273D01*
X109028575Y-98057274D01*
X108878925Y-98193698D01*
X108756892Y-98355296D01*
X108756888Y-98355303D01*
X108666623Y-98536581D01*
X108611204Y-98731355D01*
X108611203Y-98731357D01*
X108611204Y-98731357D01*
X108592519Y-98933000D01*
X97726599Y-98933000D01*
X97726599Y-91682032D01*
X110865499Y-91682032D01*
X110866922Y-91694657D01*
X111290463Y-91271116D01*
X111316697Y-91260250D01*
X111342931Y-91271116D01*
X111343457Y-91271642D01*
X111343459Y-91271645D01*
X111433055Y-91361241D01*
X111433057Y-91361242D01*
X111433582Y-91361767D01*
X111444448Y-91388001D01*
X111433582Y-91414235D01*
X110919582Y-91928234D01*
X110940687Y-91988550D01*
X111037267Y-92142255D01*
X111165644Y-92270632D01*
X111165643Y-92270632D01*
X111319350Y-92367212D01*
X111490694Y-92427168D01*
X111490704Y-92427170D01*
X111671100Y-92447496D01*
X111851495Y-92427170D01*
X111851505Y-92427168D01*
X112022849Y-92367212D01*
X112176555Y-92270632D01*
X112304932Y-92142255D01*
X112401512Y-91988549D01*
X112422616Y-91928236D01*
X112422616Y-91928235D01*
X111908617Y-91414235D01*
X111897751Y-91388001D01*
X111908617Y-91361767D01*
X111909140Y-91361243D01*
X111909145Y-91361241D01*
X111998741Y-91271645D01*
X111998743Y-91271640D01*
X111999267Y-91271117D01*
X112025501Y-91260251D01*
X112051735Y-91271117D01*
X112475277Y-91694659D01*
X112476699Y-91682039D01*
X112476699Y-91680834D01*
X113455000Y-91680834D01*
X113470373Y-91812356D01*
X113530825Y-91978447D01*
X113627951Y-92126120D01*
X113756515Y-92247414D01*
X113756517Y-92247415D01*
X113756518Y-92247416D01*
X113909581Y-92335787D01*
X113909583Y-92335787D01*
X113909585Y-92335789D01*
X114078911Y-92386482D01*
X114078915Y-92386482D01*
X114078919Y-92386483D01*
X114138098Y-92389929D01*
X114255363Y-92396759D01*
X114429428Y-92366067D01*
X114591723Y-92296059D01*
X114733499Y-92190511D01*
X114847113Y-92055112D01*
X114926438Y-91897162D01*
X114967200Y-91725175D01*
X114967200Y-91676027D01*
X114978066Y-91649793D01*
X115004300Y-91638927D01*
X115030534Y-91649793D01*
X132538303Y-109157562D01*
X132549169Y-109183796D01*
X132545224Y-109200444D01*
X132539706Y-109211432D01*
X132539705Y-109211433D01*
X132498600Y-109384877D01*
X132498600Y-110737613D01*
X132514102Y-110870241D01*
X132575066Y-111037741D01*
X132640830Y-111137728D01*
X132673015Y-111186662D01*
X132802667Y-111308983D01*
X132957033Y-111398106D01*
X133127792Y-111449228D01*
X133127796Y-111449228D01*
X133127800Y-111449229D01*
X133187480Y-111452704D01*
X133305737Y-111459592D01*
X133481276Y-111428640D01*
X133498745Y-111421104D01*
X133527138Y-111420690D01*
X133539676Y-111428935D01*
X137450727Y-115339987D01*
X137457700Y-115349677D01*
X137458243Y-115350768D01*
X137458244Y-115350769D01*
X137458245Y-115350771D01*
X137458247Y-115350772D01*
X137458248Y-115350774D01*
X137494869Y-115384158D01*
X137495489Y-115384750D01*
X137502856Y-115392116D01*
X137510223Y-115399483D01*
X137515018Y-115402768D01*
X137517029Y-115404361D01*
X137527736Y-115414121D01*
X137542596Y-115427667D01*
X137542597Y-115427667D01*
X137542598Y-115427668D01*
X137549667Y-115430406D01*
X137558769Y-115433932D01*
X137566335Y-115437920D01*
X137580645Y-115447724D01*
X137614317Y-115455643D01*
X137616775Y-115456404D01*
X137649025Y-115468899D01*
X137649030Y-115468900D01*
X137666378Y-115468900D01*
X137674872Y-115469885D01*
X137691756Y-115473856D01*
X137726010Y-115469077D01*
X137728573Y-115468900D01*
X194413880Y-115468900D01*
X194440114Y-115479766D01*
X194449564Y-115495847D01*
X194467823Y-115560020D01*
X194558088Y-115741297D01*
X194558090Y-115741300D01*
X194558092Y-115741303D01*
X194680125Y-115902901D01*
X194829775Y-116039325D01*
X194829776Y-116039326D01*
X194829778Y-116039327D01*
X194829780Y-116039329D01*
X195001955Y-116145935D01*
X195190787Y-116219089D01*
X195389846Y-116256300D01*
X195389847Y-116256300D01*
X195592353Y-116256300D01*
X195592354Y-116256300D01*
X195791413Y-116219089D01*
X195980245Y-116145935D01*
X196152420Y-116039329D01*
X196302074Y-115902901D01*
X196424112Y-115741297D01*
X196514377Y-115560020D01*
X196569796Y-115365243D01*
X196588481Y-115163600D01*
X196569796Y-114961957D01*
X196514377Y-114767180D01*
X196424112Y-114585903D01*
X196424107Y-114585896D01*
X196302074Y-114424298D01*
X196152424Y-114287874D01*
X196152423Y-114287873D01*
X195980245Y-114181265D01*
X195791416Y-114108112D01*
X195791414Y-114108111D01*
X195791413Y-114108111D01*
X195791405Y-114108109D01*
X195791403Y-114108109D01*
X195709514Y-114092801D01*
X195592354Y-114070900D01*
X195389846Y-114070900D01*
X195316095Y-114084686D01*
X195190796Y-114108109D01*
X195190783Y-114108112D01*
X195001954Y-114181265D01*
X194829776Y-114287873D01*
X194829775Y-114287874D01*
X194680125Y-114424298D01*
X194558092Y-114585896D01*
X194558088Y-114585903D01*
X194467823Y-114767181D01*
X194449564Y-114831353D01*
X194431933Y-114853612D01*
X194413880Y-114858300D01*
X137847927Y-114858300D01*
X137821693Y-114847434D01*
X133983895Y-111009636D01*
X133973029Y-110983402D01*
X133976976Y-110966752D01*
X133982494Y-110955766D01*
X134023600Y-110782323D01*
X134023600Y-110737613D01*
X135038600Y-110737613D01*
X135054102Y-110870241D01*
X135115066Y-111037741D01*
X135180830Y-111137728D01*
X135213015Y-111186662D01*
X135342667Y-111308983D01*
X135497033Y-111398106D01*
X135667792Y-111449228D01*
X135667796Y-111449228D01*
X135667800Y-111449229D01*
X135727480Y-111452704D01*
X135845737Y-111459592D01*
X136021276Y-111428640D01*
X136038745Y-111421104D01*
X136067138Y-111420690D01*
X136079676Y-111428935D01*
X138085727Y-113434987D01*
X138092700Y-113444677D01*
X138093243Y-113445768D01*
X138093244Y-113445769D01*
X138093245Y-113445771D01*
X138093247Y-113445772D01*
X138093248Y-113445774D01*
X138129869Y-113479158D01*
X138130489Y-113479750D01*
X138137856Y-113487116D01*
X138145223Y-113494483D01*
X138150018Y-113497768D01*
X138152029Y-113499361D01*
X138162736Y-113509121D01*
X138177596Y-113522667D01*
X138177597Y-113522667D01*
X138177598Y-113522668D01*
X138184667Y-113525406D01*
X138193769Y-113528932D01*
X138201335Y-113532920D01*
X138215645Y-113542724D01*
X138249317Y-113550643D01*
X138251775Y-113551404D01*
X138284025Y-113563899D01*
X138284030Y-113563900D01*
X138301378Y-113563900D01*
X138309872Y-113564885D01*
X138326756Y-113568856D01*
X138361010Y-113564077D01*
X138363573Y-113563900D01*
X187815246Y-113563900D01*
X187827035Y-113565823D01*
X187828190Y-113566210D01*
X187877720Y-113563919D01*
X187878569Y-113563900D01*
X187899387Y-113563900D01*
X187899389Y-113563900D01*
X187905114Y-113562829D01*
X187907652Y-113562535D01*
X187942209Y-113560938D01*
X187958080Y-113553929D01*
X187966237Y-113551403D01*
X187983297Y-113548215D01*
X188012725Y-113529992D01*
X188014971Y-113528809D01*
X188046625Y-113514834D01*
X188058894Y-113502563D01*
X188065592Y-113497258D01*
X188080342Y-113488127D01*
X188101188Y-113460520D01*
X188102872Y-113458586D01*
X188621693Y-112939766D01*
X188647927Y-112928900D01*
X194413880Y-112928900D01*
X194440114Y-112939766D01*
X194449564Y-112955847D01*
X194467823Y-113020020D01*
X194558088Y-113201297D01*
X194558090Y-113201300D01*
X194558092Y-113201303D01*
X194680125Y-113362901D01*
X194829775Y-113499325D01*
X194829776Y-113499326D01*
X194829778Y-113499327D01*
X194829780Y-113499329D01*
X195001955Y-113605935D01*
X195190787Y-113679089D01*
X195389846Y-113716300D01*
X195389847Y-113716300D01*
X195592353Y-113716300D01*
X195592354Y-113716300D01*
X195791413Y-113679089D01*
X195980245Y-113605935D01*
X196152420Y-113499329D01*
X196302074Y-113362901D01*
X196424112Y-113201297D01*
X196514377Y-113020020D01*
X196569796Y-112825243D01*
X196588481Y-112623600D01*
X196569796Y-112421957D01*
X196514377Y-112227180D01*
X196424112Y-112045903D01*
X196424107Y-112045896D01*
X196302074Y-111884298D01*
X196152424Y-111747874D01*
X196152423Y-111747873D01*
X195980245Y-111641265D01*
X195791416Y-111568112D01*
X195791414Y-111568111D01*
X195791413Y-111568111D01*
X195791405Y-111568109D01*
X195791403Y-111568109D01*
X195709514Y-111552801D01*
X195592354Y-111530900D01*
X195389846Y-111530900D01*
X195316095Y-111544686D01*
X195190796Y-111568109D01*
X195190783Y-111568112D01*
X195001954Y-111641265D01*
X194829776Y-111747873D01*
X194829775Y-111747874D01*
X194680125Y-111884298D01*
X194558092Y-112045896D01*
X194558088Y-112045903D01*
X194467823Y-112227180D01*
X194459813Y-112255332D01*
X194449564Y-112291353D01*
X194431933Y-112313612D01*
X194413880Y-112318300D01*
X188561954Y-112318300D01*
X188550165Y-112316377D01*
X188549010Y-112315990D01*
X188549008Y-112315989D01*
X188507218Y-112317921D01*
X188499470Y-112318280D01*
X188498623Y-112318300D01*
X188477810Y-112318300D01*
X188472096Y-112319367D01*
X188469546Y-112319662D01*
X188434993Y-112321260D01*
X188419117Y-112328269D01*
X188410951Y-112330797D01*
X188393905Y-112333983D01*
X188393903Y-112333984D01*
X188364495Y-112352192D01*
X188362221Y-112353390D01*
X188330578Y-112367363D01*
X188330572Y-112367367D01*
X188318302Y-112379636D01*
X188311605Y-112384940D01*
X188296858Y-112394072D01*
X188296858Y-112394073D01*
X188296856Y-112394074D01*
X188276018Y-112421668D01*
X188274330Y-112423608D01*
X188079038Y-112618901D01*
X188052804Y-112629767D01*
X188026570Y-112618901D01*
X188015704Y-112592667D01*
X188019671Y-112577865D01*
X188019030Y-112577600D01*
X188019959Y-112575355D01*
X188019961Y-112575354D01*
X188073758Y-112445476D01*
X188092107Y-112306100D01*
X188073758Y-112166724D01*
X188019961Y-112036847D01*
X188019958Y-112036844D01*
X188019958Y-112036842D01*
X187934386Y-111925323D01*
X187934385Y-111925322D01*
X187934382Y-111925318D01*
X187934377Y-111925314D01*
X187934376Y-111925313D01*
X187822858Y-111839741D01*
X187822854Y-111839739D01*
X187746775Y-111808226D01*
X187692979Y-111785943D01*
X187692978Y-111785942D01*
X187692976Y-111785942D01*
X187553600Y-111767593D01*
X187553599Y-111767593D01*
X187414224Y-111785942D01*
X187414223Y-111785942D01*
X187284342Y-111839741D01*
X187172823Y-111925313D01*
X187172818Y-111925318D01*
X187126035Y-111986286D01*
X187101447Y-112000483D01*
X187096604Y-112000800D01*
X145785428Y-112000800D01*
X145759194Y-111989934D01*
X144506873Y-110737613D01*
X145198600Y-110737613D01*
X145214102Y-110870241D01*
X145275066Y-111037741D01*
X145340830Y-111137728D01*
X145373015Y-111186662D01*
X145502667Y-111308983D01*
X145657033Y-111398106D01*
X145827792Y-111449228D01*
X145827796Y-111449228D01*
X145827800Y-111449229D01*
X145887480Y-111452704D01*
X146005737Y-111459592D01*
X146181276Y-111428640D01*
X146344945Y-111358040D01*
X146487922Y-111251598D01*
X146602496Y-111115053D01*
X146682494Y-110955766D01*
X146723600Y-110782323D01*
X146723600Y-110737613D01*
X147738600Y-110737613D01*
X147754102Y-110870241D01*
X147815066Y-111037741D01*
X147880830Y-111137728D01*
X147913015Y-111186662D01*
X148042667Y-111308983D01*
X148197033Y-111398106D01*
X148367792Y-111449228D01*
X148367796Y-111449228D01*
X148367800Y-111449229D01*
X148427480Y-111452704D01*
X148545737Y-111459592D01*
X148721276Y-111428640D01*
X148884945Y-111358040D01*
X149027922Y-111251598D01*
X149142496Y-111115053D01*
X149222494Y-110955766D01*
X149263600Y-110782323D01*
X149263600Y-110737613D01*
X150278600Y-110737613D01*
X150294102Y-110870241D01*
X150355066Y-111037741D01*
X150420830Y-111137728D01*
X150453015Y-111186662D01*
X150582667Y-111308983D01*
X150737033Y-111398106D01*
X150907792Y-111449228D01*
X150907796Y-111449228D01*
X150907800Y-111449229D01*
X150967480Y-111452704D01*
X151085737Y-111459592D01*
X151261276Y-111428640D01*
X151424945Y-111358040D01*
X151567922Y-111251598D01*
X151682496Y-111115053D01*
X151762494Y-110955766D01*
X151803600Y-110782323D01*
X151803600Y-110426000D01*
X151814466Y-110399766D01*
X151840700Y-110388900D01*
X166459103Y-110388900D01*
X166485337Y-110399766D01*
X166488534Y-110403413D01*
X166535318Y-110464382D01*
X166535322Y-110464385D01*
X166535323Y-110464386D01*
X166646841Y-110549958D01*
X166646843Y-110549958D01*
X166646846Y-110549961D01*
X166776724Y-110603758D01*
X166916100Y-110622107D01*
X167055476Y-110603758D01*
X167185354Y-110549961D01*
X167296882Y-110464382D01*
X167382461Y-110352854D01*
X167436258Y-110222976D01*
X167454607Y-110083600D01*
X167436258Y-109944224D01*
X167382461Y-109814347D01*
X167382458Y-109814344D01*
X167382458Y-109814342D01*
X167296886Y-109702823D01*
X167296885Y-109702822D01*
X167296882Y-109702818D01*
X167296877Y-109702814D01*
X167296876Y-109702813D01*
X167185358Y-109617241D01*
X167185354Y-109617239D01*
X167109275Y-109585726D01*
X167055479Y-109563443D01*
X167055478Y-109563442D01*
X167055476Y-109563442D01*
X166916100Y-109545093D01*
X166776724Y-109563442D01*
X166776723Y-109563442D01*
X166646842Y-109617241D01*
X166535323Y-109702813D01*
X166535318Y-109702818D01*
X166488535Y-109763786D01*
X166463947Y-109777983D01*
X166459104Y-109778300D01*
X151840700Y-109778300D01*
X151814466Y-109767434D01*
X151803600Y-109741200D01*
X151803600Y-109429595D01*
X151803600Y-109429594D01*
X151803600Y-109429588D01*
X151788098Y-109296958D01*
X151727134Y-109129461D01*
X151727133Y-109129458D01*
X151629186Y-108980540D01*
X151629185Y-108980538D01*
X151499533Y-108858217D01*
X151345167Y-108769094D01*
X151345165Y-108769093D01*
X151345163Y-108769092D01*
X151174413Y-108717973D01*
X151174399Y-108717970D01*
X150996460Y-108707607D01*
X150820925Y-108738559D01*
X150657264Y-108809156D01*
X150657255Y-108809160D01*
X150622370Y-108835131D01*
X150514274Y-108915605D01*
X150399705Y-109052144D01*
X150399704Y-109052146D01*
X150319706Y-109211433D01*
X150319705Y-109211434D01*
X150278600Y-109384877D01*
X150278600Y-110737613D01*
X149263600Y-110737613D01*
X149263600Y-109768227D01*
X149274466Y-109741993D01*
X152426693Y-106589766D01*
X152452927Y-106578900D01*
X188049103Y-106578900D01*
X188075337Y-106589766D01*
X188078534Y-106593413D01*
X188125318Y-106654382D01*
X188125322Y-106654385D01*
X188125323Y-106654386D01*
X188236841Y-106739958D01*
X188236843Y-106739958D01*
X188236846Y-106739961D01*
X188366724Y-106793758D01*
X188506100Y-106812107D01*
X188645476Y-106793758D01*
X188775354Y-106739961D01*
X188886882Y-106654382D01*
X188972461Y-106542854D01*
X189026258Y-106412976D01*
X189044607Y-106273600D01*
X189026258Y-106134224D01*
X188972461Y-106004347D01*
X188972459Y-106004345D01*
X188971530Y-106002101D01*
X188972653Y-106001635D01*
X188969462Y-105977432D01*
X188986743Y-105954901D01*
X189014895Y-105951189D01*
X189031534Y-105960793D01*
X193330726Y-110259985D01*
X193337699Y-110269675D01*
X193338243Y-110270768D01*
X193338244Y-110270769D01*
X193338245Y-110270771D01*
X193338247Y-110270772D01*
X193338248Y-110270774D01*
X193374881Y-110304169D01*
X193375501Y-110304761D01*
X193382862Y-110312121D01*
X193390224Y-110319483D01*
X193393689Y-110321856D01*
X193395018Y-110322767D01*
X193397031Y-110324361D01*
X193422596Y-110347667D01*
X193438769Y-110353932D01*
X193446335Y-110357920D01*
X193460645Y-110367724D01*
X193494317Y-110375643D01*
X193496775Y-110376404D01*
X193529025Y-110388899D01*
X193529030Y-110388900D01*
X193546378Y-110388900D01*
X193554872Y-110389885D01*
X193571756Y-110393856D01*
X193606010Y-110389077D01*
X193608573Y-110388900D01*
X194413880Y-110388900D01*
X194440114Y-110399766D01*
X194449564Y-110415847D01*
X194467823Y-110480020D01*
X194558088Y-110661297D01*
X194558090Y-110661300D01*
X194558092Y-110661303D01*
X194680125Y-110822901D01*
X194829775Y-110959325D01*
X194829776Y-110959326D01*
X194829778Y-110959327D01*
X194829780Y-110959329D01*
X195001955Y-111065935D01*
X195190787Y-111139089D01*
X195389846Y-111176300D01*
X195389847Y-111176300D01*
X195592353Y-111176300D01*
X195592354Y-111176300D01*
X195791413Y-111139089D01*
X195980245Y-111065935D01*
X196152420Y-110959329D01*
X196302074Y-110822901D01*
X196424112Y-110661297D01*
X196514377Y-110480020D01*
X196569796Y-110285243D01*
X196588481Y-110083600D01*
X196569796Y-109881957D01*
X196514377Y-109687180D01*
X196424112Y-109505903D01*
X196366486Y-109429594D01*
X196302074Y-109344298D01*
X196152424Y-109207874D01*
X196152423Y-109207873D01*
X196111090Y-109182281D01*
X195980245Y-109101265D01*
X195853457Y-109052147D01*
X195791416Y-109028112D01*
X195791414Y-109028111D01*
X195791413Y-109028111D01*
X195791405Y-109028109D01*
X195791403Y-109028109D01*
X195691319Y-109009400D01*
X195592354Y-108990900D01*
X195389846Y-108990900D01*
X195316095Y-109004686D01*
X195190796Y-109028109D01*
X195190783Y-109028112D01*
X195001954Y-109101265D01*
X194829776Y-109207873D01*
X194829775Y-109207874D01*
X194680125Y-109344298D01*
X194558092Y-109505896D01*
X194558088Y-109505903D01*
X194472793Y-109677200D01*
X194467823Y-109687181D01*
X194449564Y-109751353D01*
X194431933Y-109773612D01*
X194413880Y-109778300D01*
X193727927Y-109778300D01*
X193701693Y-109767434D01*
X189078973Y-105144714D01*
X189071997Y-105135017D01*
X189071456Y-105133931D01*
X189071455Y-105133930D01*
X189071455Y-105133929D01*
X189034817Y-105100529D01*
X189034197Y-105099937D01*
X189026834Y-105092575D01*
X189019476Y-105085217D01*
X189014683Y-105081933D01*
X189012669Y-105080338D01*
X188987103Y-105057032D01*
X188987101Y-105057031D01*
X188970921Y-105050762D01*
X188963359Y-105046776D01*
X188949053Y-105036976D01*
X188949049Y-105036975D01*
X188915386Y-105029057D01*
X188912929Y-105028296D01*
X188880673Y-105015801D01*
X188880672Y-105015800D01*
X188880670Y-105015800D01*
X188880668Y-105015800D01*
X188863326Y-105015800D01*
X188854832Y-105014815D01*
X188837944Y-105010843D01*
X188837943Y-105010843D01*
X188826585Y-105012427D01*
X188803683Y-105015622D01*
X188801122Y-105015800D01*
X174995427Y-105015800D01*
X174969193Y-105004934D01*
X173418459Y-103454200D01*
X179662807Y-103454200D01*
X179682338Y-103664979D01*
X179740268Y-103868576D01*
X179834622Y-104058066D01*
X179834626Y-104058073D01*
X179932844Y-104188134D01*
X180353741Y-103767239D01*
X180379975Y-103756373D01*
X180406209Y-103767239D01*
X180411185Y-103773414D01*
X180422031Y-103790290D01*
X180496334Y-103854674D01*
X180509043Y-103880064D01*
X180500077Y-103907006D01*
X180498272Y-103908945D01*
X180076247Y-104330970D01*
X180118623Y-104369600D01*
X180118624Y-104369601D01*
X180298596Y-104481035D01*
X180495979Y-104557501D01*
X180495992Y-104557504D01*
X180704061Y-104596400D01*
X180915739Y-104596400D01*
X181123807Y-104557504D01*
X181123820Y-104557501D01*
X181321203Y-104481035D01*
X181501178Y-104369599D01*
X181543551Y-104330970D01*
X181121526Y-103908945D01*
X181110660Y-103882711D01*
X181121526Y-103856477D01*
X181123414Y-103854719D01*
X181197769Y-103790290D01*
X181208613Y-103773416D01*
X181231935Y-103757221D01*
X181259879Y-103762262D01*
X181266057Y-103767239D01*
X181686954Y-104188134D01*
X181785173Y-104058073D01*
X181785177Y-104058066D01*
X181879531Y-103868576D01*
X181937461Y-103664979D01*
X181956992Y-103454200D01*
X186214919Y-103454200D01*
X186233604Y-103655844D01*
X186252077Y-103720768D01*
X186289023Y-103850620D01*
X186379288Y-104031897D01*
X186379290Y-104031900D01*
X186379292Y-104031903D01*
X186501325Y-104193501D01*
X186650975Y-104329925D01*
X186650976Y-104329926D01*
X186650978Y-104329927D01*
X186650980Y-104329929D01*
X186823155Y-104436535D01*
X187011987Y-104509689D01*
X187211046Y-104546900D01*
X187211047Y-104546900D01*
X187413553Y-104546900D01*
X187413554Y-104546900D01*
X187612613Y-104509689D01*
X187801445Y-104436535D01*
X187973620Y-104329929D01*
X188123274Y-104193501D01*
X188245312Y-104031897D01*
X188335577Y-103850620D01*
X188390996Y-103655843D01*
X188409681Y-103454200D01*
X188390996Y-103252557D01*
X188335577Y-103057780D01*
X188245312Y-102876503D01*
X188232863Y-102860018D01*
X188123274Y-102714898D01*
X187973624Y-102578474D01*
X187973623Y-102578473D01*
X187801445Y-102471865D01*
X187612616Y-102398712D01*
X187612614Y-102398711D01*
X187612613Y-102398711D01*
X187612605Y-102398709D01*
X187612603Y-102398709D01*
X187530714Y-102383401D01*
X187413554Y-102361500D01*
X187211046Y-102361500D01*
X187137295Y-102375286D01*
X187011996Y-102398709D01*
X187011983Y-102398712D01*
X186823154Y-102471865D01*
X186650976Y-102578473D01*
X186650975Y-102578474D01*
X186501325Y-102714898D01*
X186379292Y-102876496D01*
X186379288Y-102876503D01*
X186291043Y-103053725D01*
X186289023Y-103057781D01*
X186233604Y-103252555D01*
X186214919Y-103454200D01*
X181956992Y-103454200D01*
X181937461Y-103243420D01*
X181879531Y-103039823D01*
X181785177Y-102850333D01*
X181785173Y-102850326D01*
X181686954Y-102720264D01*
X181266057Y-103141159D01*
X181239823Y-103152025D01*
X181213589Y-103141159D01*
X181208613Y-103134984D01*
X181197769Y-103118110D01*
X181197765Y-103118107D01*
X181197765Y-103118106D01*
X181124032Y-103054216D01*
X181123464Y-103053724D01*
X181110755Y-103028334D01*
X181119722Y-103001392D01*
X181121526Y-102999453D01*
X181543551Y-102577428D01*
X181501176Y-102538799D01*
X181501175Y-102538798D01*
X181321203Y-102427364D01*
X181123820Y-102350898D01*
X181123807Y-102350895D01*
X180915739Y-102312000D01*
X180704061Y-102312000D01*
X180495992Y-102350895D01*
X180495979Y-102350898D01*
X180298596Y-102427364D01*
X180118624Y-102538798D01*
X180118623Y-102538799D01*
X180076248Y-102577428D01*
X180498272Y-102999453D01*
X180509138Y-103025687D01*
X180498272Y-103051921D01*
X180496333Y-103053725D01*
X180422032Y-103118107D01*
X180422031Y-103118109D01*
X180411186Y-103134984D01*
X180387862Y-103151178D01*
X180359918Y-103146136D01*
X180353742Y-103141160D01*
X179932844Y-102720264D01*
X179834626Y-102850326D01*
X179834622Y-102850333D01*
X179740268Y-103039823D01*
X179682338Y-103243420D01*
X179662807Y-103454200D01*
X173418459Y-103454200D01*
X168897259Y-98933000D01*
X179712519Y-98933000D01*
X179731204Y-99134643D01*
X179786623Y-99329420D01*
X179876888Y-99510697D01*
X179876890Y-99510700D01*
X179876892Y-99510703D01*
X179998925Y-99672301D01*
X180148575Y-99808725D01*
X180148576Y-99808726D01*
X180148578Y-99808727D01*
X180148580Y-99808729D01*
X180320755Y-99915335D01*
X180509587Y-99988489D01*
X180708646Y-100025700D01*
X180708647Y-100025700D01*
X180911153Y-100025700D01*
X180911154Y-100025700D01*
X181110213Y-99988489D01*
X181299045Y-99915335D01*
X181471220Y-99808729D01*
X181620874Y-99672301D01*
X181742912Y-99510697D01*
X181833177Y-99329420D01*
X181888596Y-99134643D01*
X181907281Y-98933000D01*
X186214919Y-98933000D01*
X186233604Y-99134643D01*
X186289023Y-99329420D01*
X186379288Y-99510697D01*
X186379290Y-99510700D01*
X186379292Y-99510703D01*
X186501325Y-99672301D01*
X186650975Y-99808725D01*
X186650976Y-99808726D01*
X186650978Y-99808727D01*
X186650980Y-99808729D01*
X186823155Y-99915335D01*
X187011987Y-99988489D01*
X187211046Y-100025700D01*
X187211047Y-100025700D01*
X187413553Y-100025700D01*
X187413554Y-100025700D01*
X187612613Y-99988489D01*
X187801445Y-99915335D01*
X187973620Y-99808729D01*
X188123274Y-99672301D01*
X188245312Y-99510697D01*
X188335577Y-99329420D01*
X188390996Y-99134643D01*
X188409681Y-98933000D01*
X188390996Y-98731357D01*
X188335577Y-98536580D01*
X188245312Y-98355303D01*
X188172836Y-98259329D01*
X188123274Y-98193698D01*
X187973624Y-98057274D01*
X187973623Y-98057273D01*
X187801445Y-97950665D01*
X187612616Y-97877512D01*
X187612614Y-97877511D01*
X187612613Y-97877511D01*
X187612605Y-97877509D01*
X187612603Y-97877509D01*
X187530714Y-97862201D01*
X187413554Y-97840300D01*
X187211046Y-97840300D01*
X187137295Y-97854086D01*
X187011996Y-97877509D01*
X187011983Y-97877512D01*
X186823154Y-97950665D01*
X186650976Y-98057273D01*
X186650975Y-98057274D01*
X186501325Y-98193698D01*
X186379292Y-98355296D01*
X186379288Y-98355303D01*
X186289023Y-98536581D01*
X186233604Y-98731355D01*
X186233603Y-98731357D01*
X186233604Y-98731357D01*
X186214919Y-98933000D01*
X181907281Y-98933000D01*
X181888596Y-98731357D01*
X181833177Y-98536580D01*
X181742912Y-98355303D01*
X181670436Y-98259329D01*
X181620874Y-98193698D01*
X181471224Y-98057274D01*
X181471223Y-98057273D01*
X181299045Y-97950665D01*
X181110216Y-97877512D01*
X181110214Y-97877511D01*
X181110213Y-97877511D01*
X181110205Y-97877509D01*
X181110203Y-97877509D01*
X181028314Y-97862201D01*
X180911154Y-97840300D01*
X180708646Y-97840300D01*
X180634895Y-97854086D01*
X180509596Y-97877509D01*
X180509583Y-97877512D01*
X180320754Y-97950665D01*
X180148576Y-98057273D01*
X180148575Y-98057274D01*
X179998925Y-98193698D01*
X179876892Y-98355296D01*
X179876888Y-98355303D01*
X179786623Y-98536581D01*
X179731204Y-98731355D01*
X179731203Y-98731357D01*
X179731204Y-98731357D01*
X179712519Y-98933000D01*
X168897259Y-98933000D01*
X161646291Y-91682032D01*
X179445500Y-91682032D01*
X179446922Y-91694657D01*
X179870463Y-91271116D01*
X179896697Y-91260250D01*
X179922931Y-91271116D01*
X179923457Y-91271642D01*
X179923459Y-91271645D01*
X180013055Y-91361241D01*
X180013057Y-91361242D01*
X180013581Y-91361766D01*
X180024447Y-91388000D01*
X180013581Y-91414234D01*
X179499582Y-91928234D01*
X179520687Y-91988550D01*
X179617267Y-92142255D01*
X179745644Y-92270632D01*
X179745643Y-92270632D01*
X179899350Y-92367212D01*
X180070694Y-92427168D01*
X180070704Y-92427170D01*
X180251099Y-92447496D01*
X180431495Y-92427170D01*
X180431505Y-92427168D01*
X180602849Y-92367212D01*
X180756555Y-92270632D01*
X180884932Y-92142255D01*
X180981512Y-91988549D01*
X181002616Y-91928236D01*
X181002616Y-91928235D01*
X180488617Y-91414235D01*
X180477751Y-91388001D01*
X180488617Y-91361767D01*
X180489140Y-91361243D01*
X180489145Y-91361241D01*
X180578741Y-91271645D01*
X180578743Y-91271640D01*
X180579267Y-91271117D01*
X180605501Y-91260251D01*
X180631735Y-91271117D01*
X181055277Y-91694659D01*
X181056700Y-91682039D01*
X181056700Y-90385160D01*
X181055277Y-90372540D01*
X180631735Y-90796082D01*
X180605501Y-90806948D01*
X180579267Y-90796082D01*
X180578742Y-90795557D01*
X180578741Y-90795555D01*
X180489145Y-90705959D01*
X180489142Y-90705957D01*
X180488616Y-90705431D01*
X180477750Y-90679197D01*
X180488616Y-90652963D01*
X181002616Y-90138963D01*
X181002616Y-90138962D01*
X180981512Y-90078650D01*
X180884932Y-89924944D01*
X180756555Y-89796567D01*
X180756556Y-89796567D01*
X180602849Y-89699987D01*
X180431505Y-89640031D01*
X180431495Y-89640029D01*
X180251099Y-89619703D01*
X180070704Y-89640029D01*
X180070694Y-89640031D01*
X179899350Y-89699987D01*
X179745644Y-89796567D01*
X179617267Y-89924944D01*
X179520687Y-90078649D01*
X179499582Y-90138964D01*
X180013582Y-90652964D01*
X180024448Y-90679198D01*
X180013582Y-90705432D01*
X179922932Y-90796082D01*
X179896698Y-90806948D01*
X179870464Y-90796082D01*
X179446922Y-90372540D01*
X179445500Y-90385167D01*
X179445500Y-91682032D01*
X161646291Y-91682032D01*
X160821473Y-90857214D01*
X160814497Y-90847517D01*
X160813956Y-90846431D01*
X160813955Y-90846430D01*
X160813955Y-90846429D01*
X160808606Y-90841553D01*
X160777317Y-90813029D01*
X160776697Y-90812437D01*
X160769334Y-90805075D01*
X160761976Y-90797717D01*
X160759590Y-90796082D01*
X160757183Y-90794433D01*
X160755169Y-90792838D01*
X160729603Y-90769532D01*
X160729600Y-90769530D01*
X160713422Y-90763263D01*
X160705856Y-90759273D01*
X160703321Y-90757537D01*
X160687829Y-90733742D01*
X160687200Y-90726938D01*
X160687200Y-90386373D01*
X160687200Y-90386366D01*
X160671827Y-90254844D01*
X160611375Y-90088753D01*
X160514249Y-89941080D01*
X160385685Y-89819786D01*
X160385682Y-89819784D01*
X160385681Y-89819783D01*
X160232618Y-89731412D01*
X160232611Y-89731409D01*
X160063294Y-89680719D01*
X160063280Y-89680716D01*
X159886834Y-89670440D01*
X159712772Y-89701132D01*
X159712771Y-89701132D01*
X159550479Y-89771140D01*
X159550477Y-89771141D01*
X159408701Y-89876689D01*
X159408697Y-89876692D01*
X159295091Y-90012081D01*
X159295085Y-90012091D01*
X159215761Y-90170037D01*
X159195662Y-90254844D01*
X159175000Y-90342025D01*
X159175000Y-91680834D01*
X159190373Y-91812356D01*
X159250825Y-91978447D01*
X159347951Y-92126120D01*
X159476515Y-92247414D01*
X159476517Y-92247415D01*
X159476518Y-92247416D01*
X159629581Y-92335787D01*
X159629583Y-92335787D01*
X159629585Y-92335789D01*
X159798911Y-92386482D01*
X159798915Y-92386482D01*
X159798919Y-92386483D01*
X159858098Y-92389929D01*
X159975363Y-92396759D01*
X160149428Y-92366067D01*
X160311723Y-92296059D01*
X160453499Y-92190511D01*
X160567113Y-92055112D01*
X160646438Y-91897162D01*
X160687200Y-91725175D01*
X160687200Y-91676026D01*
X160698066Y-91649793D01*
X160724300Y-91638927D01*
X160750534Y-91649793D01*
X174598227Y-105497487D01*
X174605200Y-105507177D01*
X174605743Y-105508268D01*
X174605744Y-105508269D01*
X174605745Y-105508271D01*
X174605747Y-105508272D01*
X174605748Y-105508274D01*
X174642369Y-105541658D01*
X174642989Y-105542250D01*
X174647554Y-105546814D01*
X174657723Y-105556983D01*
X174662518Y-105560268D01*
X174664529Y-105561861D01*
X174675236Y-105571621D01*
X174690096Y-105585167D01*
X174690097Y-105585167D01*
X174690098Y-105585168D01*
X174697167Y-105587906D01*
X174706269Y-105591432D01*
X174713833Y-105595419D01*
X174714626Y-105595962D01*
X174728145Y-105605224D01*
X174761817Y-105613143D01*
X174764275Y-105613904D01*
X174796525Y-105626399D01*
X174796530Y-105626400D01*
X174813878Y-105626400D01*
X174822372Y-105627385D01*
X174839256Y-105631356D01*
X174873510Y-105626577D01*
X174876073Y-105626400D01*
X188681773Y-105626400D01*
X188708007Y-105637266D01*
X188818904Y-105748163D01*
X188829770Y-105774397D01*
X188818904Y-105800631D01*
X188792670Y-105811497D01*
X188777863Y-105807533D01*
X188777600Y-105808170D01*
X188775355Y-105807240D01*
X188775354Y-105807239D01*
X188647287Y-105754192D01*
X188645479Y-105753443D01*
X188645478Y-105753442D01*
X188645476Y-105753442D01*
X188506100Y-105735093D01*
X188366724Y-105753442D01*
X188366723Y-105753442D01*
X188236842Y-105807241D01*
X188125323Y-105892813D01*
X188125318Y-105892818D01*
X188078535Y-105953786D01*
X188053947Y-105967983D01*
X188049104Y-105968300D01*
X152366954Y-105968300D01*
X152355165Y-105966377D01*
X152354010Y-105965990D01*
X152354008Y-105965989D01*
X152312218Y-105967921D01*
X152304470Y-105968280D01*
X152303623Y-105968300D01*
X152282810Y-105968300D01*
X152277096Y-105969367D01*
X152274546Y-105969662D01*
X152239993Y-105971260D01*
X152224117Y-105978269D01*
X152215951Y-105980797D01*
X152198905Y-105983983D01*
X152198903Y-105983984D01*
X152169495Y-106002192D01*
X152167221Y-106003390D01*
X152135578Y-106017363D01*
X152135572Y-106017367D01*
X152123302Y-106029636D01*
X152116605Y-106034940D01*
X152103465Y-106043078D01*
X152101858Y-106044073D01*
X152101856Y-106044074D01*
X152081018Y-106071668D01*
X152079330Y-106073608D01*
X149154405Y-108998534D01*
X149128171Y-109009400D01*
X149101937Y-108998534D01*
X149097178Y-108992691D01*
X149089185Y-108980538D01*
X148959533Y-108858217D01*
X148805167Y-108769094D01*
X148805165Y-108769093D01*
X148805163Y-108769092D01*
X148634413Y-108717973D01*
X148634399Y-108717970D01*
X148456460Y-108707607D01*
X148280925Y-108738559D01*
X148117264Y-108809156D01*
X148117255Y-108809160D01*
X148082370Y-108835131D01*
X147974274Y-108915605D01*
X147859705Y-109052144D01*
X147859704Y-109052146D01*
X147779706Y-109211433D01*
X147779705Y-109211434D01*
X147738600Y-109384877D01*
X147738600Y-110737613D01*
X146723600Y-110737613D01*
X146723600Y-109429588D01*
X146708098Y-109296958D01*
X146647134Y-109129461D01*
X146647133Y-109129458D01*
X146549186Y-108980540D01*
X146549185Y-108980538D01*
X146419533Y-108858217D01*
X146265167Y-108769094D01*
X146265165Y-108769093D01*
X146265163Y-108769092D01*
X146094413Y-108717973D01*
X146094399Y-108717970D01*
X145916460Y-108707607D01*
X145740925Y-108738559D01*
X145577264Y-108809156D01*
X145577255Y-108809160D01*
X145542370Y-108835131D01*
X145434274Y-108915605D01*
X145319705Y-109052144D01*
X145319704Y-109052146D01*
X145239706Y-109211433D01*
X145239705Y-109211434D01*
X145198600Y-109384877D01*
X145198600Y-110737613D01*
X144506873Y-110737613D01*
X144194466Y-110425206D01*
X144183600Y-110398972D01*
X144183600Y-109429595D01*
X144183600Y-109429594D01*
X144183600Y-109429588D01*
X144168098Y-109296958D01*
X144107134Y-109129461D01*
X144107133Y-109129458D01*
X144009186Y-108980540D01*
X144009185Y-108980538D01*
X143879533Y-108858217D01*
X143725167Y-108769094D01*
X143725165Y-108769093D01*
X143725163Y-108769092D01*
X143554413Y-108717973D01*
X143554399Y-108717970D01*
X143376460Y-108707607D01*
X143200925Y-108738559D01*
X143037264Y-108809156D01*
X143037255Y-108809160D01*
X143002370Y-108835131D01*
X142894274Y-108915605D01*
X142779705Y-109052144D01*
X142779704Y-109052146D01*
X142699706Y-109211433D01*
X142699705Y-109211434D01*
X142658600Y-109384877D01*
X142658600Y-110737613D01*
X142674102Y-110870241D01*
X142735066Y-111037741D01*
X142800830Y-111137728D01*
X142833015Y-111186662D01*
X142962667Y-111308983D01*
X143117033Y-111398106D01*
X143287792Y-111449228D01*
X143287796Y-111449228D01*
X143287800Y-111449229D01*
X143347480Y-111452704D01*
X143465737Y-111459592D01*
X143641276Y-111428640D01*
X143804945Y-111358040D01*
X143947922Y-111251598D01*
X144017446Y-111168740D01*
X144042629Y-111155631D01*
X144069710Y-111164169D01*
X144072097Y-111166356D01*
X145388226Y-112482485D01*
X145395199Y-112492175D01*
X145395743Y-112493268D01*
X145395744Y-112493269D01*
X145395745Y-112493271D01*
X145395747Y-112493272D01*
X145395748Y-112493274D01*
X145432381Y-112526669D01*
X145433001Y-112527261D01*
X145440363Y-112534622D01*
X145447724Y-112541983D01*
X145452517Y-112545267D01*
X145454525Y-112546856D01*
X145480096Y-112570167D01*
X145496274Y-112576434D01*
X145503837Y-112580421D01*
X145518146Y-112590224D01*
X145551818Y-112598143D01*
X145554270Y-112598902D01*
X145564627Y-112602914D01*
X145586525Y-112611399D01*
X145586530Y-112611400D01*
X145603875Y-112611400D01*
X145612368Y-112612384D01*
X145629257Y-112616357D01*
X145663518Y-112611577D01*
X145666081Y-112611400D01*
X187096603Y-112611400D01*
X187122837Y-112622266D01*
X187126034Y-112625913D01*
X187172818Y-112686882D01*
X187172822Y-112686885D01*
X187172823Y-112686886D01*
X187284341Y-112772458D01*
X187284343Y-112772458D01*
X187284346Y-112772461D01*
X187414224Y-112826258D01*
X187553600Y-112844607D01*
X187692976Y-112826258D01*
X187822854Y-112772461D01*
X187822855Y-112772459D01*
X187825100Y-112771530D01*
X187825568Y-112772662D01*
X187849736Y-112769457D01*
X187872281Y-112786721D01*
X187876014Y-112814869D01*
X187866403Y-112831535D01*
X187755507Y-112942433D01*
X187729273Y-112953300D01*
X138482927Y-112953300D01*
X138456693Y-112942434D01*
X136523895Y-111009636D01*
X136513029Y-110983402D01*
X136516976Y-110966752D01*
X136522494Y-110955766D01*
X136563600Y-110782323D01*
X136563600Y-110737613D01*
X137578600Y-110737613D01*
X137594102Y-110870241D01*
X137655066Y-111037741D01*
X137720830Y-111137728D01*
X137753015Y-111186662D01*
X137882667Y-111308983D01*
X138037033Y-111398106D01*
X138207792Y-111449228D01*
X138207796Y-111449228D01*
X138207800Y-111449229D01*
X138267480Y-111452704D01*
X138385737Y-111459592D01*
X138561276Y-111428640D01*
X138724945Y-111358040D01*
X138867922Y-111251598D01*
X138982496Y-111115053D01*
X139062494Y-110955766D01*
X139103600Y-110782323D01*
X139103600Y-110737613D01*
X140118600Y-110737613D01*
X140134102Y-110870241D01*
X140195066Y-111037741D01*
X140260830Y-111137728D01*
X140293015Y-111186662D01*
X140422667Y-111308983D01*
X140577033Y-111398106D01*
X140747792Y-111449228D01*
X140747796Y-111449228D01*
X140747800Y-111449229D01*
X140807480Y-111452704D01*
X140925737Y-111459592D01*
X141101276Y-111428640D01*
X141264945Y-111358040D01*
X141407922Y-111251598D01*
X141522496Y-111115053D01*
X141602494Y-110955766D01*
X141643600Y-110782323D01*
X141643600Y-109429588D01*
X141628098Y-109296958D01*
X141567134Y-109129461D01*
X141567133Y-109129458D01*
X141469186Y-108980540D01*
X141469185Y-108980538D01*
X141339533Y-108858217D01*
X141339530Y-108858215D01*
X141339529Y-108858214D01*
X141204950Y-108780514D01*
X141187664Y-108757987D01*
X141186400Y-108748385D01*
X141186400Y-105780426D01*
X141197266Y-105754192D01*
X143497258Y-103454200D01*
X156802807Y-103454200D01*
X156822338Y-103664979D01*
X156880268Y-103868576D01*
X156974622Y-104058066D01*
X156974626Y-104058073D01*
X157072844Y-104188134D01*
X157493741Y-103767239D01*
X157519975Y-103756373D01*
X157546209Y-103767239D01*
X157551185Y-103773414D01*
X157562031Y-103790290D01*
X157636334Y-103854674D01*
X157649043Y-103880064D01*
X157640077Y-103907006D01*
X157638272Y-103908945D01*
X157216247Y-104330970D01*
X157258623Y-104369600D01*
X157258624Y-104369601D01*
X157438596Y-104481035D01*
X157635979Y-104557501D01*
X157635992Y-104557504D01*
X157844061Y-104596400D01*
X158055739Y-104596400D01*
X158263807Y-104557504D01*
X158263820Y-104557501D01*
X158461203Y-104481035D01*
X158641178Y-104369599D01*
X158683551Y-104330970D01*
X158261526Y-103908945D01*
X158250660Y-103882711D01*
X158261526Y-103856477D01*
X158263414Y-103854719D01*
X158337769Y-103790290D01*
X158348613Y-103773416D01*
X158371935Y-103757221D01*
X158399879Y-103762262D01*
X158406057Y-103767239D01*
X158826954Y-104188134D01*
X158925173Y-104058073D01*
X158925177Y-104058066D01*
X159019531Y-103868576D01*
X159077461Y-103664979D01*
X159096992Y-103454200D01*
X163354919Y-103454200D01*
X163373604Y-103655844D01*
X163392077Y-103720768D01*
X163429023Y-103850620D01*
X163519288Y-104031897D01*
X163519290Y-104031900D01*
X163519292Y-104031903D01*
X163641325Y-104193501D01*
X163790975Y-104329925D01*
X163790976Y-104329926D01*
X163790978Y-104329927D01*
X163790980Y-104329929D01*
X163963155Y-104436535D01*
X164151987Y-104509689D01*
X164351046Y-104546900D01*
X164351047Y-104546900D01*
X164553553Y-104546900D01*
X164553554Y-104546900D01*
X164752613Y-104509689D01*
X164941445Y-104436535D01*
X165113620Y-104329929D01*
X165263274Y-104193501D01*
X165385312Y-104031897D01*
X165475577Y-103850620D01*
X165530996Y-103655843D01*
X165549681Y-103454200D01*
X165530996Y-103252557D01*
X165475577Y-103057780D01*
X165385312Y-102876503D01*
X165372863Y-102860018D01*
X165263274Y-102714898D01*
X165113624Y-102578474D01*
X165113623Y-102578473D01*
X164941445Y-102471865D01*
X164752616Y-102398712D01*
X164752614Y-102398711D01*
X164752613Y-102398711D01*
X164752605Y-102398709D01*
X164752603Y-102398709D01*
X164670714Y-102383401D01*
X164553554Y-102361500D01*
X164351046Y-102361500D01*
X164277295Y-102375286D01*
X164151996Y-102398709D01*
X164151983Y-102398712D01*
X163963154Y-102471865D01*
X163790976Y-102578473D01*
X163790975Y-102578474D01*
X163641325Y-102714898D01*
X163519292Y-102876496D01*
X163519288Y-102876503D01*
X163431043Y-103053725D01*
X163429023Y-103057781D01*
X163373604Y-103252555D01*
X163354919Y-103454200D01*
X159096992Y-103454200D01*
X159077461Y-103243420D01*
X159019531Y-103039823D01*
X158925177Y-102850333D01*
X158925173Y-102850326D01*
X158826954Y-102720264D01*
X158406057Y-103141159D01*
X158379823Y-103152025D01*
X158353589Y-103141159D01*
X158348613Y-103134984D01*
X158337769Y-103118110D01*
X158337765Y-103118107D01*
X158337765Y-103118106D01*
X158264032Y-103054216D01*
X158263464Y-103053724D01*
X158250755Y-103028334D01*
X158259722Y-103001392D01*
X158261526Y-102999453D01*
X158683551Y-102577428D01*
X158641176Y-102538799D01*
X158641175Y-102538798D01*
X158461203Y-102427364D01*
X158263820Y-102350898D01*
X158263807Y-102350895D01*
X158055739Y-102312000D01*
X157844061Y-102312000D01*
X157635992Y-102350895D01*
X157635979Y-102350898D01*
X157438596Y-102427364D01*
X157258624Y-102538798D01*
X157258623Y-102538799D01*
X157216248Y-102577428D01*
X157638272Y-102999453D01*
X157649138Y-103025687D01*
X157638272Y-103051921D01*
X157636333Y-103053725D01*
X157562032Y-103118107D01*
X157562031Y-103118109D01*
X157551186Y-103134984D01*
X157527862Y-103151178D01*
X157499918Y-103146136D01*
X157493742Y-103141160D01*
X157072844Y-102720264D01*
X156974626Y-102850326D01*
X156974622Y-102850333D01*
X156880268Y-103039823D01*
X156822338Y-103243420D01*
X156802807Y-103454200D01*
X143497258Y-103454200D01*
X148018458Y-98933000D01*
X156852519Y-98933000D01*
X156871204Y-99134643D01*
X156926623Y-99329420D01*
X157016888Y-99510697D01*
X157016890Y-99510700D01*
X157016892Y-99510703D01*
X157138925Y-99672301D01*
X157288575Y-99808725D01*
X157288576Y-99808726D01*
X157288578Y-99808727D01*
X157288580Y-99808729D01*
X157460755Y-99915335D01*
X157649587Y-99988489D01*
X157848646Y-100025700D01*
X157848647Y-100025700D01*
X158051153Y-100025700D01*
X158051154Y-100025700D01*
X158250213Y-99988489D01*
X158439045Y-99915335D01*
X158611220Y-99808729D01*
X158760874Y-99672301D01*
X158882912Y-99510697D01*
X158973177Y-99329420D01*
X159028596Y-99134643D01*
X159047281Y-98933000D01*
X163354919Y-98933000D01*
X163373604Y-99134643D01*
X163429023Y-99329420D01*
X163519288Y-99510697D01*
X163519290Y-99510700D01*
X163519292Y-99510703D01*
X163641325Y-99672301D01*
X163790975Y-99808725D01*
X163790976Y-99808726D01*
X163790978Y-99808727D01*
X163790980Y-99808729D01*
X163963155Y-99915335D01*
X164151987Y-99988489D01*
X164351046Y-100025700D01*
X164351047Y-100025700D01*
X164553553Y-100025700D01*
X164553554Y-100025700D01*
X164752613Y-99988489D01*
X164941445Y-99915335D01*
X165113620Y-99808729D01*
X165263274Y-99672301D01*
X165385312Y-99510697D01*
X165475577Y-99329420D01*
X165530996Y-99134643D01*
X165549681Y-98933000D01*
X165530996Y-98731357D01*
X165475577Y-98536580D01*
X165385312Y-98355303D01*
X165312836Y-98259329D01*
X165263274Y-98193698D01*
X165113624Y-98057274D01*
X165113623Y-98057273D01*
X164941445Y-97950665D01*
X164752616Y-97877512D01*
X164752614Y-97877511D01*
X164752613Y-97877511D01*
X164752605Y-97877509D01*
X164752603Y-97877509D01*
X164670714Y-97862201D01*
X164553554Y-97840300D01*
X164351046Y-97840300D01*
X164277295Y-97854086D01*
X164151996Y-97877509D01*
X164151983Y-97877512D01*
X163963154Y-97950665D01*
X163790976Y-98057273D01*
X163790975Y-98057274D01*
X163641325Y-98193698D01*
X163519292Y-98355296D01*
X163519288Y-98355303D01*
X163429023Y-98536581D01*
X163373604Y-98731355D01*
X163373603Y-98731357D01*
X163373604Y-98731357D01*
X163354919Y-98933000D01*
X159047281Y-98933000D01*
X159028596Y-98731357D01*
X158973177Y-98536580D01*
X158882912Y-98355303D01*
X158810436Y-98259329D01*
X158760874Y-98193698D01*
X158611224Y-98057274D01*
X158611223Y-98057273D01*
X158439045Y-97950665D01*
X158250216Y-97877512D01*
X158250214Y-97877511D01*
X158250213Y-97877511D01*
X158250205Y-97877509D01*
X158250203Y-97877509D01*
X158168314Y-97862201D01*
X158051154Y-97840300D01*
X157848646Y-97840300D01*
X157774895Y-97854086D01*
X157649596Y-97877509D01*
X157649583Y-97877512D01*
X157460754Y-97950665D01*
X157288576Y-98057273D01*
X157288575Y-98057274D01*
X157138925Y-98193698D01*
X157016892Y-98355296D01*
X157016888Y-98355303D01*
X156926623Y-98536581D01*
X156871204Y-98731355D01*
X156871203Y-98731357D01*
X156871204Y-98731357D01*
X156852519Y-98933000D01*
X148018458Y-98933000D01*
X148585524Y-98365934D01*
X155269425Y-91682032D01*
X156585500Y-91682032D01*
X156586922Y-91694657D01*
X157010463Y-91271116D01*
X157036697Y-91260250D01*
X157062931Y-91271116D01*
X157063457Y-91271642D01*
X157063459Y-91271645D01*
X157153055Y-91361241D01*
X157153059Y-91361243D01*
X157153582Y-91361766D01*
X157164448Y-91388000D01*
X157153582Y-91414234D01*
X156639582Y-91928234D01*
X156660687Y-91988550D01*
X156757267Y-92142255D01*
X156885644Y-92270632D01*
X156885643Y-92270632D01*
X157039350Y-92367212D01*
X157210694Y-92427168D01*
X157210704Y-92427170D01*
X157391100Y-92447496D01*
X157571495Y-92427170D01*
X157571505Y-92427168D01*
X157742849Y-92367212D01*
X157896555Y-92270632D01*
X158024932Y-92142255D01*
X158121512Y-91988549D01*
X158142616Y-91928236D01*
X158142616Y-91928235D01*
X157628617Y-91414235D01*
X157617751Y-91388001D01*
X157628617Y-91361767D01*
X157629140Y-91361243D01*
X157629145Y-91361241D01*
X157718741Y-91271645D01*
X157718743Y-91271640D01*
X157719267Y-91271117D01*
X157745501Y-91260251D01*
X157771735Y-91271117D01*
X158195277Y-91694659D01*
X158196700Y-91682039D01*
X158196700Y-90385160D01*
X158195277Y-90372540D01*
X157771735Y-90796082D01*
X157745501Y-90806948D01*
X157719267Y-90796082D01*
X157718742Y-90795557D01*
X157718741Y-90795555D01*
X157629145Y-90705959D01*
X157629142Y-90705957D01*
X157628616Y-90705431D01*
X157617750Y-90679197D01*
X157628616Y-90652963D01*
X158142616Y-90138963D01*
X158142616Y-90138962D01*
X158121512Y-90078650D01*
X158024932Y-89924944D01*
X157896555Y-89796567D01*
X157896556Y-89796567D01*
X157742849Y-89699987D01*
X157571505Y-89640031D01*
X157571495Y-89640029D01*
X157391100Y-89619703D01*
X157210704Y-89640029D01*
X157210694Y-89640031D01*
X157039350Y-89699987D01*
X156885644Y-89796567D01*
X156757267Y-89924944D01*
X156660687Y-90078649D01*
X156639582Y-90138964D01*
X157153582Y-90652964D01*
X157164448Y-90679198D01*
X157153582Y-90705432D01*
X157062932Y-90796082D01*
X157036698Y-90806948D01*
X157010464Y-90796082D01*
X156586922Y-90372540D01*
X156585500Y-90385167D01*
X156585500Y-91682032D01*
X155269425Y-91682032D01*
X155979986Y-90971471D01*
X155989686Y-90964495D01*
X155990771Y-90963955D01*
X156024199Y-90927284D01*
X156024773Y-90926685D01*
X156039483Y-90911976D01*
X156042771Y-90907174D01*
X156044355Y-90905175D01*
X156067667Y-90879604D01*
X156073935Y-90863420D01*
X156077915Y-90855870D01*
X156087724Y-90841553D01*
X156094432Y-90813029D01*
X156095644Y-90807878D01*
X156096405Y-90805420D01*
X156108900Y-90773170D01*
X156108900Y-90755821D01*
X156109886Y-90747325D01*
X156113856Y-90730447D01*
X156113857Y-90730444D01*
X156109077Y-90696184D01*
X156108900Y-90693621D01*
X156108900Y-89905427D01*
X156119766Y-89879193D01*
X156871694Y-89127266D01*
X156897928Y-89116400D01*
X181061773Y-89116400D01*
X181088007Y-89127266D01*
X182075211Y-90114470D01*
X182086077Y-90140704D01*
X182082132Y-90157353D01*
X182075761Y-90170039D01*
X182055662Y-90254844D01*
X182035000Y-90342025D01*
X182035000Y-91680834D01*
X182050373Y-91812356D01*
X182110825Y-91978447D01*
X182207951Y-92126120D01*
X182336515Y-92247414D01*
X182336517Y-92247415D01*
X182336518Y-92247416D01*
X182489581Y-92335787D01*
X182489583Y-92335787D01*
X182489585Y-92335789D01*
X182658911Y-92386482D01*
X182658915Y-92386482D01*
X182658919Y-92386483D01*
X182718098Y-92389929D01*
X182835363Y-92396759D01*
X183009428Y-92366067D01*
X183171723Y-92296059D01*
X183313499Y-92190511D01*
X183379983Y-92111277D01*
X183405166Y-92098168D01*
X183432247Y-92106706D01*
X183434634Y-92108893D01*
X193269934Y-101944193D01*
X193280800Y-101970427D01*
X193280800Y-105900245D01*
X193278877Y-105912034D01*
X193278490Y-105913187D01*
X193278489Y-105913191D01*
X193280780Y-105962711D01*
X193280800Y-105963568D01*
X193280800Y-105984390D01*
X193281867Y-105990108D01*
X193282163Y-105992658D01*
X193283761Y-106027205D01*
X193283761Y-106027207D01*
X193283762Y-106027209D01*
X193287177Y-106034944D01*
X193290768Y-106043078D01*
X193293296Y-106051241D01*
X193296485Y-106068298D01*
X193305498Y-106082853D01*
X193314699Y-106097713D01*
X193315895Y-106099983D01*
X193329866Y-106131625D01*
X193342132Y-106143891D01*
X193347441Y-106150594D01*
X193356573Y-106165342D01*
X193384175Y-106186187D01*
X193386115Y-106187875D01*
X194425293Y-107227052D01*
X194436159Y-107253286D01*
X194434743Y-107263438D01*
X194412405Y-107341953D01*
X194412404Y-107341957D01*
X194393719Y-107543600D01*
X194412404Y-107745243D01*
X194467823Y-107940020D01*
X194558088Y-108121297D01*
X194558090Y-108121300D01*
X194558092Y-108121303D01*
X194680125Y-108282901D01*
X194829775Y-108419325D01*
X194829776Y-108419326D01*
X194829778Y-108419327D01*
X194829780Y-108419329D01*
X195001955Y-108525935D01*
X195190787Y-108599089D01*
X195389846Y-108636300D01*
X195389847Y-108636300D01*
X195592353Y-108636300D01*
X195592354Y-108636300D01*
X195791413Y-108599089D01*
X195980245Y-108525935D01*
X196152420Y-108419329D01*
X196302074Y-108282901D01*
X196424112Y-108121297D01*
X196514377Y-107940020D01*
X196569796Y-107745243D01*
X196588481Y-107543600D01*
X196569796Y-107341957D01*
X196514377Y-107147180D01*
X196424112Y-106965903D01*
X196424107Y-106965896D01*
X196302074Y-106804298D01*
X196152424Y-106667874D01*
X196152423Y-106667873D01*
X195980245Y-106561265D01*
X195791416Y-106488112D01*
X195791414Y-106488111D01*
X195791413Y-106488111D01*
X195791405Y-106488109D01*
X195791403Y-106488109D01*
X195709514Y-106472801D01*
X195592354Y-106450900D01*
X195389846Y-106450900D01*
X195316095Y-106464686D01*
X195190796Y-106488109D01*
X195190783Y-106488112D01*
X195001954Y-106561265D01*
X194829782Y-106667869D01*
X194829775Y-106667875D01*
X194803567Y-106691765D01*
X194776859Y-106701407D01*
X194752340Y-106690581D01*
X193902266Y-105840506D01*
X193891400Y-105814272D01*
X193891400Y-105003600D01*
X194393719Y-105003600D01*
X194412404Y-105205243D01*
X194467823Y-105400020D01*
X194558088Y-105581297D01*
X194558090Y-105581300D01*
X194558092Y-105581303D01*
X194680125Y-105742901D01*
X194829775Y-105879325D01*
X194829776Y-105879326D01*
X194829778Y-105879327D01*
X194829780Y-105879329D01*
X195001955Y-105985935D01*
X195190787Y-106059089D01*
X195389846Y-106096300D01*
X195389847Y-106096300D01*
X195592353Y-106096300D01*
X195592354Y-106096300D01*
X195791413Y-106059089D01*
X195980245Y-105985935D01*
X196152420Y-105879329D01*
X196302074Y-105742901D01*
X196424112Y-105581297D01*
X196514377Y-105400020D01*
X196569796Y-105205243D01*
X196588481Y-105003600D01*
X196569796Y-104801957D01*
X196514377Y-104607180D01*
X196424112Y-104425903D01*
X196381594Y-104369600D01*
X196302074Y-104264298D01*
X196152424Y-104127874D01*
X196152423Y-104127873D01*
X195980245Y-104021265D01*
X195791416Y-103948112D01*
X195791414Y-103948111D01*
X195791413Y-103948111D01*
X195791405Y-103948109D01*
X195791403Y-103948109D01*
X195709514Y-103932801D01*
X195592354Y-103910900D01*
X195389846Y-103910900D01*
X195316095Y-103924686D01*
X195190796Y-103948109D01*
X195190783Y-103948112D01*
X195001954Y-104021265D01*
X194829776Y-104127873D01*
X194829775Y-104127874D01*
X194680125Y-104264298D01*
X194558092Y-104425896D01*
X194558088Y-104425903D01*
X194492561Y-104557501D01*
X194467823Y-104607181D01*
X194412404Y-104801955D01*
X194412403Y-104801957D01*
X194412404Y-104801957D01*
X194393719Y-105003600D01*
X193891400Y-105003600D01*
X193891400Y-101884453D01*
X193893325Y-101872659D01*
X193893710Y-101871510D01*
X193891420Y-101821987D01*
X193891400Y-101821130D01*
X193891400Y-101800312D01*
X193891400Y-101800311D01*
X193890329Y-101794585D01*
X193890035Y-101792041D01*
X193888438Y-101757496D01*
X193888438Y-101757492D01*
X193888438Y-101757491D01*
X193881428Y-101741617D01*
X193878902Y-101733457D01*
X193875715Y-101716403D01*
X193868591Y-101704898D01*
X193857503Y-101686990D01*
X193856303Y-101684714D01*
X193842335Y-101653077D01*
X193842335Y-101653076D01*
X193830064Y-101640805D01*
X193824755Y-101634101D01*
X193815627Y-101619358D01*
X193788021Y-101598510D01*
X193786087Y-101596827D01*
X188828295Y-96639036D01*
X188817429Y-96612802D01*
X188828295Y-96586568D01*
X188854529Y-96575702D01*
X188869335Y-96579669D01*
X188869600Y-96579030D01*
X188871844Y-96579959D01*
X188871846Y-96579961D01*
X189001724Y-96633758D01*
X189141100Y-96652107D01*
X189217289Y-96642076D01*
X189244717Y-96649426D01*
X189248366Y-96652625D01*
X194513800Y-101918059D01*
X194524666Y-101944293D01*
X194520777Y-101960829D01*
X194467823Y-102067178D01*
X194412404Y-102261955D01*
X194412403Y-102261957D01*
X194412404Y-102261957D01*
X194393719Y-102463600D01*
X194412404Y-102665243D01*
X194467823Y-102860020D01*
X194558088Y-103041297D01*
X194558090Y-103041300D01*
X194558092Y-103041303D01*
X194680125Y-103202901D01*
X194829775Y-103339325D01*
X194829776Y-103339326D01*
X194829778Y-103339327D01*
X194829780Y-103339329D01*
X195001955Y-103445935D01*
X195190787Y-103519089D01*
X195389846Y-103556300D01*
X195389847Y-103556300D01*
X195592353Y-103556300D01*
X195592354Y-103556300D01*
X195791413Y-103519089D01*
X195980245Y-103445935D01*
X196152420Y-103339329D01*
X196302074Y-103202901D01*
X196424112Y-103041297D01*
X196514377Y-102860020D01*
X196569796Y-102665243D01*
X196588481Y-102463600D01*
X196569796Y-102261957D01*
X196514377Y-102067180D01*
X196424112Y-101885903D01*
X196353231Y-101792041D01*
X196302074Y-101724298D01*
X196152424Y-101587874D01*
X196152423Y-101587873D01*
X195980245Y-101481265D01*
X195791416Y-101408112D01*
X195791414Y-101408111D01*
X195791413Y-101408111D01*
X195791405Y-101408109D01*
X195791403Y-101408109D01*
X195709514Y-101392801D01*
X195592354Y-101370900D01*
X195389846Y-101370900D01*
X195316095Y-101384686D01*
X195190796Y-101408109D01*
X195190783Y-101408112D01*
X195001951Y-101481266D01*
X194989000Y-101489286D01*
X194960976Y-101493857D01*
X194943236Y-101483977D01*
X193382859Y-99923600D01*
X194393719Y-99923600D01*
X194412404Y-100125243D01*
X194467823Y-100320020D01*
X194558088Y-100501297D01*
X194558090Y-100501300D01*
X194558092Y-100501303D01*
X194680125Y-100662901D01*
X194829775Y-100799325D01*
X194829776Y-100799326D01*
X194829778Y-100799327D01*
X194829780Y-100799329D01*
X195001955Y-100905935D01*
X195190787Y-100979089D01*
X195389846Y-101016300D01*
X195389847Y-101016300D01*
X195592353Y-101016300D01*
X195592354Y-101016300D01*
X195791413Y-100979089D01*
X195980245Y-100905935D01*
X196152420Y-100799329D01*
X196302074Y-100662901D01*
X196424112Y-100501297D01*
X196514377Y-100320020D01*
X196569796Y-100125243D01*
X196588481Y-99923600D01*
X196569796Y-99721957D01*
X196514377Y-99527180D01*
X196424112Y-99345903D01*
X196388897Y-99299271D01*
X196302074Y-99184298D01*
X196152424Y-99047874D01*
X196152423Y-99047873D01*
X195980245Y-98941265D01*
X195791416Y-98868112D01*
X195791414Y-98868111D01*
X195791413Y-98868111D01*
X195791405Y-98868109D01*
X195791403Y-98868109D01*
X195709514Y-98852801D01*
X195592354Y-98830900D01*
X195389846Y-98830900D01*
X195316095Y-98844686D01*
X195190796Y-98868109D01*
X195190783Y-98868112D01*
X195001954Y-98941265D01*
X194829776Y-99047873D01*
X194829775Y-99047874D01*
X194680125Y-99184298D01*
X194558092Y-99345896D01*
X194558088Y-99345903D01*
X194467823Y-99527181D01*
X194412404Y-99721955D01*
X194412403Y-99721957D01*
X194412404Y-99721957D01*
X194393719Y-99923600D01*
X193382859Y-99923600D01*
X190842859Y-97383600D01*
X194393719Y-97383600D01*
X194412404Y-97585243D01*
X194467823Y-97780020D01*
X194558088Y-97961297D01*
X194558090Y-97961300D01*
X194558092Y-97961303D01*
X194680125Y-98122901D01*
X194829775Y-98259325D01*
X194829776Y-98259326D01*
X194829778Y-98259327D01*
X194829780Y-98259329D01*
X195001955Y-98365935D01*
X195190787Y-98439089D01*
X195389846Y-98476300D01*
X195389847Y-98476300D01*
X195592353Y-98476300D01*
X195592354Y-98476300D01*
X195791413Y-98439089D01*
X195980245Y-98365935D01*
X196152420Y-98259329D01*
X196302074Y-98122901D01*
X196424112Y-97961297D01*
X196514377Y-97780020D01*
X196569796Y-97585243D01*
X196588481Y-97383600D01*
X196569796Y-97181957D01*
X196514377Y-96987180D01*
X196424112Y-96805903D01*
X196308362Y-96652625D01*
X196302074Y-96644298D01*
X196152424Y-96507874D01*
X196152423Y-96507873D01*
X195980245Y-96401265D01*
X195791416Y-96328112D01*
X195791414Y-96328111D01*
X195791413Y-96328111D01*
X195791405Y-96328109D01*
X195791403Y-96328109D01*
X195709514Y-96312801D01*
X195592354Y-96290900D01*
X195389846Y-96290900D01*
X195316095Y-96304686D01*
X195190796Y-96328109D01*
X195190783Y-96328112D01*
X195001954Y-96401265D01*
X194829776Y-96507873D01*
X194829775Y-96507874D01*
X194680125Y-96644298D01*
X194558092Y-96805896D01*
X194558088Y-96805903D01*
X194467823Y-96987181D01*
X194412404Y-97181955D01*
X194412403Y-97181957D01*
X194412404Y-97181957D01*
X194393719Y-97383600D01*
X190842859Y-97383600D01*
X189680125Y-96220866D01*
X189669259Y-96194632D01*
X189669576Y-96189789D01*
X189679607Y-96113600D01*
X189661258Y-95974224D01*
X189607461Y-95844347D01*
X189607458Y-95844344D01*
X189607458Y-95844342D01*
X189521886Y-95732823D01*
X189521885Y-95732822D01*
X189521882Y-95732818D01*
X189521877Y-95732814D01*
X189521876Y-95732813D01*
X189410358Y-95647241D01*
X189410354Y-95647239D01*
X189334275Y-95615726D01*
X189280479Y-95593443D01*
X189280478Y-95593442D01*
X189280476Y-95593442D01*
X189141100Y-95575093D01*
X189001724Y-95593442D01*
X189001723Y-95593442D01*
X188871842Y-95647241D01*
X188760323Y-95732813D01*
X188760313Y-95732823D01*
X188674741Y-95844342D01*
X188632260Y-95946901D01*
X188620942Y-95974224D01*
X188602593Y-96113600D01*
X188620942Y-96252976D01*
X188674739Y-96382854D01*
X188674740Y-96382855D01*
X188675670Y-96385100D01*
X188674550Y-96385563D01*
X188677729Y-96409786D01*
X188660435Y-96432307D01*
X188632281Y-96436002D01*
X188615663Y-96426404D01*
X187032859Y-94843600D01*
X194344007Y-94843600D01*
X194363538Y-95054379D01*
X194421468Y-95257976D01*
X194515822Y-95447466D01*
X194515826Y-95447473D01*
X194614044Y-95577534D01*
X195034941Y-95156639D01*
X195061175Y-95145773D01*
X195087409Y-95156639D01*
X195092385Y-95162814D01*
X195103231Y-95179690D01*
X195177534Y-95244074D01*
X195190243Y-95269464D01*
X195181277Y-95296406D01*
X195179472Y-95298345D01*
X194757447Y-95720370D01*
X194799823Y-95759000D01*
X194799824Y-95759001D01*
X194979796Y-95870435D01*
X195177179Y-95946901D01*
X195177192Y-95946904D01*
X195385261Y-95985800D01*
X195596939Y-95985800D01*
X195805007Y-95946904D01*
X195805020Y-95946901D01*
X196002403Y-95870435D01*
X196182378Y-95758999D01*
X196224751Y-95720370D01*
X195802726Y-95298345D01*
X195791860Y-95272111D01*
X195802726Y-95245877D01*
X195804614Y-95244119D01*
X195878969Y-95179690D01*
X195889813Y-95162816D01*
X195913135Y-95146621D01*
X195941079Y-95151662D01*
X195947257Y-95156639D01*
X196368154Y-95577534D01*
X196466373Y-95447473D01*
X196466377Y-95447466D01*
X196560731Y-95257976D01*
X196618661Y-95054379D01*
X196638192Y-94843600D01*
X196618661Y-94632820D01*
X196560731Y-94429223D01*
X196466377Y-94239733D01*
X196466373Y-94239726D01*
X196368154Y-94109664D01*
X195947257Y-94530559D01*
X195921023Y-94541425D01*
X195894789Y-94530559D01*
X195889813Y-94524384D01*
X195878969Y-94507510D01*
X195878965Y-94507507D01*
X195878965Y-94507506D01*
X195804665Y-94443125D01*
X195791955Y-94417734D01*
X195800922Y-94390792D01*
X195802726Y-94388853D01*
X196224751Y-93966828D01*
X196182376Y-93928199D01*
X196182375Y-93928198D01*
X196002403Y-93816764D01*
X195805020Y-93740298D01*
X195805007Y-93740295D01*
X195596939Y-93701400D01*
X195385261Y-93701400D01*
X195177192Y-93740295D01*
X195177179Y-93740298D01*
X194979796Y-93816764D01*
X194799824Y-93928198D01*
X194799823Y-93928199D01*
X194757448Y-93966828D01*
X195179472Y-94388853D01*
X195190338Y-94415087D01*
X195179472Y-94441321D01*
X195177533Y-94443125D01*
X195103232Y-94507507D01*
X195103231Y-94507509D01*
X195092386Y-94524384D01*
X195069062Y-94540578D01*
X195041118Y-94535536D01*
X195034942Y-94530560D01*
X194614044Y-94109664D01*
X194515826Y-94239726D01*
X194515822Y-94239733D01*
X194421468Y-94429223D01*
X194363538Y-94632820D01*
X194344007Y-94843600D01*
X187032859Y-94843600D01*
X183558066Y-91368807D01*
X183547200Y-91342573D01*
X183547200Y-90386373D01*
X183547200Y-90386366D01*
X183531827Y-90254844D01*
X183471375Y-90088753D01*
X183374249Y-89941080D01*
X183245685Y-89819786D01*
X183245682Y-89819784D01*
X183245681Y-89819783D01*
X183092618Y-89731412D01*
X183092611Y-89731409D01*
X182923294Y-89680719D01*
X182923280Y-89680716D01*
X182746834Y-89670440D01*
X182572773Y-89701132D01*
X182562791Y-89705438D01*
X182534399Y-89705849D01*
X182521864Y-89697605D01*
X181458973Y-88634714D01*
X181451997Y-88625017D01*
X181451456Y-88623931D01*
X181451455Y-88623930D01*
X181451455Y-88623929D01*
X181437394Y-88611111D01*
X181414817Y-88590529D01*
X181414197Y-88589937D01*
X181405831Y-88581572D01*
X181399476Y-88575217D01*
X181394683Y-88571933D01*
X181392669Y-88570338D01*
X181367103Y-88547032D01*
X181367101Y-88547031D01*
X181350921Y-88540762D01*
X181343359Y-88536776D01*
X181329053Y-88526976D01*
X181329049Y-88526975D01*
X181295386Y-88519057D01*
X181292929Y-88518296D01*
X181260673Y-88505801D01*
X181260672Y-88505800D01*
X181260670Y-88505800D01*
X181260668Y-88505800D01*
X181243326Y-88505800D01*
X181234832Y-88504815D01*
X181229194Y-88503489D01*
X181217944Y-88500843D01*
X181217943Y-88500843D01*
X181206585Y-88502427D01*
X181183683Y-88505622D01*
X181181122Y-88505800D01*
X156811954Y-88505800D01*
X156800165Y-88503877D01*
X156799010Y-88503490D01*
X156799009Y-88503489D01*
X156757633Y-88505403D01*
X156749479Y-88505780D01*
X156748631Y-88505800D01*
X156727810Y-88505800D01*
X156722091Y-88506868D01*
X156719542Y-88507163D01*
X156684993Y-88508761D01*
X156669122Y-88515768D01*
X156660958Y-88518296D01*
X156643902Y-88521485D01*
X156614492Y-88539694D01*
X156612218Y-88540893D01*
X156580574Y-88554866D01*
X156568305Y-88567134D01*
X156561605Y-88572441D01*
X156546858Y-88581572D01*
X156526015Y-88609172D01*
X156524327Y-88611111D01*
X155627213Y-89508226D01*
X155617523Y-89515199D01*
X155616431Y-89515742D01*
X155616431Y-89515743D01*
X155583029Y-89552382D01*
X155582438Y-89553000D01*
X155567716Y-89567724D01*
X155564432Y-89572517D01*
X155562837Y-89574530D01*
X155539532Y-89600096D01*
X155533266Y-89616270D01*
X155529280Y-89623832D01*
X155519479Y-89638140D01*
X155519475Y-89638149D01*
X155511557Y-89671814D01*
X155510796Y-89674271D01*
X155498301Y-89706526D01*
X155498300Y-89706531D01*
X155498300Y-89723874D01*
X155497315Y-89732368D01*
X155493343Y-89749254D01*
X155493343Y-89749257D01*
X155498122Y-89783511D01*
X155498300Y-89786077D01*
X155498300Y-90574272D01*
X155487434Y-90600506D01*
X140704713Y-105383226D01*
X140695023Y-105390199D01*
X140693931Y-105390742D01*
X140693931Y-105390743D01*
X140693929Y-105390744D01*
X140693929Y-105390745D01*
X140663915Y-105423667D01*
X140660529Y-105427382D01*
X140659938Y-105428000D01*
X140645216Y-105442724D01*
X140641932Y-105447517D01*
X140640337Y-105449530D01*
X140617032Y-105475096D01*
X140610766Y-105491270D01*
X140606780Y-105498832D01*
X140596979Y-105513140D01*
X140596975Y-105513149D01*
X140589057Y-105546814D01*
X140588296Y-105549271D01*
X140575801Y-105581526D01*
X140575800Y-105581531D01*
X140575800Y-105598874D01*
X140574815Y-105607368D01*
X140570843Y-105624254D01*
X140570843Y-105624257D01*
X140575622Y-105658511D01*
X140575800Y-105661077D01*
X140575800Y-108750876D01*
X140564934Y-108777110D01*
X140553395Y-108784941D01*
X140497260Y-108809156D01*
X140354274Y-108915605D01*
X140239705Y-109052144D01*
X140239704Y-109052146D01*
X140159706Y-109211433D01*
X140159705Y-109211434D01*
X140118600Y-109384877D01*
X140118600Y-110737613D01*
X139103600Y-110737613D01*
X139103600Y-109429588D01*
X139088098Y-109296958D01*
X139027134Y-109129461D01*
X139027133Y-109129458D01*
X138929186Y-108980540D01*
X138929185Y-108980538D01*
X138799533Y-108858217D01*
X138645167Y-108769094D01*
X138645165Y-108769093D01*
X138645163Y-108769092D01*
X138474413Y-108717973D01*
X138474399Y-108717970D01*
X138296460Y-108707607D01*
X138120925Y-108738559D01*
X137957264Y-108809156D01*
X137957255Y-108809160D01*
X137922370Y-108835131D01*
X137814274Y-108915605D01*
X137699705Y-109052144D01*
X137699704Y-109052146D01*
X137619706Y-109211433D01*
X137619705Y-109211434D01*
X137578600Y-109384877D01*
X137578600Y-110737613D01*
X136563600Y-110737613D01*
X136563600Y-109429588D01*
X136548098Y-109296958D01*
X136487134Y-109129461D01*
X136487133Y-109129458D01*
X136389186Y-108980540D01*
X136389185Y-108980538D01*
X136259533Y-108858217D01*
X136105167Y-108769094D01*
X136105165Y-108769093D01*
X136105163Y-108769092D01*
X135934413Y-108717973D01*
X135934399Y-108717970D01*
X135756460Y-108707607D01*
X135580925Y-108738559D01*
X135417264Y-108809156D01*
X135417255Y-108809160D01*
X135382370Y-108835131D01*
X135274274Y-108915605D01*
X135159705Y-109052144D01*
X135159704Y-109052146D01*
X135079706Y-109211433D01*
X135079705Y-109211434D01*
X135038600Y-109384877D01*
X135038600Y-110737613D01*
X134023600Y-110737613D01*
X134023600Y-109429588D01*
X134008098Y-109296958D01*
X133947134Y-109129461D01*
X133947133Y-109129458D01*
X133849186Y-108980540D01*
X133849185Y-108980538D01*
X133719533Y-108858217D01*
X133565167Y-108769094D01*
X133565165Y-108769093D01*
X133565163Y-108769092D01*
X133394413Y-108717973D01*
X133394399Y-108717970D01*
X133216460Y-108707607D01*
X133040922Y-108738560D01*
X133040921Y-108738560D01*
X133023450Y-108746096D01*
X132995058Y-108746508D01*
X132982523Y-108738264D01*
X127698459Y-103454200D01*
X132672807Y-103454200D01*
X132692338Y-103664979D01*
X132750268Y-103868576D01*
X132844622Y-104058066D01*
X132844626Y-104058073D01*
X132942844Y-104188134D01*
X133363741Y-103767239D01*
X133389975Y-103756373D01*
X133416209Y-103767239D01*
X133421185Y-103773414D01*
X133432031Y-103790290D01*
X133506334Y-103854674D01*
X133519043Y-103880064D01*
X133510077Y-103907006D01*
X133508272Y-103908945D01*
X133086247Y-104330970D01*
X133128623Y-104369600D01*
X133128624Y-104369601D01*
X133308596Y-104481035D01*
X133505979Y-104557501D01*
X133505992Y-104557504D01*
X133714061Y-104596400D01*
X133925739Y-104596400D01*
X134133807Y-104557504D01*
X134133820Y-104557501D01*
X134331203Y-104481035D01*
X134511178Y-104369599D01*
X134553551Y-104330970D01*
X134131526Y-103908945D01*
X134120660Y-103882711D01*
X134131526Y-103856477D01*
X134133414Y-103854719D01*
X134207769Y-103790290D01*
X134218613Y-103773416D01*
X134241935Y-103757221D01*
X134269879Y-103762262D01*
X134276057Y-103767239D01*
X134696954Y-104188134D01*
X134795173Y-104058073D01*
X134795177Y-104058066D01*
X134889531Y-103868576D01*
X134947461Y-103664979D01*
X134966992Y-103454200D01*
X134966992Y-103454199D01*
X139224919Y-103454199D01*
X139243604Y-103655844D01*
X139262076Y-103720768D01*
X139299023Y-103850620D01*
X139389288Y-104031897D01*
X139389290Y-104031900D01*
X139389292Y-104031903D01*
X139511325Y-104193501D01*
X139660975Y-104329925D01*
X139660976Y-104329926D01*
X139660978Y-104329927D01*
X139660980Y-104329929D01*
X139833155Y-104436535D01*
X140021987Y-104509689D01*
X140221046Y-104546900D01*
X140221047Y-104546900D01*
X140423553Y-104546900D01*
X140423554Y-104546900D01*
X140622613Y-104509689D01*
X140811445Y-104436535D01*
X140983620Y-104329929D01*
X141133274Y-104193501D01*
X141255312Y-104031897D01*
X141345577Y-103850620D01*
X141400996Y-103655843D01*
X141419681Y-103454200D01*
X141400996Y-103252557D01*
X141345577Y-103057780D01*
X141255312Y-102876503D01*
X141242863Y-102860018D01*
X141133274Y-102714898D01*
X140983624Y-102578474D01*
X140983623Y-102578473D01*
X140811445Y-102471865D01*
X140622616Y-102398712D01*
X140622614Y-102398711D01*
X140622613Y-102398711D01*
X140622605Y-102398709D01*
X140622603Y-102398709D01*
X140540714Y-102383401D01*
X140423554Y-102361500D01*
X140221046Y-102361500D01*
X140147295Y-102375286D01*
X140021996Y-102398709D01*
X140021983Y-102398712D01*
X139833154Y-102471865D01*
X139660976Y-102578473D01*
X139660975Y-102578474D01*
X139511325Y-102714898D01*
X139389292Y-102876496D01*
X139389288Y-102876503D01*
X139301043Y-103053725D01*
X139299023Y-103057781D01*
X139243604Y-103252555D01*
X139224919Y-103454199D01*
X134966992Y-103454199D01*
X134947461Y-103243420D01*
X134889531Y-103039823D01*
X134795177Y-102850333D01*
X134795173Y-102850326D01*
X134696954Y-102720264D01*
X134276057Y-103141159D01*
X134249823Y-103152025D01*
X134223589Y-103141159D01*
X134218613Y-103134984D01*
X134207769Y-103118110D01*
X134207765Y-103118107D01*
X134207765Y-103118106D01*
X134134032Y-103054216D01*
X134133464Y-103053724D01*
X134120755Y-103028334D01*
X134129722Y-103001392D01*
X134131526Y-102999453D01*
X134553551Y-102577428D01*
X134511176Y-102538799D01*
X134511175Y-102538798D01*
X134331203Y-102427364D01*
X134133820Y-102350898D01*
X134133807Y-102350895D01*
X133925739Y-102312000D01*
X133714061Y-102312000D01*
X133505992Y-102350895D01*
X133505979Y-102350898D01*
X133308596Y-102427364D01*
X133128624Y-102538798D01*
X133128623Y-102538799D01*
X133086248Y-102577428D01*
X133508272Y-102999453D01*
X133519138Y-103025687D01*
X133508272Y-103051921D01*
X133506333Y-103053725D01*
X133432032Y-103118107D01*
X133432031Y-103118109D01*
X133421186Y-103134984D01*
X133397862Y-103151178D01*
X133369918Y-103146136D01*
X133363742Y-103141160D01*
X132942844Y-102720264D01*
X132844626Y-102850326D01*
X132844622Y-102850333D01*
X132750268Y-103039823D01*
X132692338Y-103243420D01*
X132672807Y-103454200D01*
X127698459Y-103454200D01*
X123177259Y-98933000D01*
X132722519Y-98933000D01*
X132741204Y-99134643D01*
X132796623Y-99329420D01*
X132886888Y-99510697D01*
X132886890Y-99510700D01*
X132886892Y-99510703D01*
X133008925Y-99672301D01*
X133158575Y-99808725D01*
X133158576Y-99808726D01*
X133158578Y-99808727D01*
X133158580Y-99808729D01*
X133330755Y-99915335D01*
X133519587Y-99988489D01*
X133718646Y-100025700D01*
X133718647Y-100025700D01*
X133921153Y-100025700D01*
X133921154Y-100025700D01*
X134120213Y-99988489D01*
X134309045Y-99915335D01*
X134481220Y-99808729D01*
X134630874Y-99672301D01*
X134752912Y-99510697D01*
X134843177Y-99329420D01*
X134898596Y-99134643D01*
X134917281Y-98933000D01*
X139224919Y-98933000D01*
X139243604Y-99134643D01*
X139299023Y-99329420D01*
X139389288Y-99510697D01*
X139389290Y-99510700D01*
X139389292Y-99510703D01*
X139511325Y-99672301D01*
X139660975Y-99808725D01*
X139660976Y-99808726D01*
X139660978Y-99808727D01*
X139660980Y-99808729D01*
X139833155Y-99915335D01*
X140021987Y-99988489D01*
X140221046Y-100025700D01*
X140221047Y-100025700D01*
X140423553Y-100025700D01*
X140423554Y-100025700D01*
X140622613Y-99988489D01*
X140811445Y-99915335D01*
X140983620Y-99808729D01*
X141133274Y-99672301D01*
X141255312Y-99510697D01*
X141345577Y-99329420D01*
X141400996Y-99134643D01*
X141419681Y-98933000D01*
X141400996Y-98731357D01*
X141345577Y-98536580D01*
X141255312Y-98355303D01*
X141182836Y-98259329D01*
X141133274Y-98193698D01*
X140983624Y-98057274D01*
X140983623Y-98057273D01*
X140811445Y-97950665D01*
X140622616Y-97877512D01*
X140622614Y-97877511D01*
X140622613Y-97877511D01*
X140622605Y-97877509D01*
X140622603Y-97877509D01*
X140540714Y-97862201D01*
X140423554Y-97840300D01*
X140221046Y-97840300D01*
X140147295Y-97854086D01*
X140021996Y-97877509D01*
X140021983Y-97877512D01*
X139833154Y-97950665D01*
X139660976Y-98057273D01*
X139660975Y-98057274D01*
X139511325Y-98193698D01*
X139389292Y-98355296D01*
X139389288Y-98355303D01*
X139299023Y-98536581D01*
X139243604Y-98731355D01*
X139243603Y-98731357D01*
X139243604Y-98731357D01*
X139224919Y-98933000D01*
X134917281Y-98933000D01*
X134898596Y-98731357D01*
X134843177Y-98536580D01*
X134752912Y-98355303D01*
X134680436Y-98259329D01*
X134630874Y-98193698D01*
X134481224Y-98057274D01*
X134481223Y-98057273D01*
X134309045Y-97950665D01*
X134120216Y-97877512D01*
X134120214Y-97877511D01*
X134120213Y-97877511D01*
X134120205Y-97877509D01*
X134120203Y-97877509D01*
X134038314Y-97862201D01*
X133921154Y-97840300D01*
X133718646Y-97840300D01*
X133644895Y-97854086D01*
X133519596Y-97877509D01*
X133519583Y-97877512D01*
X133330754Y-97950665D01*
X133158576Y-98057273D01*
X133158575Y-98057274D01*
X133008925Y-98193698D01*
X132886892Y-98355296D01*
X132886888Y-98355303D01*
X132796623Y-98536581D01*
X132741204Y-98731355D01*
X132741203Y-98731357D01*
X132741204Y-98731357D01*
X132722519Y-98933000D01*
X123177259Y-98933000D01*
X115926291Y-91682032D01*
X133725499Y-91682032D01*
X133726922Y-91694657D01*
X134150463Y-91271116D01*
X134176697Y-91260250D01*
X134202931Y-91271116D01*
X134203457Y-91271642D01*
X134203459Y-91271645D01*
X134293055Y-91361241D01*
X134293057Y-91361242D01*
X134293582Y-91361767D01*
X134304448Y-91388001D01*
X134293582Y-91414235D01*
X133779582Y-91928234D01*
X133800687Y-91988550D01*
X133897267Y-92142255D01*
X134025644Y-92270632D01*
X134025643Y-92270632D01*
X134179350Y-92367212D01*
X134350694Y-92427168D01*
X134350704Y-92427170D01*
X134531099Y-92447496D01*
X134711495Y-92427170D01*
X134711505Y-92427168D01*
X134882849Y-92367212D01*
X135036555Y-92270632D01*
X135164932Y-92142255D01*
X135261512Y-91988549D01*
X135282616Y-91928236D01*
X135282616Y-91928235D01*
X134768617Y-91414235D01*
X134757751Y-91388001D01*
X134768617Y-91361767D01*
X134769140Y-91361243D01*
X134769145Y-91361241D01*
X134858741Y-91271645D01*
X134858743Y-91271640D01*
X134859267Y-91271117D01*
X134885501Y-91260251D01*
X134911735Y-91271117D01*
X135335277Y-91694659D01*
X135336700Y-91682039D01*
X135336700Y-91680834D01*
X136315000Y-91680834D01*
X136330373Y-91812356D01*
X136390825Y-91978447D01*
X136487951Y-92126120D01*
X136616515Y-92247414D01*
X136616517Y-92247415D01*
X136616518Y-92247416D01*
X136769581Y-92335787D01*
X136769583Y-92335787D01*
X136769585Y-92335789D01*
X136938911Y-92386482D01*
X136938915Y-92386482D01*
X136938919Y-92386483D01*
X136998098Y-92389929D01*
X137115363Y-92396759D01*
X137289428Y-92366067D01*
X137451723Y-92296059D01*
X137593499Y-92190511D01*
X137707113Y-92055112D01*
X137786438Y-91897162D01*
X137827200Y-91725175D01*
X137827200Y-90386366D01*
X137811827Y-90254844D01*
X137751375Y-90088753D01*
X137654249Y-89941080D01*
X137525685Y-89819786D01*
X137525682Y-89819784D01*
X137525681Y-89819783D01*
X137372618Y-89731412D01*
X137372611Y-89731409D01*
X137203294Y-89680719D01*
X137203280Y-89680716D01*
X137026834Y-89670440D01*
X136852772Y-89701132D01*
X136852771Y-89701132D01*
X136690479Y-89771140D01*
X136690477Y-89771141D01*
X136548701Y-89876689D01*
X136548697Y-89876692D01*
X136435091Y-90012081D01*
X136435085Y-90012091D01*
X136355761Y-90170037D01*
X136335662Y-90254844D01*
X136315000Y-90342025D01*
X136315000Y-91680834D01*
X135336700Y-91680834D01*
X135336700Y-90385160D01*
X135335277Y-90372540D01*
X134911735Y-90796082D01*
X134885501Y-90806948D01*
X134859267Y-90796082D01*
X134858742Y-90795557D01*
X134858741Y-90795555D01*
X134769145Y-90705959D01*
X134769142Y-90705957D01*
X134768616Y-90705431D01*
X134757750Y-90679197D01*
X134768616Y-90652963D01*
X135282616Y-90138963D01*
X135282616Y-90138962D01*
X135261512Y-90078650D01*
X135164932Y-89924944D01*
X135036555Y-89796567D01*
X135036556Y-89796567D01*
X134882849Y-89699987D01*
X134711505Y-89640031D01*
X134711495Y-89640029D01*
X134531099Y-89619703D01*
X134350704Y-89640029D01*
X134350694Y-89640031D01*
X134179350Y-89699987D01*
X134025644Y-89796567D01*
X133897267Y-89924944D01*
X133800687Y-90078649D01*
X133779582Y-90138964D01*
X134293582Y-90652964D01*
X134304448Y-90679198D01*
X134293582Y-90705432D01*
X134202932Y-90796082D01*
X134176698Y-90806948D01*
X134150464Y-90796082D01*
X133726922Y-90372540D01*
X133725499Y-90385167D01*
X133725499Y-91682032D01*
X115926291Y-91682032D01*
X115101473Y-90857214D01*
X115094497Y-90847517D01*
X115093956Y-90846431D01*
X115093955Y-90846430D01*
X115093955Y-90846429D01*
X115088606Y-90841553D01*
X115057317Y-90813029D01*
X115056697Y-90812437D01*
X115049334Y-90805075D01*
X115041976Y-90797717D01*
X115039590Y-90796082D01*
X115037183Y-90794433D01*
X115035169Y-90792838D01*
X115009603Y-90769532D01*
X115009600Y-90769530D01*
X114993422Y-90763263D01*
X114985856Y-90759273D01*
X114983321Y-90757537D01*
X114967829Y-90733742D01*
X114967200Y-90726938D01*
X114967200Y-90386373D01*
X114967200Y-90386366D01*
X114951827Y-90254844D01*
X114891375Y-90088753D01*
X114794249Y-89941080D01*
X114665685Y-89819786D01*
X114665682Y-89819784D01*
X114665681Y-89819783D01*
X114512618Y-89731412D01*
X114512611Y-89731409D01*
X114343294Y-89680719D01*
X114343280Y-89680716D01*
X114166834Y-89670440D01*
X113992772Y-89701132D01*
X113992771Y-89701132D01*
X113830479Y-89771140D01*
X113830477Y-89771141D01*
X113688701Y-89876689D01*
X113688697Y-89876692D01*
X113575091Y-90012081D01*
X113575085Y-90012091D01*
X113495761Y-90170037D01*
X113475662Y-90254844D01*
X113455000Y-90342025D01*
X113455000Y-91680834D01*
X112476699Y-91680834D01*
X112476699Y-90385160D01*
X112475277Y-90372540D01*
X112051735Y-90796082D01*
X112025501Y-90806948D01*
X111999267Y-90796082D01*
X111998742Y-90795557D01*
X111998741Y-90795555D01*
X111909145Y-90705959D01*
X111909142Y-90705957D01*
X111908616Y-90705431D01*
X111897750Y-90679197D01*
X111908616Y-90652963D01*
X112422616Y-90138963D01*
X112422616Y-90138962D01*
X112401512Y-90078650D01*
X112304932Y-89924944D01*
X112176555Y-89796567D01*
X112176556Y-89796567D01*
X112022849Y-89699987D01*
X111851505Y-89640031D01*
X111851495Y-89640029D01*
X111671100Y-89619703D01*
X111490704Y-89640029D01*
X111490694Y-89640031D01*
X111319350Y-89699987D01*
X111165644Y-89796567D01*
X111037267Y-89924944D01*
X110940687Y-90078649D01*
X110919582Y-90138964D01*
X111433582Y-90652964D01*
X111444448Y-90679198D01*
X111433582Y-90705432D01*
X111342932Y-90796082D01*
X111316698Y-90806948D01*
X111290464Y-90796082D01*
X110866922Y-90372540D01*
X110865499Y-90385167D01*
X110865499Y-91682032D01*
X97726599Y-91682032D01*
X97726599Y-84753233D01*
X100875785Y-84753233D01*
X100906228Y-85029904D01*
X100976630Y-85299196D01*
X101085493Y-85555373D01*
X101085494Y-85555375D01*
X101230488Y-85792957D01*
X101230491Y-85792960D01*
X101230493Y-85792964D01*
X101408542Y-86006912D01*
X101615845Y-86192656D01*
X101847982Y-86346237D01*
X101847983Y-86346237D01*
X101847992Y-86346242D01*
X102099995Y-86464376D01*
X102100005Y-86464380D01*
X102100009Y-86464382D01*
X102366551Y-86544573D01*
X102641928Y-86585100D01*
X102641931Y-86585100D01*
X102850582Y-86585100D01*
X102850589Y-86585100D01*
X103058701Y-86569868D01*
X103330386Y-86509348D01*
X103590363Y-86409915D01*
X103833093Y-86273689D01*
X104053401Y-86103572D01*
X104197990Y-85953603D01*
X107323145Y-85953603D01*
X107343336Y-86223056D01*
X107403468Y-86486510D01*
X107502187Y-86738038D01*
X107502189Y-86738042D01*
X107637297Y-86972057D01*
X107805775Y-87183322D01*
X107805779Y-87183325D01*
X107805783Y-87183330D01*
X108003851Y-87367110D01*
X108003855Y-87367113D01*
X108003858Y-87367116D01*
X108227123Y-87519335D01*
X108470580Y-87636578D01*
X108470585Y-87636579D01*
X108470588Y-87636581D01*
X108620736Y-87682895D01*
X108728792Y-87716226D01*
X108995991Y-87756500D01*
X109266209Y-87756500D01*
X109533408Y-87716226D01*
X109728467Y-87656058D01*
X109791611Y-87636581D01*
X109791612Y-87636580D01*
X109791620Y-87636578D01*
X110035078Y-87519335D01*
X110258342Y-87367116D01*
X110456425Y-87183322D01*
X110624903Y-86972057D01*
X110760011Y-86738042D01*
X110826015Y-86569867D01*
X110858731Y-86486510D01*
X110858731Y-86486507D01*
X110858733Y-86486504D01*
X110918862Y-86223062D01*
X110918862Y-86223059D01*
X110918863Y-86223056D01*
X110939055Y-85953603D01*
X117483145Y-85953603D01*
X117503336Y-86223056D01*
X117563468Y-86486510D01*
X117662187Y-86738038D01*
X117662189Y-86738042D01*
X117797297Y-86972057D01*
X117965775Y-87183322D01*
X117965779Y-87183325D01*
X117965783Y-87183330D01*
X118163851Y-87367110D01*
X118163855Y-87367113D01*
X118163858Y-87367116D01*
X118387123Y-87519335D01*
X118630580Y-87636578D01*
X118630585Y-87636579D01*
X118630588Y-87636581D01*
X118780736Y-87682895D01*
X118888792Y-87716226D01*
X119155991Y-87756500D01*
X119426209Y-87756500D01*
X119693408Y-87716226D01*
X119888467Y-87656058D01*
X119951611Y-87636581D01*
X119951612Y-87636580D01*
X119951620Y-87636578D01*
X120195078Y-87519335D01*
X120418342Y-87367116D01*
X120616425Y-87183322D01*
X120784903Y-86972057D01*
X120920011Y-86738042D01*
X120986015Y-86569867D01*
X121018731Y-86486510D01*
X121018731Y-86486507D01*
X121018733Y-86486504D01*
X121078862Y-86223062D01*
X121078862Y-86223059D01*
X121078863Y-86223056D01*
X121099055Y-85953603D01*
X130183145Y-85953603D01*
X130203336Y-86223056D01*
X130263468Y-86486510D01*
X130362187Y-86738038D01*
X130362189Y-86738042D01*
X130497297Y-86972057D01*
X130665775Y-87183322D01*
X130665779Y-87183325D01*
X130665783Y-87183330D01*
X130863851Y-87367110D01*
X130863855Y-87367113D01*
X130863858Y-87367116D01*
X131087123Y-87519335D01*
X131330580Y-87636578D01*
X131330585Y-87636579D01*
X131330588Y-87636581D01*
X131480736Y-87682895D01*
X131588792Y-87716226D01*
X131855991Y-87756500D01*
X132126209Y-87756500D01*
X132393408Y-87716226D01*
X132588467Y-87656058D01*
X132651611Y-87636581D01*
X132651612Y-87636580D01*
X132651620Y-87636578D01*
X132895078Y-87519335D01*
X133118342Y-87367116D01*
X133316425Y-87183322D01*
X133484903Y-86972057D01*
X133620011Y-86738042D01*
X133686015Y-86569867D01*
X133718731Y-86486510D01*
X133718731Y-86486507D01*
X133718733Y-86486504D01*
X133778862Y-86223062D01*
X133778862Y-86223059D01*
X133778863Y-86223056D01*
X133799055Y-85953603D01*
X140343145Y-85953603D01*
X140363336Y-86223056D01*
X140423468Y-86486510D01*
X140522187Y-86738038D01*
X140522189Y-86738042D01*
X140657297Y-86972057D01*
X140825775Y-87183322D01*
X140825779Y-87183325D01*
X140825783Y-87183330D01*
X141023851Y-87367110D01*
X141023855Y-87367113D01*
X141023858Y-87367116D01*
X141247123Y-87519335D01*
X141490580Y-87636578D01*
X141490585Y-87636579D01*
X141490588Y-87636581D01*
X141640736Y-87682895D01*
X141748792Y-87716226D01*
X142015991Y-87756500D01*
X142286209Y-87756500D01*
X142553408Y-87716226D01*
X142748467Y-87656058D01*
X142811611Y-87636581D01*
X142811612Y-87636580D01*
X142811620Y-87636578D01*
X143055078Y-87519335D01*
X143278342Y-87367116D01*
X143476425Y-87183322D01*
X143644903Y-86972057D01*
X143780011Y-86738042D01*
X143846015Y-86569867D01*
X143878731Y-86486510D01*
X143878731Y-86486507D01*
X143878733Y-86486504D01*
X143938862Y-86223062D01*
X143938862Y-86223059D01*
X143938863Y-86223056D01*
X143959055Y-85953603D01*
X153043145Y-85953603D01*
X153063336Y-86223056D01*
X153123468Y-86486510D01*
X153222187Y-86738038D01*
X153222189Y-86738042D01*
X153357297Y-86972057D01*
X153525775Y-87183322D01*
X153525779Y-87183325D01*
X153525783Y-87183330D01*
X153723851Y-87367110D01*
X153723855Y-87367113D01*
X153723858Y-87367116D01*
X153947123Y-87519335D01*
X154190580Y-87636578D01*
X154190585Y-87636579D01*
X154190588Y-87636581D01*
X154340736Y-87682895D01*
X154448792Y-87716226D01*
X154715991Y-87756500D01*
X154986209Y-87756500D01*
X155253408Y-87716226D01*
X155448467Y-87656058D01*
X155511611Y-87636581D01*
X155511612Y-87636580D01*
X155511620Y-87636578D01*
X155755078Y-87519335D01*
X155978342Y-87367116D01*
X156176425Y-87183322D01*
X156344903Y-86972057D01*
X156480011Y-86738042D01*
X156546015Y-86569867D01*
X156578731Y-86486510D01*
X156578731Y-86486507D01*
X156578733Y-86486504D01*
X156638862Y-86223062D01*
X156638862Y-86223059D01*
X156638863Y-86223056D01*
X156659055Y-85953603D01*
X163203145Y-85953603D01*
X163223336Y-86223056D01*
X163283468Y-86486510D01*
X163382187Y-86738038D01*
X163382189Y-86738042D01*
X163517297Y-86972057D01*
X163685775Y-87183322D01*
X163685779Y-87183325D01*
X163685783Y-87183330D01*
X163883851Y-87367110D01*
X163883855Y-87367113D01*
X163883858Y-87367116D01*
X164107123Y-87519335D01*
X164350580Y-87636578D01*
X164350585Y-87636579D01*
X164350588Y-87636581D01*
X164500736Y-87682895D01*
X164608792Y-87716226D01*
X164875991Y-87756500D01*
X165146209Y-87756500D01*
X165413408Y-87716226D01*
X165608467Y-87656058D01*
X165671611Y-87636581D01*
X165671612Y-87636580D01*
X165671620Y-87636578D01*
X165915078Y-87519335D01*
X166138342Y-87367116D01*
X166336425Y-87183322D01*
X166504903Y-86972057D01*
X166640011Y-86738042D01*
X166706015Y-86569867D01*
X166738731Y-86486510D01*
X166738731Y-86486507D01*
X166738733Y-86486504D01*
X166798862Y-86223062D01*
X166798862Y-86223059D01*
X166798863Y-86223056D01*
X166819055Y-85953603D01*
X175903145Y-85953603D01*
X175923336Y-86223056D01*
X175983468Y-86486510D01*
X176082187Y-86738038D01*
X176082189Y-86738042D01*
X176217297Y-86972057D01*
X176385775Y-87183322D01*
X176385779Y-87183325D01*
X176385783Y-87183330D01*
X176583851Y-87367110D01*
X176583855Y-87367113D01*
X176583858Y-87367116D01*
X176807123Y-87519335D01*
X177050580Y-87636578D01*
X177050585Y-87636579D01*
X177050588Y-87636581D01*
X177200736Y-87682895D01*
X177308792Y-87716226D01*
X177575991Y-87756500D01*
X177846209Y-87756500D01*
X178113408Y-87716226D01*
X178308467Y-87656058D01*
X178371611Y-87636581D01*
X178371612Y-87636580D01*
X178371620Y-87636578D01*
X178615078Y-87519335D01*
X178838342Y-87367116D01*
X179036425Y-87183322D01*
X179204903Y-86972057D01*
X179340011Y-86738042D01*
X179406015Y-86569867D01*
X179438731Y-86486510D01*
X179438731Y-86486507D01*
X179438733Y-86486504D01*
X179498862Y-86223062D01*
X179498862Y-86223059D01*
X179498863Y-86223056D01*
X179519055Y-85953603D01*
X186063145Y-85953603D01*
X186083336Y-86223056D01*
X186143468Y-86486510D01*
X186242187Y-86738038D01*
X186242189Y-86738042D01*
X186377297Y-86972057D01*
X186545775Y-87183322D01*
X186545779Y-87183325D01*
X186545783Y-87183330D01*
X186743851Y-87367110D01*
X186743855Y-87367113D01*
X186743858Y-87367116D01*
X186967123Y-87519335D01*
X187210580Y-87636578D01*
X187210585Y-87636579D01*
X187210588Y-87636581D01*
X187360736Y-87682895D01*
X187468792Y-87716226D01*
X187735991Y-87756500D01*
X188006209Y-87756500D01*
X188273408Y-87716226D01*
X188468467Y-87656058D01*
X188531611Y-87636581D01*
X188531612Y-87636580D01*
X188531620Y-87636578D01*
X188775078Y-87519335D01*
X188998342Y-87367116D01*
X189196425Y-87183322D01*
X189364903Y-86972057D01*
X189500011Y-86738042D01*
X189566015Y-86569867D01*
X189598731Y-86486510D01*
X189598731Y-86486507D01*
X189598733Y-86486504D01*
X189658862Y-86223062D01*
X189658862Y-86223059D01*
X189658863Y-86223056D01*
X189679055Y-85953603D01*
X189679055Y-85953596D01*
X189658863Y-85684143D01*
X189657191Y-85676818D01*
X189598733Y-85420696D01*
X189598732Y-85420693D01*
X189598731Y-85420689D01*
X189500012Y-85169161D01*
X189500011Y-85169158D01*
X189364903Y-84935143D01*
X189219835Y-84753233D01*
X192315785Y-84753233D01*
X192346228Y-85029904D01*
X192416630Y-85299196D01*
X192525493Y-85555373D01*
X192525494Y-85555375D01*
X192670488Y-85792957D01*
X192670491Y-85792960D01*
X192670493Y-85792964D01*
X192848542Y-86006912D01*
X193055845Y-86192656D01*
X193287982Y-86346237D01*
X193287983Y-86346237D01*
X193287992Y-86346242D01*
X193539995Y-86464376D01*
X193540005Y-86464380D01*
X193540009Y-86464382D01*
X193806551Y-86544573D01*
X194081928Y-86585100D01*
X194081931Y-86585100D01*
X194290582Y-86585100D01*
X194290589Y-86585100D01*
X194498701Y-86569868D01*
X194770386Y-86509348D01*
X195030363Y-86409915D01*
X195273093Y-86273689D01*
X195493401Y-86103572D01*
X195686592Y-85903192D01*
X195848549Y-85676818D01*
X195975819Y-85429275D01*
X196065691Y-85165839D01*
X196116248Y-84892126D01*
X196126414Y-84613968D01*
X196118284Y-84540084D01*
X196095971Y-84337295D01*
X196095971Y-84337294D01*
X196025569Y-84068001D01*
X195916707Y-83811828D01*
X195771707Y-83574236D01*
X195593658Y-83360288D01*
X195386355Y-83174544D01*
X195263867Y-83093507D01*
X195154216Y-83020962D01*
X195154207Y-83020957D01*
X194902204Y-82902823D01*
X194902192Y-82902818D01*
X194635654Y-82822628D01*
X194635650Y-82822627D01*
X194635649Y-82822627D01*
X194360272Y-82782100D01*
X194151611Y-82782100D01*
X193969513Y-82795428D01*
X193943498Y-82797332D01*
X193671819Y-82857850D01*
X193411836Y-82957284D01*
X193169112Y-83093507D01*
X192948797Y-83263629D01*
X192755607Y-83464008D01*
X192593652Y-83690380D01*
X192466381Y-83937923D01*
X192376509Y-84201357D01*
X192376508Y-84201363D01*
X192325951Y-84475076D01*
X192325951Y-84475084D01*
X192315785Y-84753233D01*
X189219835Y-84753233D01*
X189196425Y-84723878D01*
X189196420Y-84723873D01*
X189196416Y-84723869D01*
X188998348Y-84540089D01*
X188998337Y-84540080D01*
X188775075Y-84387863D01*
X188644693Y-84325075D01*
X188531620Y-84270622D01*
X188531617Y-84270621D01*
X188531611Y-84270618D01*
X188273409Y-84190974D01*
X188006209Y-84150700D01*
X187735991Y-84150700D01*
X187468790Y-84190974D01*
X187210588Y-84270618D01*
X187210580Y-84270622D01*
X186967126Y-84387863D01*
X186967124Y-84387864D01*
X186743862Y-84540080D01*
X186743851Y-84540089D01*
X186545783Y-84723869D01*
X186545770Y-84723883D01*
X186377302Y-84935136D01*
X186377298Y-84935142D01*
X186242190Y-85169155D01*
X186242187Y-85169161D01*
X186143468Y-85420689D01*
X186083336Y-85684143D01*
X186063145Y-85953596D01*
X186063145Y-85953603D01*
X179519055Y-85953603D01*
X179519055Y-85953596D01*
X179498863Y-85684143D01*
X179497191Y-85676818D01*
X179438733Y-85420696D01*
X179438732Y-85420693D01*
X179438731Y-85420689D01*
X179340012Y-85169161D01*
X179340011Y-85169158D01*
X179204903Y-84935143D01*
X179036425Y-84723878D01*
X179036420Y-84723873D01*
X179036416Y-84723869D01*
X178838348Y-84540089D01*
X178838337Y-84540080D01*
X178615075Y-84387863D01*
X178484693Y-84325075D01*
X178371620Y-84270622D01*
X178371617Y-84270621D01*
X178371611Y-84270618D01*
X178113409Y-84190974D01*
X177846209Y-84150700D01*
X177575991Y-84150700D01*
X177308790Y-84190974D01*
X177050588Y-84270618D01*
X177050580Y-84270622D01*
X176807126Y-84387863D01*
X176807124Y-84387864D01*
X176583862Y-84540080D01*
X176583851Y-84540089D01*
X176385783Y-84723869D01*
X176385770Y-84723883D01*
X176217302Y-84935136D01*
X176217298Y-84935142D01*
X176082190Y-85169155D01*
X176082187Y-85169161D01*
X175983468Y-85420689D01*
X175923336Y-85684143D01*
X175903145Y-85953596D01*
X175903145Y-85953603D01*
X166819055Y-85953603D01*
X166819055Y-85953596D01*
X166798863Y-85684143D01*
X166797191Y-85676818D01*
X166738733Y-85420696D01*
X166738732Y-85420693D01*
X166738731Y-85420689D01*
X166640012Y-85169161D01*
X166640011Y-85169158D01*
X166504903Y-84935143D01*
X166336425Y-84723878D01*
X166336420Y-84723873D01*
X166336416Y-84723869D01*
X166138348Y-84540089D01*
X166138337Y-84540080D01*
X165915075Y-84387863D01*
X165784693Y-84325075D01*
X165671620Y-84270622D01*
X165671617Y-84270621D01*
X165671611Y-84270618D01*
X165413409Y-84190974D01*
X165146209Y-84150700D01*
X164875991Y-84150700D01*
X164608790Y-84190974D01*
X164350588Y-84270618D01*
X164350580Y-84270622D01*
X164107126Y-84387863D01*
X164107124Y-84387864D01*
X163883862Y-84540080D01*
X163883851Y-84540089D01*
X163685783Y-84723869D01*
X163685770Y-84723883D01*
X163517302Y-84935136D01*
X163517298Y-84935142D01*
X163382190Y-85169155D01*
X163382187Y-85169161D01*
X163283468Y-85420689D01*
X163223336Y-85684143D01*
X163203145Y-85953596D01*
X163203145Y-85953603D01*
X156659055Y-85953603D01*
X156659055Y-85953596D01*
X156638863Y-85684143D01*
X156637191Y-85676818D01*
X156578733Y-85420696D01*
X156578732Y-85420693D01*
X156578731Y-85420689D01*
X156480012Y-85169161D01*
X156480011Y-85169158D01*
X156344903Y-84935143D01*
X156176425Y-84723878D01*
X156176420Y-84723873D01*
X156176416Y-84723869D01*
X155978348Y-84540089D01*
X155978337Y-84540080D01*
X155755075Y-84387863D01*
X155624693Y-84325075D01*
X155511620Y-84270622D01*
X155511617Y-84270621D01*
X155511611Y-84270618D01*
X155253409Y-84190974D01*
X154986209Y-84150700D01*
X154715991Y-84150700D01*
X154448790Y-84190974D01*
X154190588Y-84270618D01*
X154190580Y-84270622D01*
X153947126Y-84387863D01*
X153947124Y-84387864D01*
X153723862Y-84540080D01*
X153723851Y-84540089D01*
X153525783Y-84723869D01*
X153525770Y-84723883D01*
X153357302Y-84935136D01*
X153357298Y-84935142D01*
X153222190Y-85169155D01*
X153222187Y-85169161D01*
X153123468Y-85420689D01*
X153063336Y-85684143D01*
X153043145Y-85953596D01*
X153043145Y-85953603D01*
X143959055Y-85953603D01*
X143959055Y-85953596D01*
X143938863Y-85684143D01*
X143937191Y-85676818D01*
X143878733Y-85420696D01*
X143878732Y-85420693D01*
X143878731Y-85420689D01*
X143780012Y-85169161D01*
X143780011Y-85169158D01*
X143644903Y-84935143D01*
X143476425Y-84723878D01*
X143476420Y-84723873D01*
X143476416Y-84723869D01*
X143278348Y-84540089D01*
X143278337Y-84540080D01*
X143055075Y-84387863D01*
X142924693Y-84325075D01*
X142811620Y-84270622D01*
X142811617Y-84270621D01*
X142811611Y-84270618D01*
X142553409Y-84190974D01*
X142286209Y-84150700D01*
X142015991Y-84150700D01*
X141748790Y-84190974D01*
X141490588Y-84270618D01*
X141490580Y-84270622D01*
X141247126Y-84387863D01*
X141247124Y-84387864D01*
X141023862Y-84540080D01*
X141023851Y-84540089D01*
X140825783Y-84723869D01*
X140825770Y-84723883D01*
X140657302Y-84935136D01*
X140657298Y-84935142D01*
X140522190Y-85169155D01*
X140522187Y-85169161D01*
X140423468Y-85420689D01*
X140363336Y-85684143D01*
X140343145Y-85953596D01*
X140343145Y-85953603D01*
X133799055Y-85953603D01*
X133799055Y-85953596D01*
X133778863Y-85684143D01*
X133777191Y-85676818D01*
X133718733Y-85420696D01*
X133718732Y-85420693D01*
X133718731Y-85420689D01*
X133620012Y-85169161D01*
X133620011Y-85169158D01*
X133484903Y-84935143D01*
X133316425Y-84723878D01*
X133316420Y-84723873D01*
X133316416Y-84723869D01*
X133118348Y-84540089D01*
X133118337Y-84540080D01*
X132895075Y-84387863D01*
X132764693Y-84325075D01*
X132651620Y-84270622D01*
X132651617Y-84270621D01*
X132651611Y-84270618D01*
X132393409Y-84190974D01*
X132126209Y-84150700D01*
X131855991Y-84150700D01*
X131588790Y-84190974D01*
X131330588Y-84270618D01*
X131330580Y-84270622D01*
X131087126Y-84387863D01*
X131087124Y-84387864D01*
X130863862Y-84540080D01*
X130863851Y-84540089D01*
X130665783Y-84723869D01*
X130665770Y-84723883D01*
X130497302Y-84935136D01*
X130497298Y-84935142D01*
X130362190Y-85169155D01*
X130362187Y-85169161D01*
X130263468Y-85420689D01*
X130203336Y-85684143D01*
X130183145Y-85953596D01*
X130183145Y-85953603D01*
X121099055Y-85953603D01*
X121099055Y-85953596D01*
X121078863Y-85684143D01*
X121077191Y-85676818D01*
X121018733Y-85420696D01*
X121018732Y-85420693D01*
X121018731Y-85420689D01*
X120920012Y-85169161D01*
X120920011Y-85169158D01*
X120784903Y-84935143D01*
X120616425Y-84723878D01*
X120616420Y-84723873D01*
X120616416Y-84723869D01*
X120418348Y-84540089D01*
X120418337Y-84540080D01*
X120195075Y-84387863D01*
X120064693Y-84325075D01*
X119951620Y-84270622D01*
X119951617Y-84270621D01*
X119951611Y-84270618D01*
X119693409Y-84190974D01*
X119426209Y-84150700D01*
X119155991Y-84150700D01*
X118888790Y-84190974D01*
X118630588Y-84270618D01*
X118630580Y-84270622D01*
X118387126Y-84387863D01*
X118387124Y-84387864D01*
X118163862Y-84540080D01*
X118163851Y-84540089D01*
X117965783Y-84723869D01*
X117965770Y-84723883D01*
X117797302Y-84935136D01*
X117797298Y-84935142D01*
X117662190Y-85169155D01*
X117662187Y-85169161D01*
X117563468Y-85420689D01*
X117503336Y-85684143D01*
X117483145Y-85953596D01*
X117483145Y-85953603D01*
X110939055Y-85953603D01*
X110939055Y-85953596D01*
X110918863Y-85684143D01*
X110917191Y-85676818D01*
X110858733Y-85420696D01*
X110858732Y-85420693D01*
X110858731Y-85420689D01*
X110760012Y-85169161D01*
X110760011Y-85169158D01*
X110624903Y-84935143D01*
X110456425Y-84723878D01*
X110456420Y-84723873D01*
X110456416Y-84723869D01*
X110258348Y-84540089D01*
X110258337Y-84540080D01*
X110035075Y-84387863D01*
X109904693Y-84325075D01*
X109791620Y-84270622D01*
X109791617Y-84270621D01*
X109791611Y-84270618D01*
X109533409Y-84190974D01*
X109266209Y-84150700D01*
X108995991Y-84150700D01*
X108728790Y-84190974D01*
X108470588Y-84270618D01*
X108470580Y-84270622D01*
X108227126Y-84387863D01*
X108227124Y-84387864D01*
X108003862Y-84540080D01*
X108003851Y-84540089D01*
X107805783Y-84723869D01*
X107805770Y-84723883D01*
X107637302Y-84935136D01*
X107637298Y-84935142D01*
X107502190Y-85169155D01*
X107502187Y-85169161D01*
X107403468Y-85420689D01*
X107343336Y-85684143D01*
X107323145Y-85953596D01*
X107323145Y-85953603D01*
X104197990Y-85953603D01*
X104246592Y-85903192D01*
X104408549Y-85676818D01*
X104535819Y-85429275D01*
X104625691Y-85165839D01*
X104676248Y-84892126D01*
X104686414Y-84613968D01*
X104678284Y-84540084D01*
X104655971Y-84337295D01*
X104655971Y-84337294D01*
X104585569Y-84068001D01*
X104476707Y-83811828D01*
X104331707Y-83574236D01*
X104153658Y-83360288D01*
X103946355Y-83174544D01*
X103823867Y-83093507D01*
X103714216Y-83020962D01*
X103714207Y-83020957D01*
X103462204Y-82902823D01*
X103462192Y-82902818D01*
X103195654Y-82822628D01*
X103195650Y-82822627D01*
X103195649Y-82822627D01*
X102920272Y-82782100D01*
X102711611Y-82782100D01*
X102529513Y-82795428D01*
X102503498Y-82797332D01*
X102231819Y-82857850D01*
X101971836Y-82957284D01*
X101729112Y-83093507D01*
X101508797Y-83263629D01*
X101315607Y-83464008D01*
X101153652Y-83690380D01*
X101026381Y-83937923D01*
X100936509Y-84201357D01*
X100936508Y-84201363D01*
X100885951Y-84475076D01*
X100885951Y-84475084D01*
X100875785Y-84753233D01*
X97726599Y-84753233D01*
X97726599Y-83414005D01*
X97726619Y-83413205D01*
X97744779Y-83043537D01*
X97744954Y-83041770D01*
X97799185Y-82676171D01*
X97799539Y-82674400D01*
X97824816Y-82573485D01*
X97889341Y-82315885D01*
X97889862Y-82314171D01*
X98014371Y-81966192D01*
X98015068Y-81964510D01*
X98173088Y-81630403D01*
X98173931Y-81628826D01*
X98363942Y-81311812D01*
X98364945Y-81310313D01*
X98585102Y-81013468D01*
X98586257Y-81012060D01*
X98834454Y-80738215D01*
X98835715Y-80736954D01*
X99109564Y-80488753D01*
X99110968Y-80487602D01*
X99407813Y-80267445D01*
X99409312Y-80266442D01*
X99726326Y-80076431D01*
X99727903Y-80075588D01*
X100062013Y-79917566D01*
X100063693Y-79916871D01*
X100411671Y-79792362D01*
X100413385Y-79791841D01*
X100670985Y-79727316D01*
X100771900Y-79702039D01*
X100773671Y-79701685D01*
X101139270Y-79647454D01*
X101141037Y-79647279D01*
X101510665Y-79629121D01*
X101511549Y-79629100D01*
X101519385Y-79629100D01*
X195482815Y-79629100D01*
X195490651Y-79629100D01*
X195491534Y-79629121D01*
G37*
%TD.AperFunction*%
%TD*%
M02*
