%TF.GenerationSoftware,KiCad,Pcbnew,7.0.7*%
%TF.CreationDate,2023-09-22T15:36:31-04:00*%
%TF.ProjectId,HMS_8ValveDriver,484d535f-3856-4616-9c76-654472697665,rev?*%
%TF.SameCoordinates,Original*%
%TF.FileFunction,Soldermask,Top*%
%TF.FilePolarity,Negative*%
%FSLAX46Y46*%
G04 Gerber Fmt 4.6, Leading zero omitted, Abs format (unit mm)*
G04 Created by KiCad (PCBNEW 7.0.7) date 2023-09-22 15:36:31*
%MOMM*%
%LPD*%
G01*
G04 APERTURE LIST*
%ADD10C,2.032000*%
%ADD11C,3.302000*%
%ADD12C,3.452400*%
%ADD13O,1.358800X2.565200*%
%ADD14O,1.371600X2.590800*%
%ADD15C,4.470400*%
G04 APERTURE END LIST*
D10*
%TO.C,J5*%
X182791100Y-125323600D03*
X185331100Y-125323600D03*
%TD*%
%TO.C,J1*%
X195491100Y-117703600D03*
X195491100Y-115163600D03*
X195491100Y-112623600D03*
X195491100Y-110083600D03*
X195491100Y-107543600D03*
X195491100Y-105003600D03*
X195491100Y-102463600D03*
X195491100Y-99923600D03*
X195491100Y-97383600D03*
X195491100Y-94843600D03*
%TD*%
D11*
%TO.C,H1*%
X102781100Y-125323600D03*
%TD*%
D12*
%TO.C,J18*%
X109131100Y-85953600D03*
X119291100Y-85953600D03*
D13*
X111671100Y-91033600D03*
X114211100Y-91033600D03*
%TD*%
D12*
%TO.C,J16*%
X154851100Y-85953600D03*
X165011100Y-85953600D03*
D13*
X157391100Y-91033600D03*
X159931100Y-91033600D03*
%TD*%
D10*
%TO.C,J10*%
X131991100Y-125323600D03*
X134531100Y-125323600D03*
%TD*%
D11*
%TO.C,H2*%
X102781100Y-84683600D03*
%TD*%
D12*
%TO.C,J17*%
X131991100Y-85953600D03*
X142151100Y-85953600D03*
D13*
X134531100Y-91033600D03*
X137071100Y-91033600D03*
%TD*%
D10*
%TO.C,S3*%
X157949900Y-98933000D03*
X164452300Y-98933000D03*
X157949900Y-103454200D03*
X164452300Y-103454200D03*
%TD*%
%TO.C,J8*%
X152311100Y-125323600D03*
X154851100Y-125323600D03*
%TD*%
%TO.C,J6*%
X172631100Y-125323600D03*
X175171100Y-125323600D03*
%TD*%
D12*
%TO.C,J15*%
X177711100Y-85953600D03*
X187871100Y-85953600D03*
D13*
X180251100Y-91033600D03*
X182791100Y-91033600D03*
%TD*%
D11*
%TO.C,H3*%
X194221100Y-84683600D03*
%TD*%
D10*
%TO.C,J7*%
X162471100Y-125323600D03*
X165011100Y-125323600D03*
%TD*%
D14*
%TO.C,IC1*%
X151041100Y-110083600D03*
X148501100Y-110083600D03*
X145961100Y-110083600D03*
X143421100Y-110083600D03*
X140881100Y-110083600D03*
X138341100Y-110083600D03*
X135801100Y-110083600D03*
X133261100Y-110083600D03*
X130721100Y-110083600D03*
X130721100Y-117703600D03*
X133261100Y-117703600D03*
X135801100Y-117703600D03*
X138341100Y-117703600D03*
X140881100Y-117703600D03*
X143421100Y-117703600D03*
X145961100Y-117703600D03*
X148501100Y-117703600D03*
X151041100Y-117703600D03*
%TD*%
D10*
%TO.C,S4*%
X180809900Y-98933000D03*
X187312300Y-98933000D03*
X180809900Y-103454200D03*
X187312300Y-103454200D03*
%TD*%
%TO.C,S2*%
X133819900Y-98933000D03*
X140322300Y-98933000D03*
X133819900Y-103454200D03*
X140322300Y-103454200D03*
%TD*%
%TO.C,J12*%
X111671100Y-125323600D03*
X114211100Y-125323600D03*
%TD*%
D11*
%TO.C,H4*%
X194221100Y-125323600D03*
%TD*%
D15*
%TO.C,J4*%
X102861100Y-113893600D03*
X105861100Y-118593600D03*
X108861100Y-113893600D03*
%TD*%
D10*
%TO.C,J9*%
X142151100Y-125323600D03*
X144691100Y-125323600D03*
%TD*%
%TO.C,S1*%
X109689900Y-98933000D03*
X116192300Y-98933000D03*
X109689900Y-103454200D03*
X116192300Y-103454200D03*
%TD*%
%TO.C,J11*%
X121831100Y-125323600D03*
X124371100Y-125323600D03*
%TD*%
M02*
